<?xml version="1.0" encoding="UTF-8" standalone="no"?>
<!DOCTYPE svg PUBLIC "-//W3C//DTD SVG 1.1//EN"
 "http://www.w3.org/Graphics/SVG/1.1/DTD/svg11.dtd">
<!-- Generated by graphviz version 2.40.1 (0)
 -->
<!-- Title: %3 Pages: 1 -->
<svg width="1213pt" height="548pt"
 viewBox="0.00 0.00 1213.46 548.00" xmlns="http://www.w3.org/2000/svg" xmlns:xlink="http://www.w3.org/1999/xlink">
<g id="graph0" class="graph" transform="scale(1 1) rotate(0) translate(4 544)">
<title>%3</title>
<polygon fill="#ffffff" stroke="transparent" points="-4,4 -4,-544 1209.4614,-544 1209.4614,4 -4,4"/>
<!-- distance_core -->
<g id="node1" class="node">
<title>distance_core</title>
<ellipse fill="#add8e6" stroke="#000000" cx="237.229" cy="-522" rx="237.4581" ry="18"/>
<text text-anchor="middle" x="237.229" y="-518.3" font-family="Times,serif" font-size="14.00" fill="#000000">Methods for calculating and comparing distance</text>
</g>
<!-- streaming_proto -->
<g id="node2" class="node">
<title>streaming_proto</title>
<ellipse fill="#add8e6" stroke="#000000" cx="237.229" cy="-450" rx="139.9756" ry="18"/>
<text text-anchor="middle" x="237.229" y="-446.3" font-family="Times,serif" font-size="14.00" fill="#000000">streaming protocol refactor</text>
</g>
<!-- distance_core&#45;&gt;streaming_proto -->
<g id="edge1" class="edge">
<title>distance_core&#45;&gt;streaming_proto</title>
<path fill="none" stroke="#000000" d="M237.229,-503.8314C237.229,-496.131 237.229,-486.9743 237.229,-478.4166"/>
<polygon fill="#000000" stroke="#000000" points="240.7291,-478.4132 237.229,-468.4133 233.7291,-478.4133 240.7291,-478.4132"/>
</g>
<!-- retrieve_proto -->
<g id="node3" class="node">
<title>retrieve_proto</title>
<ellipse fill="#add8e6" stroke="#000000" cx="245.229" cy="-378" rx="128.0773" ry="18"/>
<text text-anchor="middle" x="245.229" y="-374.3" font-family="Times,serif" font-size="14.00" fill="#000000">Explicit retrieve protocol</text>
</g>
<!-- streaming_proto&#45;&gt;retrieve_proto -->
<g id="edge2" class="edge">
<title>streaming_proto&#45;&gt;retrieve_proto</title>
<path fill="none" stroke="#000000" d="M239.2477,-431.8314C240.1033,-424.131 241.1207,-414.9743 242.0715,-406.4166"/>
<polygon fill="#000000" stroke="#000000" points="245.5572,-406.7386 243.183,-396.4133 238.6,-405.9656 245.5572,-406.7386"/>
</g>
<!-- pushsync -->
<g id="node4" class="node">
<title>pushsync</title>
<ellipse fill="#add8e6" stroke="#000000" cx="296.229" cy="-306" rx="57.6901" ry="18"/>
<text text-anchor="middle" x="296.229" y="-302.3" font-family="Times,serif" font-size="14.00" fill="#000000">push sync</text>
</g>
<!-- retrieve_proto&#45;&gt;pushsync -->
<g id="edge3" class="edge">
<title>retrieve_proto&#45;&gt;pushsync</title>
<path fill="none" stroke="#000000" d="M258.0984,-359.8314C264.0019,-351.497 271.1138,-341.4567 277.5883,-332.3162"/>
<polygon fill="#000000" stroke="#000000" points="280.6162,-334.0967 283.5403,-323.9134 274.904,-330.0506 280.6162,-334.0967"/>
</g>
<!-- bzzl_read -->
<g id="node12" class="node">
<title>bzzl_read</title>
<ellipse fill="none" stroke="#000000" cx="578.229" cy="-306" rx="55.4913" ry="18"/>
<text text-anchor="middle" x="578.229" y="-302.3" font-family="Times,serif" font-size="14.00" fill="#000000">bzzl_read</text>
</g>
<!-- retrieve_proto&#45;&gt;bzzl_read -->
<g id="edge5" class="edge">
<title>retrieve_proto&#45;&gt;bzzl_read</title>
<path fill="none" stroke="#000000" d="M315.0367,-362.9064C376.567,-349.6026 465.0582,-330.4694 522.1005,-318.1359"/>
<polygon fill="#000000" stroke="#000000" points="522.988,-321.525 532.0224,-315.9906 521.5086,-314.6831 522.988,-321.525"/>
</g>
<!-- mvp_aug -->
<g id="node9" class="node">
<title>mvp_aug</title>
<ellipse fill="#000000" stroke="#000000" cx="397.229" cy="-234" rx="115.0796" ry="18"/>
<text text-anchor="middle" x="397.229" y="-230.3" font-family="Times,serif" font-size="14.00" fill="#ffffff">Swarm MVP aug 2019</text>
</g>
<!-- pushsync&#45;&gt;mvp_aug -->
<g id="edge4" class="edge">
<title>pushsync&#45;&gt;mvp_aug</title>
<path fill="none" stroke="#000000" d="M319.4004,-289.4817C332.6426,-280.0417 349.4725,-268.0442 364.0919,-257.6225"/>
<polygon fill="#000000" stroke="#000000" points="366.2892,-260.3544 372.4003,-251.6996 362.2258,-254.6544 366.2892,-260.3544"/>
</g>
<!-- bzzl_readwrite -->
<g id="node5" class="node">
<title>bzzl_readwrite</title>
<ellipse fill="none" stroke="#000000" cx="468.229" cy="-162" rx="147.5738" ry="18"/>
<text text-anchor="middle" x="468.229" y="-158.3" font-family="Times,serif" font-size="14.00" fill="#000000">bzz light node read and write</text>
</g>
<!-- mvp_q3 -->
<g id="node10" class="node">
<title>mvp_q3</title>
<ellipse fill="#000000" stroke="#000000" cx="468.229" cy="-90" rx="122.3786" ry="18"/>
<text text-anchor="middle" x="468.229" y="-86.3" font-family="Times,serif" font-size="14.00" fill="#ffffff">Adaptive Node MVP Q3</text>
</g>
<!-- bzzl_readwrite&#45;&gt;mvp_q3 -->
<g id="edge11" class="edge">
<title>bzzl_readwrite&#45;&gt;mvp_q3</title>
<path fill="none" stroke="#000000" d="M468.229,-143.8314C468.229,-136.131 468.229,-126.9743 468.229,-118.4166"/>
<polygon fill="#000000" stroke="#000000" points="471.7291,-118.4132 468.229,-108.4133 464.7291,-118.4133 471.7291,-118.4132"/>
</g>
<!-- hive_random_simple -->
<g id="node6" class="node">
<title>hive_random_simple</title>
<ellipse fill="none" stroke="#000000" cx="600.229" cy="-450" rx="205.2636" ry="18"/>
<text text-anchor="middle" x="600.229" y="-446.3" font-family="Times,serif" font-size="14.00" fill="#000000">light data connection random to one node</text>
</g>
<!-- hive_random_redundant -->
<g id="node7" class="node">
<title>hive_random_redundant</title>
<ellipse fill="none" stroke="#000000" cx="591.229" cy="-378" rx="199.5646" ry="18"/>
<text text-anchor="middle" x="591.229" y="-374.3" font-family="Times,serif" font-size="14.00" fill="#000000">light data connection to n random nodes</text>
</g>
<!-- hive_random_simple&#45;&gt;hive_random_redundant -->
<g id="edge6" class="edge">
<title>hive_random_simple&#45;&gt;hive_random_redundant</title>
<path fill="none" stroke="#000000" d="M597.9579,-431.8314C596.9953,-424.131 595.8507,-414.9743 594.781,-406.4166"/>
<polygon fill="#000000" stroke="#000000" points="598.244,-405.9019 593.5306,-396.4133 591.2981,-406.7702 598.244,-405.9019"/>
</g>
<!-- hive_random_redundant&#45;&gt;bzzl_read -->
<g id="edge7" class="edge">
<title>hive_random_redundant&#45;&gt;bzzl_read</title>
<path fill="none" stroke="#000000" d="M587.9485,-359.8314C586.5582,-352.131 584.9049,-342.9743 583.3597,-334.4166"/>
<polygon fill="#000000" stroke="#000000" points="586.7748,-333.6322 581.5536,-324.4133 579.8862,-334.8761 586.7748,-333.6322"/>
</g>
<!-- discovery_caps -->
<g id="node8" class="node">
<title>discovery_caps</title>
<ellipse fill="none" stroke="#000000" cx="1007.229" cy="-378" rx="198.4651" ry="18"/>
<text text-anchor="middle" x="1007.229" y="-374.3" font-family="Times,serif" font-size="14.00" fill="#000000">Message type to change node capability</text>
</g>
<!-- discovery_caps&#45;&gt;bzzl_read -->
<g id="edge9" class="edge">
<title>discovery_caps&#45;&gt;bzzl_read</title>
<path fill="none" stroke="#000000" d="M912.8177,-362.1547C828.8745,-348.0664 708.7282,-327.902 637.5737,-315.96"/>
<polygon fill="#000000" stroke="#000000" points="637.8825,-312.4629 627.4411,-314.2594 636.7238,-319.3664 637.8825,-312.4629"/>
</g>
<!-- mvp_aug&#45;&gt;bzzl_readwrite -->
<g id="edge10" class="edge">
<title>mvp_aug&#45;&gt;bzzl_readwrite</title>
<path fill="none" stroke="#000000" d="M414.7795,-216.2022C423.3338,-207.5275 433.7751,-196.9391 443.1518,-187.4304"/>
<polygon fill="#000000" stroke="#000000" points="445.8578,-189.671 450.3871,-180.0931 440.8735,-184.756 445.8578,-189.671"/>
</g>
<!-- mvp_q4 -->
<g id="node11" class="node">
<title>mvp_q4</title>
<ellipse fill="#000000" stroke="#000000" cx="468.229" cy="-18" rx="122.3786" ry="18"/>
<text text-anchor="middle" x="468.229" y="-14.3" font-family="Times,serif" font-size="14.00" fill="#ffffff">Adaptive Node MVP Q4</text>
</g>
<!-- mvp_q3&#45;&gt;mvp_q4 -->
<g id="edge12" class="edge">
<title>mvp_q3&#45;&gt;mvp_q4</title>
<path fill="none" stroke="#000000" d="M468.229,-71.8314C468.229,-64.131 468.229,-54.9743 468.229,-46.4166"/>
<polygon fill="#000000" stroke="#000000" points="471.7291,-46.4132 468.229,-36.4133 464.7291,-46.4133 471.7291,-46.4132"/>
</g>
<!-- bzzl_read&#45;&gt;bzzl_readwrite -->
<g id="edge8" class="edge">
<title>bzzl_read&#45;&gt;bzzl_readwrite</title>
<path fill="none" stroke="#000000" d="M568.3461,-288.0048C557.7238,-269.2831 539.8423,-239.4791 521.229,-216 513.3235,-206.0279 503.8115,-195.8702 495.041,-187.0954"/>
<polygon fill="#000000" stroke="#000000" points="497.4876,-184.5925 487.8997,-180.0843 492.5835,-189.5876 497.4876,-184.5925"/>
</g>
</g>
</svg>
