<?xml version="1.0" encoding="UTF-8" standalone="no"?>
<!DOCTYPE svg PUBLIC "-//W3C//DTD SVG 1.1//EN"
 "http://www.w3.org/Graphics/SVG/1.1/DTD/svg11.dtd">
<!-- Generated by graphviz version 2.40.1 (0)
 -->
<!-- Title: %3 Pages: 1 -->
<svg width="1545pt" height="476pt"
 viewBox="0.00 0.00 1544.82 476.00" xmlns="http://www.w3.org/2000/svg" xmlns:xlink="http://www.w3.org/1999/xlink">
<g id="graph0" class="graph" transform="scale(1 1) rotate(0) translate(4 472)">
<title>%3</title>
<polygon fill="#ffffff" stroke="transparent" points="-4,4 -4,-472 1540.8195,-472 1540.8195,4 -4,4"/>
<!-- distance_core -->
<g id="node1" class="node">
<title>distance_core</title>
<ellipse fill="#add8e6" stroke="#000000" cx="237.229" cy="-450" rx="237.4581" ry="18"/>
<text text-anchor="middle" x="237.229" y="-446.3" font-family="Times,serif" font-size="14.00" fill="#000000">Methods for calculating and comparing distance</text>
</g>
<!-- streaming_proto -->
<g id="node2" class="node">
<title>streaming_proto</title>
<ellipse fill="#add8e6" stroke="#000000" cx="345.229" cy="-378" rx="139.9756" ry="18"/>
<text text-anchor="middle" x="345.229" y="-374.3" font-family="Times,serif" font-size="14.00" fill="#000000">streaming protocol refactor</text>
</g>
<!-- distance_core&#45;&gt;streaming_proto -->
<g id="edge1" class="edge">
<title>distance_core&#45;&gt;streaming_proto</title>
<path fill="none" stroke="#000000" d="M264.2033,-432.0171C278.0959,-422.7553 295.204,-411.35 310.1143,-401.4098"/>
<polygon fill="#000000" stroke="#000000" points="312.2193,-404.213 318.5984,-395.7537 308.3364,-398.3886 312.2193,-404.213"/>
</g>
<!-- pushsync -->
<g id="node4" class="node">
<title>pushsync</title>
<ellipse fill="#add8e6" stroke="#000000" cx="129.229" cy="-378" rx="57.6901" ry="18"/>
<text text-anchor="middle" x="129.229" y="-374.3" font-family="Times,serif" font-size="14.00" fill="#000000">push sync</text>
</g>
<!-- distance_core&#45;&gt;pushsync -->
<g id="edge4" class="edge">
<title>distance_core&#45;&gt;pushsync</title>
<path fill="none" stroke="#000000" d="M210.2546,-432.0171C195.8397,-422.4072 177.963,-410.4894 162.6716,-400.2951"/>
<polygon fill="#000000" stroke="#000000" points="164.2747,-397.1574 154.0127,-394.5225 160.3917,-402.9817 164.2747,-397.1574"/>
</g>
<!-- retrieve_proto -->
<g id="node3" class="node">
<title>retrieve_proto</title>
<ellipse fill="#ffff00" stroke="#000000" cx="345.229" cy="-306" rx="128.0773" ry="18"/>
<text text-anchor="middle" x="345.229" y="-302.3" font-family="Times,serif" font-size="14.00" fill="#000000">Explicit retrieve protocol</text>
</g>
<!-- streaming_proto&#45;&gt;retrieve_proto -->
<g id="edge2" class="edge">
<title>streaming_proto&#45;&gt;retrieve_proto</title>
<path fill="none" stroke="#000000" d="M345.229,-359.8314C345.229,-352.131 345.229,-342.9743 345.229,-334.4166"/>
<polygon fill="#000000" stroke="#000000" points="348.7291,-334.4132 345.229,-324.4133 341.7291,-334.4133 348.7291,-334.4132"/>
</g>
<!-- mvp_aug -->
<g id="node10" class="node">
<title>mvp_aug</title>
<ellipse fill="#000000" stroke="#000000" cx="345.229" cy="-234" rx="115.0796" ry="18"/>
<text text-anchor="middle" x="345.229" y="-230.3" font-family="Times,serif" font-size="14.00" fill="#ffffff">Swarm MVP aug 2019</text>
</g>
<!-- retrieve_proto&#45;&gt;mvp_aug -->
<g id="edge3" class="edge">
<title>retrieve_proto&#45;&gt;mvp_aug</title>
<path fill="none" stroke="#000000" d="M345.229,-287.8314C345.229,-280.131 345.229,-270.9743 345.229,-262.4166"/>
<polygon fill="#000000" stroke="#000000" points="348.7291,-262.4132 345.229,-252.4133 341.7291,-262.4133 348.7291,-262.4132"/>
</g>
<!-- bzzl_read -->
<g id="node13" class="node">
<title>bzzl_read</title>
<ellipse fill="none" stroke="#000000" cx="691.229" cy="-234" rx="55.4913" ry="18"/>
<text text-anchor="middle" x="691.229" y="-230.3" font-family="Times,serif" font-size="14.00" fill="#000000">bzzl_read</text>
</g>
<!-- retrieve_proto&#45;&gt;bzzl_read -->
<g id="edge6" class="edge">
<title>retrieve_proto&#45;&gt;bzzl_read</title>
<path fill="none" stroke="#000000" d="M416.9204,-291.0816C481.4753,-277.6482 575.0883,-258.168 634.5481,-245.7949"/>
<polygon fill="#000000" stroke="#000000" points="635.4353,-249.1853 644.5125,-243.7213 634.0091,-242.3321 635.4353,-249.1853"/>
</g>
<!-- pushsync&#45;&gt;mvp_aug -->
<g id="edge5" class="edge">
<title>pushsync&#45;&gt;mvp_aug</title>
<path fill="none" stroke="#000000" d="M140.9371,-360.1722C154.8634,-340.1875 179.8289,-307.9734 208.229,-288 229.3655,-273.135 255.1678,-261.5903 278.6567,-253.0612"/>
<polygon fill="#000000" stroke="#000000" points="279.9386,-256.3207 288.2155,-249.7069 277.6206,-249.7156 279.9386,-256.3207"/>
</g>
<!-- bzzl_readwrite -->
<g id="node5" class="node">
<title>bzzl_readwrite</title>
<ellipse fill="none" stroke="#000000" cx="518.229" cy="-162" rx="147.5738" ry="18"/>
<text text-anchor="middle" x="518.229" y="-158.3" font-family="Times,serif" font-size="14.00" fill="#000000">bzz light node read and write</text>
</g>
<!-- mvp_q3 -->
<g id="node11" class="node">
<title>mvp_q3</title>
<ellipse fill="#000000" stroke="#000000" cx="518.229" cy="-90" rx="122.3786" ry="18"/>
<text text-anchor="middle" x="518.229" y="-86.3" font-family="Times,serif" font-size="14.00" fill="#ffffff">Adaptive Node MVP Q3</text>
</g>
<!-- bzzl_readwrite&#45;&gt;mvp_q3 -->
<g id="edge13" class="edge">
<title>bzzl_readwrite&#45;&gt;mvp_q3</title>
<path fill="none" stroke="#000000" d="M518.229,-143.8314C518.229,-136.131 518.229,-126.9743 518.229,-118.4166"/>
<polygon fill="#000000" stroke="#000000" points="521.7291,-118.4132 518.229,-108.4133 514.7291,-118.4133 521.7291,-118.4132"/>
</g>
<!-- hive_random_simple -->
<g id="node6" class="node">
<title>hive_random_simple</title>
<ellipse fill="none" stroke="#000000" cx="708.229" cy="-378" rx="205.2636" ry="18"/>
<text text-anchor="middle" x="708.229" y="-374.3" font-family="Times,serif" font-size="14.00" fill="#000000">light data connection random to one node</text>
</g>
<!-- hive_random_redundant -->
<g id="node7" class="node">
<title>hive_random_redundant</title>
<ellipse fill="none" stroke="#000000" cx="691.229" cy="-306" rx="199.5646" ry="18"/>
<text text-anchor="middle" x="691.229" y="-302.3" font-family="Times,serif" font-size="14.00" fill="#000000">light data connection to n random nodes</text>
</g>
<!-- hive_random_simple&#45;&gt;hive_random_redundant -->
<g id="edge7" class="edge">
<title>hive_random_simple&#45;&gt;hive_random_redundant</title>
<path fill="none" stroke="#000000" d="M703.9391,-359.8314C702.121,-352.131 699.959,-342.9743 697.9384,-334.4166"/>
<polygon fill="#000000" stroke="#000000" points="701.2809,-333.3414 695.5765,-324.4133 694.4682,-334.95 701.2809,-333.3414"/>
</g>
<!-- hive_random_redundant&#45;&gt;bzzl_read -->
<g id="edge8" class="edge">
<title>hive_random_redundant&#45;&gt;bzzl_read</title>
<path fill="none" stroke="#000000" d="M691.229,-287.8314C691.229,-280.131 691.229,-270.9743 691.229,-262.4166"/>
<polygon fill="#000000" stroke="#000000" points="694.7291,-262.4132 691.229,-252.4133 687.7291,-262.4133 694.7291,-262.4132"/>
</g>
<!-- discovery_caps -->
<g id="node8" class="node">
<title>discovery_caps</title>
<ellipse fill="none" stroke="#000000" cx="1107.229" cy="-306" rx="198.4651" ry="18"/>
<text text-anchor="middle" x="1107.229" y="-302.3" font-family="Times,serif" font-size="14.00" fill="#000000">Message type to change node capability</text>
</g>
<!-- discovery_caps&#45;&gt;bzzl_read -->
<g id="edge10" class="edge">
<title>discovery_caps&#45;&gt;bzzl_read</title>
<path fill="none" stroke="#000000" d="M1014.9051,-290.0209C934.1921,-276.0513 819.4051,-256.1843 750.4315,-244.2466"/>
<polygon fill="#000000" stroke="#000000" points="750.6328,-240.7295 740.1823,-242.4727 749.4389,-247.6269 750.6328,-240.7295"/>
</g>
<!-- httpcaps -->
<g id="node9" class="node">
<title>httpcaps</title>
<ellipse fill="#ffff00" stroke="#000000" cx="1430.229" cy="-306" rx="106.6812" ry="18"/>
<text text-anchor="middle" x="1430.229" y="-302.3" font-family="Times,serif" font-size="14.00" fill="#000000">http capabilities API</text>
</g>
<!-- httpcaps&#45;&gt;bzzl_read -->
<g id="edge11" class="edge">
<title>httpcaps&#45;&gt;bzzl_read</title>
<path fill="none" stroke="#000000" d="M1353.8936,-293.4054C1340.6881,-291.4413 1327.0768,-289.5518 1314.229,-288 1110.9396,-263.4456 869.0247,-245.7604 755.7502,-238.1512"/>
<polygon fill="#000000" stroke="#000000" points="755.7337,-234.6423 745.5227,-237.4681 755.2671,-241.6268 755.7337,-234.6423"/>
</g>
<!-- mvp_aug&#45;&gt;bzzl_readwrite -->
<g id="edge12" class="edge">
<title>mvp_aug&#45;&gt;bzzl_readwrite</title>
<path fill="none" stroke="#000000" d="M385.7898,-217.1192C410.1612,-206.9762 441.3869,-193.9805 467.3965,-183.1557"/>
<polygon fill="#000000" stroke="#000000" points="468.8332,-186.3489 476.7207,-179.2751 466.1435,-179.8862 468.8332,-186.3489"/>
</g>
<!-- mvp_q4 -->
<g id="node12" class="node">
<title>mvp_q4</title>
<ellipse fill="#000000" stroke="#000000" cx="518.229" cy="-18" rx="122.3786" ry="18"/>
<text text-anchor="middle" x="518.229" y="-14.3" font-family="Times,serif" font-size="14.00" fill="#ffffff">Adaptive Node MVP Q4</text>
</g>
<!-- mvp_q3&#45;&gt;mvp_q4 -->
<g id="edge14" class="edge">
<title>mvp_q3&#45;&gt;mvp_q4</title>
<path fill="none" stroke="#000000" d="M518.229,-71.8314C518.229,-64.131 518.229,-54.9743 518.229,-46.4166"/>
<polygon fill="#000000" stroke="#000000" points="521.7291,-46.4132 518.229,-36.4133 514.7291,-46.4133 521.7291,-46.4132"/>
</g>
<!-- bzzl_read&#45;&gt;bzzl_readwrite -->
<g id="edge9" class="edge">
<title>bzzl_read&#45;&gt;bzzl_readwrite</title>
<path fill="none" stroke="#000000" d="M657.0497,-219.7751C632.0125,-209.355 597.6077,-195.0362 569.3135,-183.2606"/>
<polygon fill="#000000" stroke="#000000" points="570.5519,-179.9851 559.9747,-179.374 567.8622,-186.4477 570.5519,-179.9851"/>
</g>
</g>
</svg>
