<?xml version="1.0" encoding="UTF-8" standalone="no"?>
<!DOCTYPE svg PUBLIC "-//W3C//DTD SVG 1.1//EN"
 "http://www.w3.org/Graphics/SVG/1.1/DTD/svg11.dtd">
<!-- Generated by graphviz version 2.40.1 (0)
 -->
<!-- Title: %3 Pages: 1 -->
<svg width="1445pt" height="548pt"
 viewBox="0.00 0.00 1444.82 548.00" xmlns="http://www.w3.org/2000/svg" xmlns:xlink="http://www.w3.org/1999/xlink">
<g id="graph0" class="graph" transform="scale(1 1) rotate(0) translate(4 544)">
<title>%3</title>
<polygon fill="#ffffff" stroke="transparent" points="-4,4 -4,-544 1440.8195,-544 1440.8195,4 -4,4"/>
<!-- distance_core -->
<g id="node1" class="node">
<title>distance_core</title>
<ellipse fill="#add8e6" stroke="#000000" cx="237.229" cy="-522" rx="237.4581" ry="18"/>
<text text-anchor="middle" x="237.229" y="-518.3" font-family="Times,serif" font-size="14.00" fill="#000000">Methods for calculating and comparing distance</text>
</g>
<!-- streaming_proto -->
<g id="node2" class="node">
<title>streaming_proto</title>
<ellipse fill="#add8e6" stroke="#000000" cx="237.229" cy="-450" rx="139.9756" ry="18"/>
<text text-anchor="middle" x="237.229" y="-446.3" font-family="Times,serif" font-size="14.00" fill="#000000">streaming protocol refactor</text>
</g>
<!-- distance_core&#45;&gt;streaming_proto -->
<g id="edge1" class="edge">
<title>distance_core&#45;&gt;streaming_proto</title>
<path fill="none" stroke="#000000" d="M237.229,-503.8314C237.229,-496.131 237.229,-486.9743 237.229,-478.4166"/>
<polygon fill="#000000" stroke="#000000" points="240.7291,-478.4132 237.229,-468.4133 233.7291,-478.4133 240.7291,-478.4132"/>
</g>
<!-- retrieve_proto -->
<g id="node3" class="node">
<title>retrieve_proto</title>
<ellipse fill="#ffff00" stroke="#000000" cx="245.229" cy="-378" rx="128.0773" ry="18"/>
<text text-anchor="middle" x="245.229" y="-374.3" font-family="Times,serif" font-size="14.00" fill="#000000">Explicit retrieve protocol</text>
</g>
<!-- streaming_proto&#45;&gt;retrieve_proto -->
<g id="edge2" class="edge">
<title>streaming_proto&#45;&gt;retrieve_proto</title>
<path fill="none" stroke="#000000" d="M239.2477,-431.8314C240.1033,-424.131 241.1207,-414.9743 242.0715,-406.4166"/>
<polygon fill="#000000" stroke="#000000" points="245.5572,-406.7386 243.183,-396.4133 238.6,-405.9656 245.5572,-406.7386"/>
</g>
<!-- pushsync -->
<g id="node4" class="node">
<title>pushsync</title>
<ellipse fill="#add8e6" stroke="#000000" cx="346.229" cy="-306" rx="57.6901" ry="18"/>
<text text-anchor="middle" x="346.229" y="-302.3" font-family="Times,serif" font-size="14.00" fill="#000000">push sync</text>
</g>
<!-- retrieve_proto&#45;&gt;pushsync -->
<g id="edge3" class="edge">
<title>retrieve_proto&#45;&gt;pushsync</title>
<path fill="none" stroke="#000000" d="M270.1952,-360.2022C283.547,-350.6842 300.1302,-338.8625 314.399,-328.6907"/>
<polygon fill="#000000" stroke="#000000" points="316.8235,-331.2606 322.9347,-322.6058 312.7602,-325.5606 316.8235,-331.2606"/>
</g>
<!-- bzzl_read -->
<g id="node13" class="node">
<title>bzzl_read</title>
<ellipse fill="none" stroke="#000000" cx="591.229" cy="-306" rx="55.4913" ry="18"/>
<text text-anchor="middle" x="591.229" y="-302.3" font-family="Times,serif" font-size="14.00" fill="#000000">bzzl_read</text>
</g>
<!-- retrieve_proto&#45;&gt;bzzl_read -->
<g id="edge5" class="edge">
<title>retrieve_proto&#45;&gt;bzzl_read</title>
<path fill="none" stroke="#000000" d="M316.9204,-363.0816C381.4753,-349.6482 475.0883,-330.168 534.5481,-317.7949"/>
<polygon fill="#000000" stroke="#000000" points="535.4353,-321.1853 544.5125,-315.7213 534.0091,-314.3321 535.4353,-321.1853"/>
</g>
<!-- mvp_aug -->
<g id="node10" class="node">
<title>mvp_aug</title>
<ellipse fill="#000000" stroke="#000000" cx="372.229" cy="-234" rx="115.0796" ry="18"/>
<text text-anchor="middle" x="372.229" y="-230.3" font-family="Times,serif" font-size="14.00" fill="#ffffff">Swarm MVP aug 2019</text>
</g>
<!-- pushsync&#45;&gt;mvp_aug -->
<g id="edge4" class="edge">
<title>pushsync&#45;&gt;mvp_aug</title>
<path fill="none" stroke="#000000" d="M352.7898,-287.8314C355.6317,-279.9617 359.0227,-270.5712 362.1708,-261.8533"/>
<polygon fill="#000000" stroke="#000000" points="365.4751,-263.0076 365.5797,-252.4133 358.8913,-260.63 365.4751,-263.0076"/>
</g>
<!-- bzzl_readwrite -->
<g id="node5" class="node">
<title>bzzl_readwrite</title>
<ellipse fill="none" stroke="#000000" cx="443.229" cy="-162" rx="147.5738" ry="18"/>
<text text-anchor="middle" x="443.229" y="-158.3" font-family="Times,serif" font-size="14.00" fill="#000000">bzz light node read and write</text>
</g>
<!-- mvp_q3 -->
<g id="node11" class="node">
<title>mvp_q3</title>
<ellipse fill="#000000" stroke="#000000" cx="443.229" cy="-90" rx="122.3786" ry="18"/>
<text text-anchor="middle" x="443.229" y="-86.3" font-family="Times,serif" font-size="14.00" fill="#ffffff">Adaptive Node MVP Q3</text>
</g>
<!-- bzzl_readwrite&#45;&gt;mvp_q3 -->
<g id="edge12" class="edge">
<title>bzzl_readwrite&#45;&gt;mvp_q3</title>
<path fill="none" stroke="#000000" d="M443.229,-143.8314C443.229,-136.131 443.229,-126.9743 443.229,-118.4166"/>
<polygon fill="#000000" stroke="#000000" points="446.7291,-118.4132 443.229,-108.4133 439.7291,-118.4133 446.7291,-118.4132"/>
</g>
<!-- hive_random_simple -->
<g id="node6" class="node">
<title>hive_random_simple</title>
<ellipse fill="none" stroke="#000000" cx="600.229" cy="-450" rx="205.2636" ry="18"/>
<text text-anchor="middle" x="600.229" y="-446.3" font-family="Times,serif" font-size="14.00" fill="#000000">light data connection random to one node</text>
</g>
<!-- hive_random_redundant -->
<g id="node7" class="node">
<title>hive_random_redundant</title>
<ellipse fill="none" stroke="#000000" cx="591.229" cy="-378" rx="199.5646" ry="18"/>
<text text-anchor="middle" x="591.229" y="-374.3" font-family="Times,serif" font-size="14.00" fill="#000000">light data connection to n random nodes</text>
</g>
<!-- hive_random_simple&#45;&gt;hive_random_redundant -->
<g id="edge6" class="edge">
<title>hive_random_simple&#45;&gt;hive_random_redundant</title>
<path fill="none" stroke="#000000" d="M597.9579,-431.8314C596.9953,-424.131 595.8507,-414.9743 594.781,-406.4166"/>
<polygon fill="#000000" stroke="#000000" points="598.244,-405.9019 593.5306,-396.4133 591.2981,-406.7702 598.244,-405.9019"/>
</g>
<!-- hive_random_redundant&#45;&gt;bzzl_read -->
<g id="edge7" class="edge">
<title>hive_random_redundant&#45;&gt;bzzl_read</title>
<path fill="none" stroke="#000000" d="M591.229,-359.8314C591.229,-352.131 591.229,-342.9743 591.229,-334.4166"/>
<polygon fill="#000000" stroke="#000000" points="594.7291,-334.4132 591.229,-324.4133 587.7291,-334.4133 594.7291,-334.4132"/>
</g>
<!-- discovery_caps -->
<g id="node8" class="node">
<title>discovery_caps</title>
<ellipse fill="none" stroke="#000000" cx="1007.229" cy="-378" rx="198.4651" ry="18"/>
<text text-anchor="middle" x="1007.229" y="-374.3" font-family="Times,serif" font-size="14.00" fill="#000000">Message type to change node capability</text>
</g>
<!-- discovery_caps&#45;&gt;bzzl_read -->
<g id="edge9" class="edge">
<title>discovery_caps&#45;&gt;bzzl_read</title>
<path fill="none" stroke="#000000" d="M914.9051,-362.0209C834.1921,-348.0513 719.4051,-328.1843 650.4315,-316.2466"/>
<polygon fill="#000000" stroke="#000000" points="650.6328,-312.7295 640.1823,-314.4727 649.4389,-319.6269 650.6328,-312.7295"/>
</g>
<!-- httpcaps -->
<g id="node9" class="node">
<title>httpcaps</title>
<ellipse fill="#ffff00" stroke="#000000" cx="1330.229" cy="-378" rx="106.6812" ry="18"/>
<text text-anchor="middle" x="1330.229" y="-374.3" font-family="Times,serif" font-size="14.00" fill="#000000">http capabilities API</text>
</g>
<!-- httpcaps&#45;&gt;bzzl_read -->
<g id="edge10" class="edge">
<title>httpcaps&#45;&gt;bzzl_read</title>
<path fill="none" stroke="#000000" d="M1253.8936,-365.4054C1240.6881,-363.4413 1227.0768,-361.5518 1214.229,-360 1010.9396,-335.4456 769.0247,-317.7604 655.7502,-310.1512"/>
<polygon fill="#000000" stroke="#000000" points="655.7337,-306.6423 645.5227,-309.4681 655.2671,-313.6268 655.7337,-306.6423"/>
</g>
<!-- mvp_aug&#45;&gt;bzzl_readwrite -->
<g id="edge11" class="edge">
<title>mvp_aug&#45;&gt;bzzl_readwrite</title>
<path fill="none" stroke="#000000" d="M389.7795,-216.2022C398.3338,-207.5275 408.7751,-196.9391 418.1518,-187.4304"/>
<polygon fill="#000000" stroke="#000000" points="420.8578,-189.671 425.3871,-180.0931 415.8735,-184.756 420.8578,-189.671"/>
</g>
<!-- mvp_q4 -->
<g id="node12" class="node">
<title>mvp_q4</title>
<ellipse fill="#000000" stroke="#000000" cx="443.229" cy="-18" rx="122.3786" ry="18"/>
<text text-anchor="middle" x="443.229" y="-14.3" font-family="Times,serif" font-size="14.00" fill="#ffffff">Adaptive Node MVP Q4</text>
</g>
<!-- mvp_q3&#45;&gt;mvp_q4 -->
<g id="edge13" class="edge">
<title>mvp_q3&#45;&gt;mvp_q4</title>
<path fill="none" stroke="#000000" d="M443.229,-71.8314C443.229,-64.131 443.229,-54.9743 443.229,-46.4166"/>
<polygon fill="#000000" stroke="#000000" points="446.7291,-46.4132 443.229,-36.4133 439.7291,-46.4133 446.7291,-46.4132"/>
</g>
<!-- bzzl_read&#45;&gt;bzzl_readwrite -->
<g id="edge8" class="edge">
<title>bzzl_read&#45;&gt;bzzl_readwrite</title>
<path fill="none" stroke="#000000" d="M573.6702,-288.9158C547.694,-263.6416 498.873,-216.1401 468.8855,-186.9631"/>
<polygon fill="#000000" stroke="#000000" points="471.3007,-184.4297 461.6927,-179.9647 466.4192,-189.4468 471.3007,-184.4297"/>
</g>
</g>
</svg>
