<?xml version="1.0" encoding="UTF-8" standalone="no"?>
<!DOCTYPE svg PUBLIC "-//W3C//DTD SVG 1.1//EN"
 "http://www.w3.org/Graphics/SVG/1.1/DTD/svg11.dtd">
<!-- Generated by graphviz version 2.40.1 (0)
 -->
<!-- Title: %3 Pages: 1 -->
<svg width="1393pt" height="476pt"
 viewBox="0.00 0.00 1393.41 476.00" xmlns="http://www.w3.org/2000/svg" xmlns:xlink="http://www.w3.org/1999/xlink">
<g id="graph0" class="graph" transform="scale(1 1) rotate(0) translate(4 472)">
<title>%3</title>
<polygon fill="#ffffff" stroke="transparent" points="-4,4 -4,-472 1389.4077,-472 1389.4077,4 -4,4"/>
<!-- kademlia_db -->
<g id="node1" class="node">
<title>kademlia_db</title>
<ellipse fill="none" stroke="#000000" cx="231.3795" cy="-450" rx="156.7723" ry="18"/>
<text text-anchor="middle" x="231.3795" y="-446.3" font-family="Times,serif" font-size="14.00" fill="#000000">Light node records in kademlia</text>
</g>
<!-- kademlia_access -->
<g id="node2" class="node">
<title>kademlia_access</title>
<ellipse fill="none" stroke="#000000" cx="231.3795" cy="-378" rx="163.2712" ry="18"/>
<text text-anchor="middle" x="231.3795" y="-374.3" font-family="Times,serif" font-size="14.00" fill="#000000">Kademlia iterators for light node</text>
</g>
<!-- kademlia_db&#45;&gt;kademlia_access -->
<g id="edge3" class="edge">
<title>kademlia_db&#45;&gt;kademlia_access</title>
<path fill="none" stroke="#000000" d="M231.3795,-431.8314C231.3795,-424.131 231.3795,-414.9743 231.3795,-406.4166"/>
<polygon fill="#000000" stroke="#000000" points="234.8796,-406.4132 231.3795,-396.4133 227.8796,-406.4133 234.8796,-406.4132"/>
</g>
<!-- hive -->
<g id="node4" class="node">
<title>hive</title>
<ellipse fill="none" stroke="#000000" cx="231.3795" cy="-306" rx="231.259" ry="18"/>
<text text-anchor="middle" x="231.3795" y="-302.3" font-family="Times,serif" font-size="14.00" fill="#000000">Hive suggest should traverse to neighbors only</text>
</g>
<!-- kademlia_access&#45;&gt;hive -->
<g id="edge4" class="edge">
<title>kademlia_access&#45;&gt;hive</title>
<path fill="none" stroke="#000000" d="M231.3795,-359.8314C231.3795,-352.131 231.3795,-342.9743 231.3795,-334.4166"/>
<polygon fill="#000000" stroke="#000000" points="234.8796,-334.4132 231.3795,-324.4133 227.8796,-334.4133 234.8796,-334.4132"/>
</g>
<!-- discovery_caps -->
<g id="node3" class="node">
<title>discovery_caps</title>
<ellipse fill="none" stroke="#000000" cx="679.3795" cy="-306" rx="198.4651" ry="18"/>
<text text-anchor="middle" x="679.3795" y="-302.3" font-family="Times,serif" font-size="14.00" fill="#000000">Message type to change node capability</text>
</g>
<!-- helloworld -->
<g id="node7" class="node">
<title>helloworld</title>
<ellipse fill="none" stroke="#000000" cx="679.3795" cy="-234" rx="113.18" ry="18"/>
<text text-anchor="middle" x="679.3795" y="-230.3" font-family="Times,serif" font-size="14.00" fill="#000000">Hello world on mobile</text>
</g>
<!-- discovery_caps&#45;&gt;helloworld -->
<g id="edge6" class="edge">
<title>discovery_caps&#45;&gt;helloworld</title>
<path fill="none" stroke="#000000" d="M679.3795,-287.8314C679.3795,-280.131 679.3795,-270.9743 679.3795,-262.4166"/>
<polygon fill="#000000" stroke="#000000" points="682.8796,-262.4132 679.3795,-252.4133 675.8796,-262.4133 682.8796,-262.4132"/>
</g>
<!-- hive&#45;&gt;helloworld -->
<g id="edge5" class="edge">
<title>hive&#45;&gt;helloworld</title>
<path fill="none" stroke="#000000" d="M332.1986,-289.7969C409.456,-277.3806 515.0856,-260.4044 589.4821,-248.4478"/>
<polygon fill="#000000" stroke="#000000" points="590.4484,-251.8375 599.7663,-246.795 589.3376,-244.9262 590.4484,-251.8375"/>
</g>
<!-- distance_core -->
<g id="node5" class="node">
<title>distance_core</title>
<ellipse fill="#add8e6" stroke="#000000" cx="1140.3795" cy="-378" rx="237.4581" ry="18"/>
<text text-anchor="middle" x="1140.3795" y="-374.3" font-family="Times,serif" font-size="14.00" fill="#000000">Methods for calculating and comparing distance</text>
</g>
<!-- distance -->
<g id="node6" class="node">
<title>distance</title>
<ellipse fill="none" stroke="#000000" cx="1140.3795" cy="-306" rx="245.0565" ry="18"/>
<text text-anchor="middle" x="1140.3795" y="-302.3" font-family="Times,serif" font-size="14.00" fill="#000000">Distance metric in pss forwarding for closest peer</text>
</g>
<!-- distance_core&#45;&gt;distance -->
<g id="edge1" class="edge">
<title>distance_core&#45;&gt;distance</title>
<path fill="none" stroke="#000000" d="M1140.3795,-359.8314C1140.3795,-352.131 1140.3795,-342.9743 1140.3795,-334.4166"/>
<polygon fill="#000000" stroke="#000000" points="1143.8796,-334.4132 1140.3795,-324.4133 1136.8796,-334.4133 1143.8796,-334.4132"/>
</g>
<!-- distance&#45;&gt;helloworld -->
<g id="edge2" class="edge">
<title>distance&#45;&gt;helloworld</title>
<path fill="none" stroke="#000000" d="M1036.0595,-289.7071C956.1153,-277.2212 846.9008,-260.1639 770.4574,-248.2247"/>
<polygon fill="#000000" stroke="#000000" points="770.785,-244.7336 760.3647,-246.6485 769.7048,-251.6497 770.785,-244.7336"/>
</g>
<!-- mvp_aug -->
<g id="node8" class="node">
<title>mvp_aug</title>
<ellipse fill="#000000" stroke="#000000" cx="679.3795" cy="-162" rx="115.0796" ry="18"/>
<text text-anchor="middle" x="679.3795" y="-158.3" font-family="Times,serif" font-size="14.00" fill="#ffffff">Swarm MVP aug 2019</text>
</g>
<!-- helloworld&#45;&gt;mvp_aug -->
<g id="edge10" class="edge">
<title>helloworld&#45;&gt;mvp_aug</title>
<path fill="none" stroke="#000000" d="M679.3795,-215.8314C679.3795,-208.131 679.3795,-198.9743 679.3795,-190.4166"/>
<polygon fill="#000000" stroke="#000000" points="682.8796,-190.4132 679.3795,-180.4133 675.8796,-190.4133 682.8796,-190.4132"/>
</g>
<!-- mvp_q3 -->
<g id="node9" class="node">
<title>mvp_q3</title>
<ellipse fill="#000000" stroke="#000000" cx="880.3795" cy="-90" rx="122.3786" ry="18"/>
<text text-anchor="middle" x="880.3795" y="-86.3" font-family="Times,serif" font-size="14.00" fill="#ffffff">Adaptive Node MVP Q3</text>
</g>
<!-- mvp_aug&#45;&gt;mvp_q3 -->
<g id="edge11" class="edge">
<title>mvp_aug&#45;&gt;mvp_q3</title>
<path fill="none" stroke="#000000" d="M725.4929,-145.4817C754.9032,-134.9467 793.2056,-121.2264 824.3624,-110.0658"/>
<polygon fill="#000000" stroke="#000000" points="825.5506,-113.358 833.7845,-106.6907 823.19,-106.7681 825.5506,-113.358"/>
</g>
<!-- mvp_q4 -->
<g id="node10" class="node">
<title>mvp_q4</title>
<ellipse fill="#000000" stroke="#000000" cx="1015.3795" cy="-18" rx="122.3786" ry="18"/>
<text text-anchor="middle" x="1015.3795" y="-14.3" font-family="Times,serif" font-size="14.00" fill="#ffffff">Adaptive Node MVP Q4</text>
</g>
<!-- mvp_q3&#45;&gt;mvp_q4 -->
<g id="edge12" class="edge">
<title>mvp_q3&#45;&gt;mvp_q4</title>
<path fill="none" stroke="#000000" d="M913.0592,-72.5708C931.2479,-62.8702 954.0817,-50.6921 973.5617,-40.3028"/>
<polygon fill="#000000" stroke="#000000" points="975.3563,-43.3124 982.5328,-35.5182 972.0622,-37.1359 975.3563,-43.3124"/>
</g>
<!-- bitwise -->
<g id="node11" class="node">
<title>bitwise</title>
<ellipse fill="none" stroke="#000000" cx="913.3795" cy="-162" rx="100.9827" ry="18"/>
<text text-anchor="middle" x="913.3795" y="-158.3" font-family="Times,serif" font-size="14.00" fill="#000000">Bitwise pss routing</text>
</g>
<!-- bitwise&#45;&gt;mvp_q3 -->
<g id="edge7" class="edge">
<title>bitwise&#45;&gt;mvp_q3</title>
<path fill="none" stroke="#000000" d="M905.0522,-143.8314C901.4065,-135.8771 897.0486,-126.369 893.0168,-117.5723"/>
<polygon fill="#000000" stroke="#000000" points="896.1672,-116.0456 888.8189,-108.4133 889.8038,-118.9622 896.1672,-116.0456"/>
</g>
<!-- spam -->
<g id="node12" class="node">
<title>spam</title>
<ellipse fill="#00ff00" stroke="#000000" cx="1151.3795" cy="-162" rx="87.1846" ry="18"/>
<text text-anchor="middle" x="1151.3795" y="-158.3" font-family="Times,serif" font-size="14.00" fill="#000000">spam protection</text>
</g>
<!-- minspam -->
<g id="node13" class="node">
<title>minspam</title>
<ellipse fill="none" stroke="#000000" cx="1151.3795" cy="-90" rx="130.777" ry="18"/>
<text text-anchor="middle" x="1151.3795" y="-86.3" font-family="Times,serif" font-size="14.00" fill="#000000">pss spam protection MVP</text>
</g>
<!-- spam&#45;&gt;minspam -->
<g id="edge8" class="edge">
<title>spam&#45;&gt;minspam</title>
<path fill="none" stroke="#000000" d="M1151.3795,-143.8314C1151.3795,-136.131 1151.3795,-126.9743 1151.3795,-118.4166"/>
<polygon fill="#000000" stroke="#000000" points="1154.8796,-118.4132 1151.3795,-108.4133 1147.8796,-118.4133 1154.8796,-118.4132"/>
</g>
<!-- minspam&#45;&gt;mvp_q4 -->
<g id="edge9" class="edge">
<title>minspam&#45;&gt;mvp_q4</title>
<path fill="none" stroke="#000000" d="M1118.4577,-72.5708C1100.1342,-62.8702 1077.1313,-50.6921 1057.507,-40.3028"/>
<polygon fill="#000000" stroke="#000000" points="1058.945,-37.1039 1048.4695,-35.5182 1055.6697,-43.2904 1058.945,-37.1039"/>
</g>
</g>
</svg>
