<?xml version="1.0" encoding="UTF-8" standalone="no"?>
<!DOCTYPE svg PUBLIC "-//W3C//DTD SVG 1.1//EN"
 "http://www.w3.org/Graphics/SVG/1.1/DTD/svg11.dtd">
<!-- Generated by graphviz version 2.40.1 (0)
 -->
<!-- Title: %3 Pages: 1 -->
<svg width="1769pt" height="404pt"
 viewBox="0.00 0.00 1768.73 404.00" xmlns="http://www.w3.org/2000/svg" xmlns:xlink="http://www.w3.org/1999/xlink">
<g id="graph0" class="graph" transform="scale(1 1) rotate(0) translate(4 400)">
<title>%3</title>
<polygon fill="#ffffff" stroke="transparent" points="-4,4 -4,-400 1764.7284,-400 1764.7284,4 -4,4"/>
<!-- PSS -->
<g id="node1" class="node">
<title>PSS</title>
<ellipse fill="#000000" stroke="#000000" cx="313.9418" cy="-90" rx="53.8905" ry="18"/>
<text text-anchor="middle" x="313.9418" y="-86.3" font-family="Times,serif" font-size="14.00" fill="#ffffff">PSS spec</text>
</g>
<!-- pssclient -->
<g id="node16" class="node">
<title>pssclient</title>
<ellipse fill="#d3d3d3" stroke="#000000" cx="313.9418" cy="-18" rx="102.0819" ry="18"/>
<text text-anchor="middle" x="313.9418" y="-14.3" font-family="Times,serif" font-size="14.00" fill="#000000">PSS adaptive client</text>
</g>
<!-- PSS&#45;&gt;pssclient -->
<g id="edge29" class="edge">
<title>PSS&#45;&gt;pssclient</title>
<path fill="none" stroke="#000000" d="M313.9418,-71.8314C313.9418,-64.131 313.9418,-54.9743 313.9418,-46.4166"/>
<polygon fill="#000000" stroke="#000000" points="317.4419,-46.4132 313.9418,-36.4133 310.4419,-46.4133 317.4419,-46.4132"/>
</g>
<!-- BZZ -->
<g id="node2" class="node">
<title>BZZ</title>
<ellipse fill="#000000" stroke="#000000" cx="1314.9418" cy="-90" rx="54.6905" ry="18"/>
<text text-anchor="middle" x="1314.9418" y="-86.3" font-family="Times,serif" font-size="14.00" fill="#ffffff">BZZ spec</text>
</g>
<!-- bzzclientread -->
<g id="node13" class="node">
<title>bzzclientread</title>
<ellipse fill="none" stroke="#000000" cx="1314.9418" cy="-18" rx="126.1777" ry="18"/>
<text text-anchor="middle" x="1314.9418" y="-14.3" font-family="Times,serif" font-size="14.00" fill="#000000">BZZ adaptive client read</text>
</g>
<!-- BZZ&#45;&gt;bzzclientread -->
<g id="edge26" class="edge">
<title>BZZ&#45;&gt;bzzclientread</title>
<path fill="none" stroke="#000000" d="M1314.9418,-71.8314C1314.9418,-64.131 1314.9418,-54.9743 1314.9418,-46.4166"/>
<polygon fill="#000000" stroke="#000000" points="1318.4419,-46.4132 1314.9418,-36.4133 1311.4419,-46.4133 1318.4419,-46.4132"/>
</g>
<!-- bzzclientrw -->
<g id="node14" class="node">
<title>bzzclientrw</title>
<ellipse fill="none" stroke="#000000" cx="1609.9418" cy="-18" rx="150.5735" ry="18"/>
<text text-anchor="middle" x="1609.9418" y="-14.3" font-family="Times,serif" font-size="14.00" fill="#000000">BZZ adaptive client readwrite</text>
</g>
<!-- BZZ&#45;&gt;bzzclientrw -->
<g id="edge27" class="edge">
<title>BZZ&#45;&gt;bzzclientrw</title>
<path fill="none" stroke="#000000" d="M1359.1062,-79.2209C1405.2013,-67.9705 1478.3545,-50.1162 1533.7927,-36.5855"/>
<polygon fill="#000000" stroke="#000000" points="1534.6922,-39.9688 1543.5771,-34.1975 1533.0324,-33.1684 1534.6922,-39.9688"/>
</g>
<!-- bzzserver -->
<g id="node15" class="node">
<title>bzzserver</title>
<ellipse fill="none" stroke="#000000" cx="1019.9418" cy="-18" rx="150.5735" ry="18"/>
<text text-anchor="middle" x="1019.9418" y="-14.3" font-family="Times,serif" font-size="14.00" fill="#000000">BZZ adaptive client readwrite</text>
</g>
<!-- BZZ&#45;&gt;bzzserver -->
<g id="edge28" class="edge">
<title>BZZ&#45;&gt;bzzserver</title>
<path fill="none" stroke="#000000" d="M1270.7773,-79.2209C1224.6822,-67.9705 1151.529,-50.1162 1096.0908,-36.5855"/>
<polygon fill="#000000" stroke="#000000" points="1096.8511,-33.1684 1086.3064,-34.1975 1095.1913,-39.9688 1096.8511,-33.1684"/>
</g>
<!-- lightextension -->
<g id="node3" class="node">
<title>lightextension</title>
<ellipse fill="#ffff00" stroke="#000000" cx="1162.9418" cy="-162" rx="171.6696" ry="18"/>
<text text-anchor="middle" x="1162.9418" y="-158.3" font-family="Times,serif" font-size="14.00" fill="#000000">direct retrieve and store protocol?</text>
</g>
<!-- lightextension&#45;&gt;BZZ -->
<g id="edge20" class="edge">
<title>lightextension&#45;&gt;BZZ</title>
<path fill="none" stroke="#000000" d="M1200.1251,-144.3868C1222.5266,-133.7756 1251.0786,-120.251 1274.1057,-109.3434"/>
<polygon fill="#000000" stroke="#000000" points="1275.7394,-112.4424 1283.2785,-104.9984 1272.7428,-106.1162 1275.7394,-112.4424"/>
</g>
<!-- discovery -->
<g id="node4" class="node">
<title>discovery</title>
<ellipse fill="none" stroke="#000000" cx="876.9418" cy="-162" rx="96.6831" ry="18"/>
<text text-anchor="middle" x="876.9418" y="-158.3" font-family="Times,serif" font-size="14.00" fill="#000000">discovery protocol</text>
</g>
<!-- discovery&#45;&gt;BZZ -->
<g id="edge12" class="edge">
<title>discovery&#45;&gt;BZZ</title>
<path fill="none" stroke="#000000" d="M948.0932,-149.7134C959.4131,-147.7843 970.9959,-145.8257 981.9418,-144 1077.6902,-128.0299 1189.0396,-110.104 1255.6547,-99.4488"/>
<polygon fill="#000000" stroke="#000000" points="1256.2298,-102.9014 1265.5518,-97.8666 1255.1247,-95.9892 1256.2298,-102.9014"/>
</g>
<!-- handshake -->
<g id="node5" class="node">
<title>handshake</title>
<ellipse fill="none" stroke="#000000" cx="544.9418" cy="-234" rx="102.8821" ry="18"/>
<text text-anchor="middle" x="544.9418" y="-230.3" font-family="Times,serif" font-size="14.00" fill="#000000">handshake protocol</text>
</g>
<!-- handshake&#45;&gt;BZZ -->
<g id="edge9" class="edge">
<title>handshake&#45;&gt;BZZ</title>
<path fill="none" stroke="#000000" d="M539.9999,-216.0148C535.5939,-195.5747 532.3762,-162.6399 550.9418,-144 575.4929,-119.3505 1070.6375,-98.9096 1250.4261,-92.2736"/>
<polygon fill="#000000" stroke="#000000" points="1250.6694,-95.7671 1260.5343,-91.9028 1250.4127,-88.7718 1250.6694,-95.7671"/>
</g>
<!-- pssprotocol -->
<g id="node6" class="node">
<title>pssprotocol</title>
<ellipse fill="none" stroke="#000000" cx="129.9418" cy="-162" rx="71.4873" ry="18"/>
<text text-anchor="middle" x="129.9418" y="-158.3" font-family="Times,serif" font-size="14.00" fill="#000000">PSS protocol</text>
</g>
<!-- pssprotocol&#45;&gt;PSS -->
<g id="edge5" class="edge">
<title>pssprotocol&#45;&gt;PSS</title>
<path fill="none" stroke="#000000" d="M168.9634,-146.7307C198.2818,-135.2583 238.4889,-119.525 269.125,-107.537"/>
<polygon fill="#000000" stroke="#000000" points="270.6726,-110.6899 278.7096,-103.7865 268.1217,-104.1712 270.6726,-110.6899"/>
</g>
<!-- overlay -->
<g id="node7" class="node">
<title>overlay</title>
<ellipse fill="none" stroke="#000000" cx="631.9418" cy="-306" rx="118.0794" ry="18"/>
<text text-anchor="middle" x="631.9418" y="-302.3" font-family="Times,serif" font-size="14.00" fill="#000000">swarm overlay address</text>
</g>
<!-- overlay&#45;&gt;handshake -->
<g id="edge2" class="edge">
<title>overlay&#45;&gt;handshake</title>
<path fill="none" stroke="#000000" d="M610.4361,-288.2022C599.561,-279.2021 586.197,-268.1423 574.3831,-258.3652"/>
<polygon fill="#000000" stroke="#000000" points="576.437,-255.5219 566.5015,-251.8425 571.974,-260.9146 576.437,-255.5219"/>
</g>
<!-- kademlia -->
<g id="node18" class="node">
<title>kademlia</title>
<ellipse fill="none" stroke="#000000" cx="718.9418" cy="-234" rx="53.0913" ry="18"/>
<text text-anchor="middle" x="718.9418" y="-230.3" font-family="Times,serif" font-size="14.00" fill="#000000">kademlia</text>
</g>
<!-- overlay&#45;&gt;kademlia -->
<g id="edge1" class="edge">
<title>overlay&#45;&gt;kademlia</title>
<path fill="none" stroke="#000000" d="M653.4474,-288.2022C664.6496,-278.9315 678.4926,-267.4751 690.562,-257.4867"/>
<polygon fill="#000000" stroke="#000000" points="693.1077,-259.9231 698.5802,-250.851 688.6447,-254.5303 693.1077,-259.9231"/>
</g>
<!-- literaladdress -->
<g id="node8" class="node">
<title>literaladdress</title>
<ellipse fill="none" stroke="#000000" cx="92.9418" cy="-234" rx="92.8835" ry="18"/>
<text text-anchor="middle" x="92.9418" y="-230.3" font-family="Times,serif" font-size="14.00" fill="#000000">literal addressing</text>
</g>
<!-- psshandler -->
<g id="node10" class="node">
<title>psshandler</title>
<ellipse fill="none" stroke="#000000" cx="313.9418" cy="-162" rx="94.7833" ry="18"/>
<text text-anchor="middle" x="313.9418" y="-158.3" font-family="Times,serif" font-size="14.00" fill="#000000">message handling</text>
</g>
<!-- literaladdress&#45;&gt;psshandler -->
<g id="edge6" class="edge">
<title>literaladdress&#45;&gt;psshandler</title>
<path fill="none" stroke="#000000" d="M140.6234,-218.4657C174.4912,-207.4318 220.1485,-192.5571 256.0998,-180.8444"/>
<polygon fill="#000000" stroke="#000000" points="257.5407,-184.0561 265.9646,-177.6306 255.3723,-177.4004 257.5407,-184.0561"/>
</g>
<!-- proxaddress -->
<g id="node9" class="node">
<title>proxaddress</title>
<ellipse fill="none" stroke="#000000" cx="313.9418" cy="-234" rx="109.6807" ry="18"/>
<text text-anchor="middle" x="313.9418" y="-230.3" font-family="Times,serif" font-size="14.00" fill="#000000">proximity addressing</text>
</g>
<!-- proxaddress&#45;&gt;psshandler -->
<g id="edge7" class="edge">
<title>proxaddress&#45;&gt;psshandler</title>
<path fill="none" stroke="#000000" d="M313.9418,-215.8314C313.9418,-208.131 313.9418,-198.9743 313.9418,-190.4166"/>
<polygon fill="#000000" stroke="#000000" points="317.4419,-190.4132 313.9418,-180.4133 310.4419,-190.4133 317.4419,-190.4132"/>
</g>
<!-- psshandler&#45;&gt;PSS -->
<g id="edge8" class="edge">
<title>psshandler&#45;&gt;PSS</title>
<path fill="none" stroke="#000000" d="M313.9418,-143.8314C313.9418,-136.131 313.9418,-126.9743 313.9418,-118.4166"/>
<polygon fill="#000000" stroke="#000000" points="317.4419,-118.4132 313.9418,-108.4133 310.4419,-118.4133 317.4419,-118.4132"/>
</g>
<!-- stream -->
<g id="node11" class="node">
<title>stream</title>
<ellipse fill="none" stroke="#000000" cx="1476.9418" cy="-234" rx="85.2851" ry="18"/>
<text text-anchor="middle" x="1476.9418" y="-230.3" font-family="Times,serif" font-size="14.00" fill="#000000">stream protocol</text>
</g>
<!-- stream&#45;&gt;BZZ -->
<g id="edge21" class="edge">
<title>stream&#45;&gt;BZZ</title>
<path fill="none" stroke="#000000" d="M1534.0192,-220.6411C1555.3501,-212.579 1577.4185,-199.8644 1589.9418,-180 1598.4746,-166.4652 1600.1072,-156.3557 1589.9418,-144 1563.7394,-112.1521 1451.6457,-98.804 1378.9076,-93.4202"/>
<polygon fill="#000000" stroke="#000000" points="1379.1406,-89.928 1368.9182,-92.7123 1378.6457,-96.9105 1379.1406,-89.928"/>
</g>
<!-- stream&#45;&gt;lightextension -->
<g id="edge19" class="edge">
<title>stream&#45;&gt;lightextension</title>
<path fill="none" stroke="#000000" d="M1418.9834,-220.7102C1369.938,-209.4641 1299.0975,-193.2204 1244.3577,-180.6686"/>
<polygon fill="#000000" stroke="#000000" points="1244.8621,-177.1935 1234.3328,-178.3699 1243.2976,-184.0165 1244.8621,-177.1935"/>
</g>
<!-- lightdiscoverystrategy -->
<g id="node12" class="node">
<title>lightdiscoverystrategy</title>
<ellipse fill="none" stroke="#000000" cx="940.9418" cy="-234" rx="150.5735" ry="18"/>
<text text-anchor="middle" x="940.9418" y="-230.3" font-family="Times,serif" font-size="14.00" fill="#000000">lightnode connection strategy</text>
</g>
<!-- lightdiscoverystrategy&#45;&gt;discovery -->
<g id="edge10" class="edge">
<title>lightdiscoverystrategy&#45;&gt;discovery</title>
<path fill="none" stroke="#000000" d="M924.7919,-215.8314C917.1544,-207.2392 907.9053,-196.834 899.5825,-187.4708"/>
<polygon fill="#000000" stroke="#000000" points="902.1244,-185.0622 892.8648,-179.9134 896.8925,-189.7128 902.1244,-185.0622"/>
</g>
<!-- httpcap -->
<g id="node17" class="node">
<title>httpcap</title>
<ellipse fill="#ffff00" stroke="#000000" cx="1466.9418" cy="-162" rx="114.2798" ry="18"/>
<text text-anchor="middle" x="1466.9418" y="-158.3" font-family="Times,serif" font-size="14.00" fill="#000000">HTTP capabilities API</text>
</g>
<!-- httpcap&#45;&gt;BZZ -->
<g id="edge22" class="edge">
<title>httpcap&#45;&gt;BZZ</title>
<path fill="none" stroke="#000000" d="M1430.534,-144.7542C1407.9166,-134.0407 1378.8087,-120.2528 1355.461,-109.1933"/>
<polygon fill="#000000" stroke="#000000" points="1356.7064,-105.9105 1346.1707,-104.7927 1353.7098,-112.2367 1356.7064,-105.9105"/>
</g>
<!-- kademlia&#45;&gt;discovery -->
<g id="edge11" class="edge">
<title>kademlia&#45;&gt;discovery</title>
<path fill="none" stroke="#000000" d="M750.9154,-219.4297C773.9642,-208.9265 805.4099,-194.5968 831.1238,-182.8791"/>
<polygon fill="#000000" stroke="#000000" points="832.6634,-186.0238 840.3118,-178.6921 829.7607,-179.654 832.6634,-186.0238"/>
</g>
<!-- forwarding -->
<g id="node19" class="node">
<title>forwarding</title>
<ellipse fill="none" stroke="#000000" cx="621.9418" cy="-162" rx="61.99" ry="18"/>
<text text-anchor="middle" x="621.9418" y="-158.3" font-family="Times,serif" font-size="14.00" fill="#000000">forwarding</text>
</g>
<!-- kademlia&#45;&gt;forwarding -->
<g id="edge3" class="edge">
<title>kademlia&#45;&gt;forwarding</title>
<path fill="none" stroke="#000000" d="M696.4442,-217.3008C683.4381,-207.6468 666.8901,-195.3637 652.6948,-184.827"/>
<polygon fill="#000000" stroke="#000000" points="654.7691,-182.0079 644.6533,-178.8581 650.597,-187.6287 654.7691,-182.0079"/>
</g>
<!-- hive -->
<g id="node20" class="node">
<title>hive</title>
<ellipse fill="none" stroke="#000000" cx="731.9418" cy="-162" rx="30.5947" ry="18"/>
<text text-anchor="middle" x="731.9418" y="-158.3" font-family="Times,serif" font-size="14.00" fill="#000000">hive</text>
</g>
<!-- kademlia&#45;&gt;hive -->
<g id="edge13" class="edge">
<title>kademlia&#45;&gt;hive</title>
<path fill="none" stroke="#000000" d="M722.2222,-215.8314C723.6339,-208.0125 725.3168,-198.6923 726.8822,-190.0221"/>
<polygon fill="#000000" stroke="#000000" points="730.3748,-190.3762 728.7074,-179.9134 723.4862,-189.1324 730.3748,-190.3762"/>
</g>
<!-- forwarding&#45;&gt;PSS -->
<g id="edge4" class="edge">
<title>forwarding&#45;&gt;PSS</title>
<path fill="none" stroke="#000000" d="M573.4779,-150.6708C517.7032,-137.6326 426.3427,-116.2755 368.2243,-102.6894"/>
<polygon fill="#000000" stroke="#000000" points="368.6644,-99.198 358.1302,-100.3298 367.0709,-106.0142 368.6644,-99.198"/>
</g>
<!-- hive&#45;&gt;BZZ -->
<g id="edge14" class="edge">
<title>hive&#45;&gt;BZZ</title>
<path fill="none" stroke="#000000" d="M754.9757,-149.8395C760.1119,-147.5642 765.617,-145.4489 770.9418,-144 859.9051,-119.7925 1127.1699,-101.2257 1250.855,-93.6809"/>
<polygon fill="#000000" stroke="#000000" points="1251.1683,-97.1684 1260.9387,-93.0709 1250.7455,-90.1812 1251.1683,-97.1684"/>
</g>
<!-- bmthasher -->
<g id="node21" class="node">
<title>bmthasher</title>
<ellipse fill="none" stroke="#000000" cx="1612.9418" cy="-378" rx="61.1893" ry="18"/>
<text text-anchor="middle" x="1612.9418" y="-374.3" font-family="Times,serif" font-size="14.00" fill="#000000">bmthasher</text>
</g>
<!-- filehasher -->
<g id="node22" class="node">
<title>filehasher</title>
<ellipse fill="none" stroke="#000000" cx="1521.9418" cy="-306" rx="57.3905" ry="18"/>
<text text-anchor="middle" x="1521.9418" y="-302.3" font-family="Times,serif" font-size="14.00" fill="#000000">filehasher</text>
</g>
<!-- bmthasher&#45;&gt;filehasher -->
<g id="edge15" class="edge">
<title>bmthasher&#45;&gt;filehasher</title>
<path fill="none" stroke="#000000" d="M1591.376,-360.937C1579.4765,-351.522 1564.5236,-339.6912 1551.5447,-329.4221"/>
<polygon fill="#000000" stroke="#000000" points="1553.3666,-326.4006 1543.3527,-322.9405 1549.0232,-331.8902 1553.3666,-326.4006"/>
</g>
<!-- feeds -->
<g id="node25" class="node">
<title>feeds</title>
<ellipse fill="none" stroke="#000000" cx="1704.9418" cy="-306" rx="35.9954" ry="18"/>
<text text-anchor="middle" x="1704.9418" y="-302.3" font-family="Times,serif" font-size="14.00" fill="#000000">feeds</text>
</g>
<!-- bmthasher&#45;&gt;feeds -->
<g id="edge24" class="edge">
<title>bmthasher&#45;&gt;feeds</title>
<path fill="none" stroke="#000000" d="M1634.7445,-360.937C1647.5054,-350.9502 1663.7395,-338.2453 1677.3809,-327.5693"/>
<polygon fill="#000000" stroke="#000000" points="1679.7674,-330.1461 1685.4854,-321.2267 1675.4532,-324.6336 1679.7674,-330.1461"/>
</g>
<!-- filehasher&#45;&gt;stream -->
<g id="edge18" class="edge">
<title>filehasher&#45;&gt;stream</title>
<path fill="none" stroke="#000000" d="M1510.8182,-288.2022C1505.6648,-279.9569 1499.431,-269.9828 1493.7231,-260.8501"/>
<polygon fill="#000000" stroke="#000000" points="1496.518,-258.7181 1488.25,-252.0931 1490.582,-262.4281 1496.518,-258.7181"/>
</g>
<!-- storage -->
<g id="node24" class="node">
<title>storage</title>
<ellipse fill="none" stroke="#000000" cx="1625.9418" cy="-234" rx="46.2923" ry="18"/>
<text text-anchor="middle" x="1625.9418" y="-230.3" font-family="Times,serif" font-size="14.00" fill="#000000">storage</text>
</g>
<!-- filehasher&#45;&gt;storage -->
<g id="edge16" class="edge">
<title>filehasher&#45;&gt;storage</title>
<path fill="none" stroke="#000000" d="M1545.8015,-289.4817C1560.374,-279.393 1579.166,-266.3832 1594.8896,-255.4976"/>
<polygon fill="#000000" stroke="#000000" points="1597.0334,-258.2704 1603.2631,-249.7006 1593.0489,-252.5151 1597.0334,-258.2704"/>
</g>
<!-- db -->
<g id="node23" class="node">
<title>db</title>
<ellipse fill="none" stroke="#000000" cx="1623.9418" cy="-306" rx="27" ry="18"/>
<text text-anchor="middle" x="1623.9418" y="-302.3" font-family="Times,serif" font-size="14.00" fill="#000000">db</text>
</g>
<!-- db&#45;&gt;storage -->
<g id="edge17" class="edge">
<title>db&#45;&gt;storage</title>
<path fill="none" stroke="#000000" d="M1624.4464,-287.8314C1624.6603,-280.131 1624.9147,-270.9743 1625.1524,-262.4166"/>
<polygon fill="#000000" stroke="#000000" points="1628.6512,-262.5066 1625.4303,-252.4133 1621.6539,-262.3122 1628.6512,-262.5066"/>
</g>
<!-- storage&#45;&gt;BZZ -->
<g id="edge23" class="edge">
<title>storage&#45;&gt;BZZ</title>
<path fill="none" stroke="#000000" d="M1627.5725,-215.681C1628.3034,-195.2456 1626.0355,-162.6187 1606.9418,-144 1575.3468,-113.1911 1455.4228,-99.439 1379.4381,-93.7087"/>
<polygon fill="#000000" stroke="#000000" points="1379.2489,-90.1858 1369.0217,-92.9524 1378.7419,-97.1674 1379.2489,-90.1858"/>
</g>
<!-- feeds&#45;&gt;BZZ -->
<g id="edge25" class="edge">
<title>feeds&#45;&gt;BZZ</title>
<path fill="none" stroke="#000000" d="M1702.7665,-287.9815C1697.4433,-252.8808 1680.2063,-175.9841 1628.9418,-144 1588.1271,-118.5356 1457.815,-102.7455 1378.4668,-95.239"/>
<polygon fill="#000000" stroke="#000000" points="1378.3805,-91.716 1368.1,-94.2779 1377.7342,-98.6862 1378.3805,-91.716"/>
</g>
</g>
</svg>
