<?xml version="1.0" encoding="UTF-8" standalone="no"?>
<!DOCTYPE svg PUBLIC "-//W3C//DTD SVG 1.1//EN"
 "http://www.w3.org/Graphics/SVG/1.1/DTD/svg11.dtd">
<!-- Generated by graphviz version 2.40.1 (0)
 -->
<!-- Title: %3 Pages: 1 -->
<svg width="1648pt" height="404pt"
 viewBox="0.00 0.00 1648.28 404.00" xmlns="http://www.w3.org/2000/svg" xmlns:xlink="http://www.w3.org/1999/xlink">
<g id="graph0" class="graph" transform="scale(1 1) rotate(0) translate(4 400)">
<title>%3</title>
<polygon fill="#ffffff" stroke="transparent" points="-4,4 -4,-400 1644.2803,-400 1644.2803,4 -4,4"/>
<!-- PSS -->
<g id="node1" class="node">
<title>PSS</title>
<ellipse fill="#add8e6" stroke="#000000" cx="255.4937" cy="-90" rx="53.8905" ry="18"/>
<text text-anchor="middle" x="255.4937" y="-86.3" font-family="Times,serif" font-size="14.00" fill="#000000">PSS spec</text>
</g>
<!-- pssclient -->
<g id="node16" class="node">
<title>pssclient</title>
<ellipse fill="#add8e6" stroke="#000000" cx="255.4937" cy="-18" rx="102.0819" ry="18"/>
<text text-anchor="middle" x="255.4937" y="-14.3" font-family="Times,serif" font-size="14.00" fill="#000000">PSS adaptive client</text>
</g>
<!-- PSS&#45;&gt;pssclient -->
<g id="edge28" class="edge">
<title>PSS&#45;&gt;pssclient</title>
<path fill="none" stroke="#000000" d="M255.4937,-71.8314C255.4937,-64.131 255.4937,-54.9743 255.4937,-46.4166"/>
<polygon fill="#000000" stroke="#000000" points="258.9938,-46.4132 255.4937,-36.4133 251.9938,-46.4133 258.9938,-46.4132"/>
</g>
<!-- BZZ -->
<g id="node2" class="node">
<title>BZZ</title>
<ellipse fill="#ffc0cb" stroke="#000000" cx="1194.4937" cy="-90" rx="54.6905" ry="18"/>
<text text-anchor="middle" x="1194.4937" y="-86.3" font-family="Times,serif" font-size="14.00" fill="#000000">BZZ spec</text>
</g>
<!-- bzzclientread -->
<g id="node13" class="node">
<title>bzzclientread</title>
<ellipse fill="#ffc0cb" stroke="#000000" cx="1194.4937" cy="-18" rx="126.1777" ry="18"/>
<text text-anchor="middle" x="1194.4937" y="-14.3" font-family="Times,serif" font-size="14.00" fill="#000000">BZZ adaptive client read</text>
</g>
<!-- BZZ&#45;&gt;bzzclientread -->
<g id="edge25" class="edge">
<title>BZZ&#45;&gt;bzzclientread</title>
<path fill="none" stroke="#000000" d="M1194.4937,-71.8314C1194.4937,-64.131 1194.4937,-54.9743 1194.4937,-46.4166"/>
<polygon fill="#000000" stroke="#000000" points="1197.9938,-46.4132 1194.4937,-36.4133 1190.9938,-46.4133 1197.9938,-46.4132"/>
</g>
<!-- bzzclientrw -->
<g id="node14" class="node">
<title>bzzclientrw</title>
<ellipse fill="#ffc0cb" stroke="#000000" cx="1489.4937" cy="-18" rx="150.5735" ry="18"/>
<text text-anchor="middle" x="1489.4937" y="-14.3" font-family="Times,serif" font-size="14.00" fill="#000000">BZZ adaptive client readwrite</text>
</g>
<!-- BZZ&#45;&gt;bzzclientrw -->
<g id="edge26" class="edge">
<title>BZZ&#45;&gt;bzzclientrw</title>
<path fill="none" stroke="#000000" d="M1238.6581,-79.2209C1284.7532,-67.9705 1357.9064,-50.1162 1413.3446,-36.5855"/>
<polygon fill="#000000" stroke="#000000" points="1414.2441,-39.9688 1423.1291,-34.1975 1412.5843,-33.1684 1414.2441,-39.9688"/>
</g>
<!-- bzzserver -->
<g id="node15" class="node">
<title>bzzserver</title>
<ellipse fill="#ffc0cb" stroke="#000000" cx="899.4937" cy="-18" rx="150.5735" ry="18"/>
<text text-anchor="middle" x="899.4937" y="-14.3" font-family="Times,serif" font-size="14.00" fill="#000000">BZZ adaptive client readwrite</text>
</g>
<!-- BZZ&#45;&gt;bzzserver -->
<g id="edge27" class="edge">
<title>BZZ&#45;&gt;bzzserver</title>
<path fill="none" stroke="#000000" d="M1150.3292,-79.2209C1104.2341,-67.9705 1031.0809,-50.1162 975.6427,-36.5855"/>
<polygon fill="#000000" stroke="#000000" points="976.403,-33.1684 965.8583,-34.1975 974.7432,-39.9688 976.403,-33.1684"/>
</g>
<!-- lightextension -->
<g id="node3" class="node">
<title>lightextension</title>
<ellipse fill="#ffff00" stroke="#000000" cx="1194.4937" cy="-162" rx="171.6696" ry="18"/>
<text text-anchor="middle" x="1194.4937" y="-158.3" font-family="Times,serif" font-size="14.00" fill="#000000">direct retrieve and store protocol?</text>
</g>
<!-- lightextension&#45;&gt;BZZ -->
<g id="edge20" class="edge">
<title>lightextension&#45;&gt;BZZ</title>
<path fill="none" stroke="#000000" d="M1194.4937,-143.8314C1194.4937,-136.131 1194.4937,-126.9743 1194.4937,-118.4166"/>
<polygon fill="#000000" stroke="#000000" points="1197.9938,-118.4132 1194.4937,-108.4133 1190.9938,-118.4133 1197.9938,-118.4132"/>
</g>
<!-- discovery -->
<g id="node4" class="node">
<title>discovery</title>
<ellipse fill="none" stroke="#000000" cx="908.4937" cy="-162" rx="96.6831" ry="18"/>
<text text-anchor="middle" x="908.4937" y="-158.3" font-family="Times,serif" font-size="14.00" fill="#000000">discovery protocol</text>
</g>
<!-- discovery&#45;&gt;BZZ -->
<g id="edge12" class="edge">
<title>discovery&#45;&gt;BZZ</title>
<path fill="none" stroke="#000000" d="M966.026,-147.5163C1017.1487,-134.6463 1091.2906,-115.9812 1141.115,-103.438"/>
<polygon fill="#000000" stroke="#000000" points="1142.208,-106.7721 1151.0509,-100.9366 1140.499,-99.9839 1142.208,-106.7721"/>
</g>
<!-- handshake -->
<g id="node5" class="node">
<title>handshake</title>
<ellipse fill="none" stroke="#000000" cx="471.4937" cy="-162" rx="102.8821" ry="18"/>
<text text-anchor="middle" x="471.4937" y="-158.3" font-family="Times,serif" font-size="14.00" fill="#000000">handshake protocol</text>
</g>
<!-- handshake&#45;&gt;BZZ -->
<g id="edge9" class="edge">
<title>handshake&#45;&gt;BZZ</title>
<path fill="none" stroke="#000000" d="M544.8255,-149.3357C557.3696,-147.3909 570.2895,-145.5259 582.4937,-144 781.8614,-119.0729 1019.1864,-101.5923 1130.6661,-94.0959"/>
<polygon fill="#000000" stroke="#000000" points="1130.9895,-97.5822 1140.7338,-93.4231 1130.5227,-90.5978 1130.9895,-97.5822"/>
</g>
<!-- pssprotocol -->
<g id="node6" class="node">
<title>pssprotocol</title>
<ellipse fill="none" stroke="#000000" cx="71.4937" cy="-162" rx="71.4873" ry="18"/>
<text text-anchor="middle" x="71.4937" y="-158.3" font-family="Times,serif" font-size="14.00" fill="#000000">PSS protocol</text>
</g>
<!-- pssprotocol&#45;&gt;PSS -->
<g id="edge5" class="edge">
<title>pssprotocol&#45;&gt;PSS</title>
<path fill="none" stroke="#000000" d="M110.5153,-146.7307C139.8337,-135.2583 180.0408,-119.525 210.677,-107.537"/>
<polygon fill="#000000" stroke="#000000" points="212.2245,-110.6899 220.2615,-103.7865 209.6736,-104.1712 212.2245,-110.6899"/>
</g>
<!-- overlay -->
<g id="node7" class="node">
<title>overlay</title>
<ellipse fill="none" stroke="#000000" cx="630.4937" cy="-306" rx="118.0794" ry="18"/>
<text text-anchor="middle" x="630.4937" y="-302.3" font-family="Times,serif" font-size="14.00" fill="#000000">swarm overlay address</text>
</g>
<!-- overlay&#45;&gt;handshake -->
<g id="edge2" class="edge">
<title>overlay&#45;&gt;handshake</title>
<path fill="none" stroke="#000000" d="M610.6777,-288.0535C582.4359,-262.476 530.5133,-215.4517 498.6907,-186.6313"/>
<polygon fill="#000000" stroke="#000000" points="500.8214,-183.839 491.0599,-179.7204 496.1225,-189.0274 500.8214,-183.839"/>
</g>
<!-- kademlia -->
<g id="node17" class="node">
<title>kademlia</title>
<ellipse fill="none" stroke="#000000" cx="670.4937" cy="-234" rx="53.0913" ry="18"/>
<text text-anchor="middle" x="670.4937" y="-230.3" font-family="Times,serif" font-size="14.00" fill="#000000">kademlia</text>
</g>
<!-- overlay&#45;&gt;kademlia -->
<g id="edge1" class="edge">
<title>overlay&#45;&gt;kademlia</title>
<path fill="none" stroke="#000000" d="M640.5873,-287.8314C645.1221,-279.6688 650.5659,-269.87 655.5588,-260.8827"/>
<polygon fill="#000000" stroke="#000000" points="658.7448,-262.3548 660.5418,-251.9134 652.6257,-258.9552 658.7448,-262.3548"/>
</g>
<!-- literaladdress -->
<g id="node8" class="node">
<title>literaladdress</title>
<ellipse fill="none" stroke="#000000" cx="99.4937" cy="-234" rx="92.8835" ry="18"/>
<text text-anchor="middle" x="99.4937" y="-230.3" font-family="Times,serif" font-size="14.00" fill="#000000">literal addressing</text>
</g>
<!-- psshandler -->
<g id="node10" class="node">
<title>psshandler</title>
<ellipse fill="none" stroke="#000000" cx="255.4937" cy="-162" rx="94.7833" ry="18"/>
<text text-anchor="middle" x="255.4937" y="-158.3" font-family="Times,serif" font-size="14.00" fill="#000000">message handling</text>
</g>
<!-- literaladdress&#45;&gt;psshandler -->
<g id="edge6" class="edge">
<title>literaladdress&#45;&gt;psshandler</title>
<path fill="none" stroke="#000000" d="M135.6753,-217.3008C157.8446,-207.0688 186.4129,-193.8834 210.093,-182.9541"/>
<polygon fill="#000000" stroke="#000000" points="211.6255,-186.1017 219.2383,-178.7332 208.692,-179.746 211.6255,-186.1017"/>
</g>
<!-- proxaddress -->
<g id="node9" class="node">
<title>proxaddress</title>
<ellipse fill="none" stroke="#000000" cx="320.4937" cy="-234" rx="109.6807" ry="18"/>
<text text-anchor="middle" x="320.4937" y="-230.3" font-family="Times,serif" font-size="14.00" fill="#000000">proximity addressing</text>
</g>
<!-- proxaddress&#45;&gt;psshandler -->
<g id="edge7" class="edge">
<title>proxaddress&#45;&gt;psshandler</title>
<path fill="none" stroke="#000000" d="M304.0914,-215.8314C296.3346,-207.2392 286.941,-196.834 278.4881,-187.4708"/>
<polygon fill="#000000" stroke="#000000" points="280.9645,-184.9907 271.6655,-179.9134 275.7686,-189.6815 280.9645,-184.9907"/>
</g>
<!-- psshandler&#45;&gt;PSS -->
<g id="edge8" class="edge">
<title>psshandler&#45;&gt;PSS</title>
<path fill="none" stroke="#000000" d="M255.4937,-143.8314C255.4937,-136.131 255.4937,-126.9743 255.4937,-118.4166"/>
<polygon fill="#000000" stroke="#000000" points="258.9938,-118.4132 255.4937,-108.4133 251.9938,-118.4133 258.9938,-118.4132"/>
</g>
<!-- stream -->
<g id="node11" class="node">
<title>stream</title>
<ellipse fill="none" stroke="#000000" cx="1262.4937" cy="-234" rx="85.2851" ry="18"/>
<text text-anchor="middle" x="1262.4937" y="-230.3" font-family="Times,serif" font-size="14.00" fill="#000000">stream protocol</text>
</g>
<!-- stream&#45;&gt;BZZ -->
<g id="edge21" class="edge">
<title>stream&#45;&gt;BZZ</title>
<path fill="none" stroke="#000000" d="M1319.5712,-220.6411C1340.902,-212.579 1362.9704,-199.8644 1375.4937,-180 1384.0265,-166.4652 1385.0543,-156.8294 1375.4937,-144 1360.7526,-124.2189 1300.816,-109.0366 1253.9019,-99.8803"/>
<polygon fill="#000000" stroke="#000000" points="1254.2858,-96.3907 1243.8083,-97.9627 1252.9793,-103.2677 1254.2858,-96.3907"/>
</g>
<!-- stream&#45;&gt;lightextension -->
<g id="edge19" class="edge">
<title>stream&#45;&gt;lightextension</title>
<path fill="none" stroke="#000000" d="M1245.6847,-216.2022C1237.4918,-207.5275 1227.4917,-196.9391 1218.5112,-187.4304"/>
<polygon fill="#000000" stroke="#000000" points="1220.9924,-184.9601 1211.5816,-180.0931 1215.9033,-189.7665 1220.9924,-184.9601"/>
</g>
<!-- lightdiscoverystrategy -->
<g id="node12" class="node">
<title>lightdiscoverystrategy</title>
<ellipse fill="#ffff00" stroke="#000000" cx="908.4937" cy="-234" rx="150.5735" ry="18"/>
<text text-anchor="middle" x="908.4937" y="-230.3" font-family="Times,serif" font-size="14.00" fill="#000000">lightnode connection strategy</text>
</g>
<!-- lightdiscoverystrategy&#45;&gt;discovery -->
<g id="edge10" class="edge">
<title>lightdiscoverystrategy&#45;&gt;discovery</title>
<path fill="none" stroke="#000000" d="M908.4937,-215.8314C908.4937,-208.131 908.4937,-198.9743 908.4937,-190.4166"/>
<polygon fill="#000000" stroke="#000000" points="911.9938,-190.4132 908.4937,-180.4133 904.9938,-190.4133 911.9938,-190.4132"/>
</g>
<!-- kademlia&#45;&gt;discovery -->
<g id="edge11" class="edge">
<title>kademlia&#45;&gt;discovery</title>
<path fill="none" stroke="#000000" d="M710.3295,-221.9488C747.8961,-210.5841 804.7261,-193.3919 847.9084,-180.3283"/>
<polygon fill="#000000" stroke="#000000" points="849.1773,-183.6012 857.7354,-177.3554 847.1504,-176.901 849.1773,-183.6012"/>
</g>
<!-- forwarding -->
<g id="node18" class="node">
<title>forwarding</title>
<ellipse fill="none" stroke="#000000" cx="653.4937" cy="-162" rx="61.99" ry="18"/>
<text text-anchor="middle" x="653.4937" y="-158.3" font-family="Times,serif" font-size="14.00" fill="#000000">forwarding</text>
</g>
<!-- kademlia&#45;&gt;forwarding -->
<g id="edge3" class="edge">
<title>kademlia&#45;&gt;forwarding</title>
<path fill="none" stroke="#000000" d="M666.2038,-215.8314C664.3857,-208.131 662.2237,-198.9743 660.2031,-190.4166"/>
<polygon fill="#000000" stroke="#000000" points="663.5456,-189.3414 657.8412,-180.4133 656.7329,-190.95 663.5456,-189.3414"/>
</g>
<!-- hive -->
<g id="node19" class="node">
<title>hive</title>
<ellipse fill="none" stroke="#000000" cx="763.4937" cy="-162" rx="30.5947" ry="18"/>
<text text-anchor="middle" x="763.4937" y="-158.3" font-family="Times,serif" font-size="14.00" fill="#000000">hive</text>
</g>
<!-- kademlia&#45;&gt;hive -->
<g id="edge13" class="edge">
<title>kademlia&#45;&gt;hive</title>
<path fill="none" stroke="#000000" d="M692.0635,-217.3008C705.4303,-206.9523 722.6993,-193.5828 736.909,-182.5817"/>
<polygon fill="#000000" stroke="#000000" points="739.1047,-185.3081 744.8693,-176.4188 734.8195,-179.7731 739.1047,-185.3081"/>
</g>
<!-- forwarding&#45;&gt;PSS -->
<g id="edge4" class="edge">
<title>forwarding&#45;&gt;PSS</title>
<path fill="none" stroke="#000000" d="M608.0691,-149.6971C599.9163,-147.6669 591.4751,-145.6798 583.4937,-144 490.6211,-124.4543 381.715,-107.7366 315.7003,-98.2794"/>
<polygon fill="#000000" stroke="#000000" points="315.8762,-94.7692 305.4827,-96.8246 314.8894,-101.6993 315.8762,-94.7692"/>
</g>
<!-- hive&#45;&gt;BZZ -->
<g id="edge14" class="edge">
<title>hive&#45;&gt;BZZ</title>
<path fill="none" stroke="#000000" d="M786.5707,-149.9923C791.7043,-147.7075 797.1974,-145.5497 802.4937,-144 914.8129,-111.1358 1051.2292,-98.0982 1129.9369,-93.0529"/>
<polygon fill="#000000" stroke="#000000" points="1130.4165,-96.5301 1140.1819,-92.4206 1129.9853,-89.5434 1130.4165,-96.5301"/>
</g>
<!-- bmthasher -->
<g id="node20" class="node">
<title>bmthasher</title>
<ellipse fill="none" stroke="#000000" cx="1398.4937" cy="-378" rx="61.1893" ry="18"/>
<text text-anchor="middle" x="1398.4937" y="-374.3" font-family="Times,serif" font-size="14.00" fill="#000000">bmthasher</text>
</g>
<!-- filehasher -->
<g id="node21" class="node">
<title>filehasher</title>
<ellipse fill="none" stroke="#000000" cx="1307.4937" cy="-306" rx="57.3905" ry="18"/>
<text text-anchor="middle" x="1307.4937" y="-302.3" font-family="Times,serif" font-size="14.00" fill="#000000">filehasher</text>
</g>
<!-- bmthasher&#45;&gt;filehasher -->
<g id="edge15" class="edge">
<title>bmthasher&#45;&gt;filehasher</title>
<path fill="none" stroke="#000000" d="M1376.9279,-360.937C1365.0284,-351.522 1350.0755,-339.6912 1337.0966,-329.4221"/>
<polygon fill="#000000" stroke="#000000" points="1338.9185,-326.4006 1328.9046,-322.9405 1334.5751,-331.8902 1338.9185,-326.4006"/>
</g>
<!-- feeds -->
<g id="node24" class="node">
<title>feeds</title>
<ellipse fill="none" stroke="#000000" cx="1490.4937" cy="-306" rx="35.9954" ry="18"/>
<text text-anchor="middle" x="1490.4937" y="-302.3" font-family="Times,serif" font-size="14.00" fill="#000000">feeds</text>
</g>
<!-- bmthasher&#45;&gt;feeds -->
<g id="edge23" class="edge">
<title>bmthasher&#45;&gt;feeds</title>
<path fill="none" stroke="#000000" d="M1420.2964,-360.937C1433.0573,-350.9502 1449.2914,-338.2453 1462.9328,-327.5693"/>
<polygon fill="#000000" stroke="#000000" points="1465.3193,-330.1461 1471.0373,-321.2267 1461.0051,-324.6336 1465.3193,-330.1461"/>
</g>
<!-- filehasher&#45;&gt;stream -->
<g id="edge18" class="edge">
<title>filehasher&#45;&gt;stream</title>
<path fill="none" stroke="#000000" d="M1296.3701,-288.2022C1291.2167,-279.9569 1284.9829,-269.9828 1279.275,-260.8501"/>
<polygon fill="#000000" stroke="#000000" points="1282.0699,-258.7181 1273.8019,-252.0931 1276.1339,-262.4281 1282.0699,-258.7181"/>
</g>
<!-- storage -->
<g id="node23" class="node">
<title>storage</title>
<ellipse fill="none" stroke="#000000" cx="1411.4937" cy="-234" rx="46.2923" ry="18"/>
<text text-anchor="middle" x="1411.4937" y="-230.3" font-family="Times,serif" font-size="14.00" fill="#000000">storage</text>
</g>
<!-- filehasher&#45;&gt;storage -->
<g id="edge16" class="edge">
<title>filehasher&#45;&gt;storage</title>
<path fill="none" stroke="#000000" d="M1331.3534,-289.4817C1345.9259,-279.393 1364.7179,-266.3832 1380.4415,-255.4976"/>
<polygon fill="#000000" stroke="#000000" points="1382.5853,-258.2704 1388.815,-249.7006 1378.6008,-252.5151 1382.5853,-258.2704"/>
</g>
<!-- db -->
<g id="node22" class="node">
<title>db</title>
<ellipse fill="none" stroke="#000000" cx="1409.4937" cy="-306" rx="27" ry="18"/>
<text text-anchor="middle" x="1409.4937" y="-302.3" font-family="Times,serif" font-size="14.00" fill="#000000">db</text>
</g>
<!-- db&#45;&gt;storage -->
<g id="edge17" class="edge">
<title>db&#45;&gt;storage</title>
<path fill="none" stroke="#000000" d="M1409.9983,-287.8314C1410.2122,-280.131 1410.4666,-270.9743 1410.7043,-262.4166"/>
<polygon fill="#000000" stroke="#000000" points="1414.2031,-262.5066 1410.9822,-252.4133 1407.2058,-262.3122 1414.2031,-262.5066"/>
</g>
<!-- storage&#45;&gt;BZZ -->
<g id="edge22" class="edge">
<title>storage&#45;&gt;BZZ</title>
<path fill="none" stroke="#000000" d="M1412.837,-215.9637C1413.3041,-195.7877 1410.7948,-163.3984 1392.4937,-144 1373.5824,-123.9549 1305.2324,-108.418 1254.095,-99.2599"/>
<polygon fill="#000000" stroke="#000000" points="1254.5704,-95.79 1244.1168,-97.5139 1253.3638,-102.6852 1254.5704,-95.79"/>
</g>
<!-- feeds&#45;&gt;BZZ -->
<g id="edge24" class="edge">
<title>feeds&#45;&gt;BZZ</title>
<path fill="none" stroke="#000000" d="M1488.074,-288.023C1482.3473,-253.3477 1464.4722,-177.6813 1414.4937,-144 1388.55,-126.5162 1309.8821,-109.9074 1254.0438,-99.8388"/>
<polygon fill="#000000" stroke="#000000" points="1254.3593,-96.3401 1243.9011,-98.0361 1253.1344,-103.2321 1254.3593,-96.3401"/>
</g>
</g>
</svg>
