<?xml version="1.0" encoding="UTF-8" standalone="no"?>
<!DOCTYPE svg PUBLIC "-//W3C//DTD SVG 1.1//EN"
 "http://www.w3.org/Graphics/SVG/1.1/DTD/svg11.dtd">
<!-- Generated by graphviz version 2.40.1 (0)
 -->
<!-- Title: %3 Pages: 1 -->
<svg width="1942pt" height="332pt"
 viewBox="0.00 0.00 1941.98 332.00" xmlns="http://www.w3.org/2000/svg" xmlns:xlink="http://www.w3.org/1999/xlink">
<g id="graph0" class="graph" transform="scale(1 1) rotate(0) translate(4 328)">
<title>%3</title>
<polygon fill="#ffffff" stroke="transparent" points="-4,4 -4,-328 1937.9827,-328 1937.9827,4 -4,4"/>
<!-- test_execadapter -->
<g id="node1" class="node">
<title>test_execadapter</title>
<ellipse fill="none" stroke="#000000" cx="1048.0923" cy="-306" rx="181.9677" ry="18"/>
<text text-anchor="middle" x="1048.0923" y="-302.3" font-family="Times,serif" font-size="14.00" fill="#000000">Integrate Execadapter in swarm sim</text>
</g>
<!-- test_dockeradapter -->
<g id="node2" class="node">
<title>test_dockeradapter</title>
<ellipse fill="none" stroke="#000000" cx="1048.0923" cy="-234" rx="179.2682" ry="18"/>
<text text-anchor="middle" x="1048.0923" y="-230.3" font-family="Times,serif" font-size="14.00" fill="#000000">Create and integrate dockeradapter</text>
</g>
<!-- test_execadapter&#45;&gt;test_dockeradapter -->
<g id="edge1" class="edge">
<title>test_execadapter&#45;&gt;test_dockeradapter</title>
<path fill="none" stroke="#000000" d="M1048.0923,-287.8314C1048.0923,-280.131 1048.0923,-270.9743 1048.0923,-262.4166"/>
<polygon fill="#000000" stroke="#000000" points="1051.5924,-262.4132 1048.0923,-252.4133 1044.5924,-262.4133 1051.5924,-262.4132"/>
</g>
<!-- test_dockerkubernetes -->
<g id="node3" class="node">
<title>test_dockerkubernetes</title>
<ellipse fill="none" stroke="#000000" cx="1048.0923" cy="-162" rx="244.2567" ry="18"/>
<text text-anchor="middle" x="1048.0923" y="-158.3" font-family="Times,serif" font-size="14.00" fill="#000000">Integrate kubernetes orchestration in simulations</text>
</g>
<!-- test_dockeradapter&#45;&gt;test_dockerkubernetes -->
<g id="edge2" class="edge">
<title>test_dockeradapter&#45;&gt;test_dockerkubernetes</title>
<path fill="none" stroke="#000000" d="M1048.0923,-215.8314C1048.0923,-208.131 1048.0923,-198.9743 1048.0923,-190.4166"/>
<polygon fill="#000000" stroke="#000000" points="1051.5924,-190.4132 1048.0923,-180.4133 1044.5924,-190.4133 1051.5924,-190.4132"/>
</g>
<!-- test_sim2 -->
<g id="node4" class="node">
<title>test_sim2</title>
<ellipse fill="none" stroke="#000000" cx="616.0923" cy="-90" rx="155.1726" ry="18"/>
<text text-anchor="middle" x="616.0923" y="-86.3" font-family="Times,serif" font-size="14.00" fill="#000000">Network testing framework v2</text>
</g>
<!-- test_dockerkubernetes&#45;&gt;test_sim2 -->
<g id="edge3" class="edge">
<title>test_dockerkubernetes&#45;&gt;test_sim2</title>
<path fill="none" stroke="#000000" d="M949.2536,-145.5269C879.105,-133.8354 785.3171,-118.2041 715.1249,-106.5054"/>
<polygon fill="#000000" stroke="#000000" points="715.3849,-103.0006 704.9455,-104.8089 714.2341,-109.9053 715.3849,-103.0006"/>
</g>
<!-- test_pssdockerinit -->
<g id="node5" class="node">
<title>test_pssdockerinit</title>
<ellipse fill="none" stroke="#000000" cx="1016.0923" cy="-90" rx="194.1657" ry="18"/>
<text text-anchor="middle" x="1016.0923" y="-86.3" font-family="Times,serif" font-size="14.00" fill="#000000">PSS hello world test with docker nodes</text>
</g>
<!-- test_dockerkubernetes&#45;&gt;test_pssdockerinit -->
<g id="edge4" class="edge">
<title>test_dockerkubernetes&#45;&gt;test_pssdockerinit</title>
<path fill="none" stroke="#000000" d="M1040.0173,-143.8314C1036.4821,-135.8771 1032.2563,-126.369 1028.3466,-117.5723"/>
<polygon fill="#000000" stroke="#000000" points="1031.5357,-116.1299 1024.2759,-108.4133 1025.139,-118.9729 1031.5357,-116.1299"/>
</g>
<!-- test_pssfinal -->
<g id="node11" class="node">
<title>test_pssfinal</title>
<ellipse fill="none" stroke="#000000" cx="1317.0923" cy="-18" rx="172.7694" ry="18"/>
<text text-anchor="middle" x="1317.0923" y="-14.3" font-family="Times,serif" font-size="14.00" fill="#000000">PSS 1000 node docker cluster test</text>
</g>
<!-- test_sim2&#45;&gt;test_pssfinal -->
<g id="edge9" class="edge">
<title>test_sim2&#45;&gt;test_pssfinal</title>
<path fill="none" stroke="#000000" d="M732.6351,-78.0298C856.9003,-65.2665 1053.3713,-45.0869 1183.7269,-31.698"/>
<polygon fill="#000000" stroke="#000000" points="1184.1879,-35.1692 1193.7779,-30.6657 1183.4726,-28.2058 1184.1879,-35.1692"/>
</g>
<!-- test_pssdockerinit&#45;&gt;test_pssfinal -->
<g id="edge5" class="edge">
<title>test_pssdockerinit&#45;&gt;test_pssfinal</title>
<path fill="none" stroke="#000000" d="M1086.2835,-73.2101C1131.7753,-62.3283 1191.1118,-48.1349 1238.2299,-36.8641"/>
<polygon fill="#000000" stroke="#000000" points="1239.1782,-40.2361 1248.0895,-34.5056 1237.5496,-33.4281 1239.1782,-40.2361"/>
</g>
<!-- test_churn -->
<g id="node6" class="node">
<title>test_churn</title>
<ellipse fill="none" stroke="#000000" cx="87.0923" cy="-162" rx="87.1846" ry="18"/>
<text text-anchor="middle" x="87.0923" y="-158.3" font-family="Times,serif" font-size="14.00" fill="#000000">Churn simulator</text>
</g>
<!-- test_churn&#45;&gt;test_sim2 -->
<g id="edge6" class="edge">
<title>test_churn&#45;&gt;test_sim2</title>
<path fill="none" stroke="#000000" d="M150.2555,-149.5876C161.1854,-147.6028 172.4531,-145.6592 183.0923,-144 286.9528,-127.8024 405.4325,-113.2993 492.1715,-103.4124"/>
<polygon fill="#000000" stroke="#000000" points="492.781,-106.8658 502.3223,-102.2599 491.9913,-99.9104 492.781,-106.8658"/>
</g>
<!-- test_drop -->
<g id="node7" class="node">
<title>test_drop</title>
<ellipse fill="none" stroke="#000000" cx="310.0923" cy="-162" rx="118.0794" ry="18"/>
<text text-anchor="middle" x="310.0923" y="-158.3" font-family="Times,serif" font-size="14.00" fill="#000000">Payload drop simulator</text>
</g>
<!-- test_drop&#45;&gt;test_sim2 -->
<g id="edge8" class="edge">
<title>test_drop&#45;&gt;test_sim2</title>
<path fill="none" stroke="#000000" d="M374.6131,-146.8186C422.1208,-135.6404 486.9692,-120.3819 537.5023,-108.4917"/>
<polygon fill="#000000" stroke="#000000" points="538.4762,-111.8583 547.4087,-106.1608 536.8729,-105.0443 538.4762,-111.8583"/>
</g>
<!-- test_throttle -->
<g id="node8" class="node">
<title>test_throttle</title>
<ellipse fill="none" stroke="#000000" cx="616.0923" cy="-162" rx="169.77" ry="18"/>
<text text-anchor="middle" x="616.0923" y="-158.3" font-family="Times,serif" font-size="14.00" fill="#000000">Custom ping/bandwidth simulator</text>
</g>
<!-- test_throttle&#45;&gt;test_sim2 -->
<g id="edge7" class="edge">
<title>test_throttle&#45;&gt;test_sim2</title>
<path fill="none" stroke="#000000" d="M616.0923,-143.8314C616.0923,-136.131 616.0923,-126.9743 616.0923,-118.4166"/>
<polygon fill="#000000" stroke="#000000" points="619.5924,-118.4132 616.0923,-108.4133 612.5924,-118.4133 619.5924,-118.4132"/>
</g>
<!-- test_psssmoke -->
<g id="node9" class="node">
<title>test_psssmoke</title>
<ellipse fill="none" stroke="#000000" cx="1317.0923" cy="-90" rx="89.0842" ry="18"/>
<text text-anchor="middle" x="1317.0923" y="-86.3" font-family="Times,serif" font-size="14.00" fill="#000000">PSS smoke tests</text>
</g>
<!-- test_psssmoke&#45;&gt;test_pssfinal -->
<g id="edge10" class="edge">
<title>test_psssmoke&#45;&gt;test_pssfinal</title>
<path fill="none" stroke="#000000" d="M1317.0923,-71.8314C1317.0923,-64.131 1317.0923,-54.9743 1317.0923,-46.4166"/>
<polygon fill="#000000" stroke="#000000" points="1320.5924,-46.4132 1317.0923,-36.4133 1313.5924,-46.4133 1320.5924,-46.4132"/>
</g>
<!-- test_pssmsghook -->
<g id="node10" class="node">
<title>test_pssmsghook</title>
<ellipse fill="none" stroke="#000000" cx="1562.0923" cy="-90" rx="137.5759" ry="18"/>
<text text-anchor="middle" x="1562.0923" y="-86.3" font-family="Times,serif" font-size="14.00" fill="#000000">API to detect received PSS</text>
</g>
<!-- test_pssmsghook&#45;&gt;test_pssfinal -->
<g id="edge11" class="edge">
<title>test_pssmsghook&#45;&gt;test_pssfinal</title>
<path fill="none" stroke="#000000" d="M1505.8843,-73.4817C1469.9615,-62.9248 1423.1548,-49.1694 1385.1352,-37.9963"/>
<polygon fill="#000000" stroke="#000000" points="1385.7483,-34.5285 1375.1672,-35.0669 1383.7746,-41.2445 1385.7483,-34.5285"/>
</g>
<!-- test_pssfinalspec -->
<g id="node12" class="node">
<title>test_pssfinalspec</title>
<ellipse fill="none" stroke="#000000" cx="1826.0923" cy="-90" rx="107.781" ry="18"/>
<text text-anchor="middle" x="1826.0923" y="-86.3" font-family="Times,serif" font-size="14.00" fill="#000000">PSS test vector spec</text>
</g>
<!-- test_pssfinalspec&#45;&gt;test_pssfinal -->
<g id="edge12" class="edge">
<title>test_pssfinalspec&#45;&gt;test_pssfinal</title>
<path fill="none" stroke="#000000" d="M1747.1335,-77.6791C1734.4186,-75.745 1721.3958,-73.7938 1709.0923,-72 1616.7091,-58.5313 1511.9421,-44.1449 1433.9733,-33.6107"/>
<polygon fill="#000000" stroke="#000000" points="1434.0154,-30.0848 1423.637,-32.2156 1433.0789,-37.0219 1434.0154,-30.0848"/>
</g>
</g>
</svg>
