<?xml version="1.0" encoding="UTF-8" standalone="no"?>
<!DOCTYPE svg PUBLIC "-//W3C//DTD SVG 1.1//EN"
 "http://www.w3.org/Graphics/SVG/1.1/DTD/svg11.dtd">
<!-- Generated by graphviz version 2.40.1 (0)
 -->
<!-- Title: %3 Pages: 1 -->
<svg width="1667pt" height="548pt"
 viewBox="0.00 0.00 1666.98 548.00" xmlns="http://www.w3.org/2000/svg" xmlns:xlink="http://www.w3.org/1999/xlink">
<g id="graph0" class="graph" transform="scale(1 1) rotate(0) translate(4 544)">
<title>%3</title>
<polygon fill="#ffffff" stroke="transparent" points="-4,4 -4,-544 1662.9827,-544 1662.9827,4 -4,4"/>
<!-- test_execadapter -->
<g id="node1" class="node">
<title>test_execadapter</title>
<ellipse fill="#ffc0cb" stroke="#000000" cx="1048.0923" cy="-522" rx="181.9677" ry="18"/>
<text text-anchor="middle" x="1048.0923" y="-518.3" font-family="Times,serif" font-size="14.00" fill="#000000">Integrate Execadapter in swarm sim</text>
</g>
<!-- test_dockeradapter -->
<g id="node2" class="node">
<title>test_dockeradapter</title>
<ellipse fill="#ffc0cb" stroke="#000000" cx="1048.0923" cy="-450" rx="179.2682" ry="18"/>
<text text-anchor="middle" x="1048.0923" y="-446.3" font-family="Times,serif" font-size="14.00" fill="#000000">Create and integrate dockeradapter</text>
</g>
<!-- test_execadapter&#45;&gt;test_dockeradapter -->
<g id="edge1" class="edge">
<title>test_execadapter&#45;&gt;test_dockeradapter</title>
<path fill="none" stroke="#000000" d="M1048.0923,-503.8314C1048.0923,-496.131 1048.0923,-486.9743 1048.0923,-478.4166"/>
<polygon fill="#000000" stroke="#000000" points="1051.5924,-478.4132 1048.0923,-468.4133 1044.5924,-478.4133 1051.5924,-478.4132"/>
</g>
<!-- test_dockerkubernetes -->
<g id="node3" class="node">
<title>test_dockerkubernetes</title>
<ellipse fill="#ffc0cb" stroke="#000000" cx="1048.0923" cy="-378" rx="244.2567" ry="18"/>
<text text-anchor="middle" x="1048.0923" y="-374.3" font-family="Times,serif" font-size="14.00" fill="#000000">Integrate kubernetes orchestration in simulations</text>
</g>
<!-- test_dockeradapter&#45;&gt;test_dockerkubernetes -->
<g id="edge2" class="edge">
<title>test_dockeradapter&#45;&gt;test_dockerkubernetes</title>
<path fill="none" stroke="#000000" d="M1048.0923,-431.8314C1048.0923,-424.131 1048.0923,-414.9743 1048.0923,-406.4166"/>
<polygon fill="#000000" stroke="#000000" points="1051.5924,-406.4132 1048.0923,-396.4133 1044.5924,-406.4133 1051.5924,-406.4132"/>
</g>
<!-- test_sim2 -->
<g id="node4" class="node">
<title>test_sim2</title>
<ellipse fill="none" stroke="#000000" cx="616.0923" cy="-306" rx="155.1726" ry="18"/>
<text text-anchor="middle" x="616.0923" y="-302.3" font-family="Times,serif" font-size="14.00" fill="#000000">Network testing framework v2</text>
</g>
<!-- test_dockerkubernetes&#45;&gt;test_sim2 -->
<g id="edge3" class="edge">
<title>test_dockerkubernetes&#45;&gt;test_sim2</title>
<path fill="none" stroke="#000000" d="M949.2536,-361.5269C879.105,-349.8354 785.3171,-334.2041 715.1249,-322.5054"/>
<polygon fill="#000000" stroke="#000000" points="715.3849,-319.0006 704.9455,-320.8089 714.2341,-325.9053 715.3849,-319.0006"/>
</g>
<!-- test_pssdockerinit -->
<g id="node5" class="node">
<title>test_pssdockerinit</title>
<ellipse fill="none" stroke="#000000" cx="1016.0923" cy="-306" rx="194.1657" ry="18"/>
<text text-anchor="middle" x="1016.0923" y="-302.3" font-family="Times,serif" font-size="14.00" fill="#000000">PSS hello world test with docker nodes</text>
</g>
<!-- test_dockerkubernetes&#45;&gt;test_pssdockerinit -->
<g id="edge4" class="edge">
<title>test_dockerkubernetes&#45;&gt;test_pssdockerinit</title>
<path fill="none" stroke="#000000" d="M1040.0173,-359.8314C1036.4821,-351.8771 1032.2563,-342.369 1028.3466,-333.5723"/>
<polygon fill="#000000" stroke="#000000" points="1031.5357,-332.1299 1024.2759,-324.4133 1025.139,-334.9729 1031.5357,-332.1299"/>
</g>
<!-- test_pssfinal -->
<g id="node11" class="node">
<title>test_pssfinal</title>
<ellipse fill="none" stroke="#000000" cx="1151.0923" cy="-162" rx="172.7694" ry="18"/>
<text text-anchor="middle" x="1151.0923" y="-158.3" font-family="Times,serif" font-size="14.00" fill="#000000">PSS 1000 node docker cluster test</text>
</g>
<!-- test_sim2&#45;&gt;test_pssfinal -->
<g id="edge10" class="edge">
<title>test_sim2&#45;&gt;test_pssfinal</title>
<path fill="none" stroke="#000000" d="M663.4836,-288.787C718.0896,-269.3664 810.7616,-237.669 892.0923,-216 945.3458,-201.8116 1005.5747,-189.061 1054.5425,-179.5172"/>
<polygon fill="#000000" stroke="#000000" points="1055.3439,-182.9271 1064.4968,-177.5909 1054.014,-176.0546 1055.3439,-182.9271"/>
</g>
<!-- mvp_aug -->
<g id="node13" class="node">
<title>mvp_aug</title>
<ellipse fill="#000000" stroke="#000000" cx="1016.0923" cy="-234" rx="115.0796" ry="18"/>
<text text-anchor="middle" x="1016.0923" y="-230.3" font-family="Times,serif" font-size="14.00" fill="#ffffff">Swarm MVP aug 2019</text>
</g>
<!-- test_pssdockerinit&#45;&gt;mvp_aug -->
<g id="edge5" class="edge">
<title>test_pssdockerinit&#45;&gt;mvp_aug</title>
<path fill="none" stroke="#000000" d="M1016.0923,-287.8314C1016.0923,-280.131 1016.0923,-270.9743 1016.0923,-262.4166"/>
<polygon fill="#000000" stroke="#000000" points="1019.5924,-262.4132 1016.0923,-252.4133 1012.5924,-262.4133 1019.5924,-262.4132"/>
</g>
<!-- test_churn -->
<g id="node6" class="node">
<title>test_churn</title>
<ellipse fill="#ffc0cb" stroke="#000000" cx="87.0923" cy="-378" rx="87.1846" ry="18"/>
<text text-anchor="middle" x="87.0923" y="-374.3" font-family="Times,serif" font-size="14.00" fill="#000000">Churn simulator</text>
</g>
<!-- test_churn&#45;&gt;test_sim2 -->
<g id="edge7" class="edge">
<title>test_churn&#45;&gt;test_sim2</title>
<path fill="none" stroke="#000000" d="M150.2555,-365.5876C161.1854,-363.6028 172.4531,-361.6592 183.0923,-360 286.9528,-343.8024 405.4325,-329.2993 492.1715,-319.4124"/>
<polygon fill="#000000" stroke="#000000" points="492.781,-322.8658 502.3223,-318.2599 491.9913,-315.9104 492.781,-322.8658"/>
</g>
<!-- test_drop -->
<g id="node7" class="node">
<title>test_drop</title>
<ellipse fill="#ffc0cb" stroke="#000000" cx="310.0923" cy="-378" rx="118.0794" ry="18"/>
<text text-anchor="middle" x="310.0923" y="-374.3" font-family="Times,serif" font-size="14.00" fill="#000000">Payload drop simulator</text>
</g>
<!-- test_drop&#45;&gt;test_sim2 -->
<g id="edge9" class="edge">
<title>test_drop&#45;&gt;test_sim2</title>
<path fill="none" stroke="#000000" d="M374.6131,-362.8186C422.1208,-351.6404 486.9692,-336.3819 537.5023,-324.4917"/>
<polygon fill="#000000" stroke="#000000" points="538.4762,-327.8583 547.4087,-322.1608 536.8729,-321.0443 538.4762,-327.8583"/>
</g>
<!-- test_throttle -->
<g id="node8" class="node">
<title>test_throttle</title>
<ellipse fill="#ffc0cb" stroke="#000000" cx="616.0923" cy="-378" rx="169.77" ry="18"/>
<text text-anchor="middle" x="616.0923" y="-374.3" font-family="Times,serif" font-size="14.00" fill="#000000">Custom ping/bandwidth simulator</text>
</g>
<!-- test_throttle&#45;&gt;test_sim2 -->
<g id="edge8" class="edge">
<title>test_throttle&#45;&gt;test_sim2</title>
<path fill="none" stroke="#000000" d="M616.0923,-359.8314C616.0923,-352.131 616.0923,-342.9743 616.0923,-334.4166"/>
<polygon fill="#000000" stroke="#000000" points="619.5924,-334.4132 616.0923,-324.4133 612.5924,-334.4133 619.5924,-334.4132"/>
</g>
<!-- test_psssmoke -->
<g id="node9" class="node">
<title>test_psssmoke</title>
<ellipse fill="none" stroke="#000000" cx="1317.0923" cy="-306" rx="89.0842" ry="18"/>
<text text-anchor="middle" x="1317.0923" y="-302.3" font-family="Times,serif" font-size="14.00" fill="#000000">PSS smoke tests</text>
</g>
<!-- test_psssmoke&#45;&gt;mvp_aug -->
<g id="edge6" class="edge">
<title>test_psssmoke&#45;&gt;mvp_aug</title>
<path fill="none" stroke="#000000" d="M1259.4126,-292.2029C1210.9814,-280.618 1141.5105,-264.0004 1089.1887,-251.4849"/>
<polygon fill="#000000" stroke="#000000" points="1089.8362,-248.0411 1079.2963,-249.1186 1088.2077,-254.849 1089.8362,-248.0411"/>
</g>
<!-- test_pssmsghook -->
<g id="node10" class="node">
<title>test_pssmsghook</title>
<ellipse fill="none" stroke="#000000" cx="1287.0923" cy="-234" rx="137.5759" ry="18"/>
<text text-anchor="middle" x="1287.0923" y="-230.3" font-family="Times,serif" font-size="14.00" fill="#000000">API to detect received PSS</text>
</g>
<!-- test_pssmsghook&#45;&gt;test_pssfinal -->
<g id="edge11" class="edge">
<title>test_pssmsghook&#45;&gt;test_pssfinal</title>
<path fill="none" stroke="#000000" d="M1253.8229,-216.3868C1235.6293,-206.7549 1212.9016,-194.7226 1193.4524,-184.4259"/>
<polygon fill="#000000" stroke="#000000" points="1194.965,-181.2666 1184.4895,-179.6809 1191.6898,-187.4531 1194.965,-181.2666"/>
</g>
<!-- mvp_q3 -->
<g id="node14" class="node">
<title>mvp_q3</title>
<ellipse fill="#000000" stroke="#000000" cx="1151.0923" cy="-90" rx="122.3786" ry="18"/>
<text text-anchor="middle" x="1151.0923" y="-86.3" font-family="Times,serif" font-size="14.00" fill="#ffffff">Adaptive Node MVP Q3</text>
</g>
<!-- test_pssfinal&#45;&gt;mvp_q3 -->
<g id="edge14" class="edge">
<title>test_pssfinal&#45;&gt;mvp_q3</title>
<path fill="none" stroke="#000000" d="M1151.0923,-143.8314C1151.0923,-136.131 1151.0923,-126.9743 1151.0923,-118.4166"/>
<polygon fill="#000000" stroke="#000000" points="1154.5924,-118.4132 1151.0923,-108.4133 1147.5924,-118.4133 1154.5924,-118.4132"/>
</g>
<!-- test_pssfinalspec -->
<g id="node12" class="node">
<title>test_pssfinalspec</title>
<ellipse fill="none" stroke="#000000" cx="1551.0923" cy="-234" rx="107.781" ry="18"/>
<text text-anchor="middle" x="1551.0923" y="-230.3" font-family="Times,serif" font-size="14.00" fill="#000000">PSS test vector spec</text>
</g>
<!-- test_pssfinalspec&#45;&gt;test_pssfinal -->
<g id="edge12" class="edge">
<title>test_pssfinalspec&#45;&gt;test_pssfinal</title>
<path fill="none" stroke="#000000" d="M1477.7261,-220.7941C1413.2357,-209.1858 1318.9034,-192.206 1248.1749,-179.4749"/>
<polygon fill="#000000" stroke="#000000" points="1248.379,-175.9554 1237.9171,-177.6285 1247.1389,-182.8447 1248.379,-175.9554"/>
</g>
<!-- mvp_aug&#45;&gt;test_pssfinal -->
<g id="edge13" class="edge">
<title>mvp_aug&#45;&gt;test_pssfinal</title>
<path fill="none" stroke="#000000" d="M1048.772,-216.5708C1066.826,-206.942 1089.4565,-194.8724 1108.8411,-184.534"/>
<polygon fill="#000000" stroke="#000000" points="1110.5992,-187.5631 1117.7756,-179.7689 1107.305,-181.3866 1110.5992,-187.5631"/>
</g>
<!-- mvp_q4 -->
<g id="node15" class="node">
<title>mvp_q4</title>
<ellipse fill="#000000" stroke="#000000" cx="1151.0923" cy="-18" rx="122.3786" ry="18"/>
<text text-anchor="middle" x="1151.0923" y="-14.3" font-family="Times,serif" font-size="14.00" fill="#ffffff">Adaptive Node MVP Q4</text>
</g>
<!-- mvp_q3&#45;&gt;mvp_q4 -->
<g id="edge15" class="edge">
<title>mvp_q3&#45;&gt;mvp_q4</title>
<path fill="none" stroke="#000000" d="M1151.0923,-71.8314C1151.0923,-64.131 1151.0923,-54.9743 1151.0923,-46.4166"/>
<polygon fill="#000000" stroke="#000000" points="1154.5924,-46.4132 1151.0923,-36.4133 1147.5924,-46.4133 1154.5924,-46.4132"/>
</g>
</g>
</svg>
