<?xml version="1.0" encoding="UTF-8" standalone="no"?>
<!DOCTYPE svg PUBLIC "-//W3C//DTD SVG 1.1//EN"
 "http://www.w3.org/Graphics/SVG/1.1/DTD/svg11.dtd">
<!-- Generated by graphviz version 2.40.1 (0)
 -->
<!-- Title: %3 Pages: 1 -->
<svg width="1445pt" height="476pt"
 viewBox="0.00 0.00 1444.82 476.00" xmlns="http://www.w3.org/2000/svg" xmlns:xlink="http://www.w3.org/1999/xlink">
<g id="graph0" class="graph" transform="scale(1 1) rotate(0) translate(4 472)">
<title>%3</title>
<polygon fill="#ffffff" stroke="transparent" points="-4,4 -4,-472 1440.8195,-472 1440.8195,4 -4,4"/>
<!-- distance_core -->
<g id="node1" class="node">
<title>distance_core</title>
<ellipse fill="#add8e6" stroke="#000000" cx="237.229" cy="-450" rx="237.4581" ry="18"/>
<text text-anchor="middle" x="237.229" y="-446.3" font-family="Times,serif" font-size="14.00" fill="#000000">Methods for calculating and comparing distance</text>
</g>
<!-- streaming_proto -->
<g id="node2" class="node">
<title>streaming_proto</title>
<ellipse fill="#add8e6" stroke="#000000" cx="345.229" cy="-378" rx="139.9756" ry="18"/>
<text text-anchor="middle" x="345.229" y="-374.3" font-family="Times,serif" font-size="14.00" fill="#000000">streaming protocol refactor</text>
</g>
<!-- distance_core&#45;&gt;streaming_proto -->
<g id="edge1" class="edge">
<title>distance_core&#45;&gt;streaming_proto</title>
<path fill="none" stroke="#000000" d="M264.2033,-432.0171C278.0959,-422.7553 295.204,-411.35 310.1143,-401.4098"/>
<polygon fill="#000000" stroke="#000000" points="312.2193,-404.213 318.5984,-395.7537 308.3364,-398.3886 312.2193,-404.213"/>
</g>
<!-- pushsync -->
<g id="node4" class="node">
<title>pushsync</title>
<ellipse fill="#add8e6" stroke="#000000" cx="129.229" cy="-378" rx="57.6901" ry="18"/>
<text text-anchor="middle" x="129.229" y="-374.3" font-family="Times,serif" font-size="14.00" fill="#000000">push sync</text>
</g>
<!-- distance_core&#45;&gt;pushsync -->
<g id="edge4" class="edge">
<title>distance_core&#45;&gt;pushsync</title>
<path fill="none" stroke="#000000" d="M210.2546,-432.0171C195.8397,-422.4072 177.963,-410.4894 162.6716,-400.2951"/>
<polygon fill="#000000" stroke="#000000" points="164.2747,-397.1574 154.0127,-394.5225 160.3917,-402.9817 164.2747,-397.1574"/>
</g>
<!-- retrieve_proto -->
<g id="node3" class="node">
<title>retrieve_proto</title>
<ellipse fill="#ffff00" stroke="#000000" cx="345.229" cy="-306" rx="128.0773" ry="18"/>
<text text-anchor="middle" x="345.229" y="-302.3" font-family="Times,serif" font-size="14.00" fill="#000000">Explicit retrieve protocol</text>
</g>
<!-- streaming_proto&#45;&gt;retrieve_proto -->
<g id="edge2" class="edge">
<title>streaming_proto&#45;&gt;retrieve_proto</title>
<path fill="none" stroke="#000000" d="M345.229,-359.8314C345.229,-352.131 345.229,-342.9743 345.229,-334.4166"/>
<polygon fill="#000000" stroke="#000000" points="348.7291,-334.4132 345.229,-324.4133 341.7291,-334.4133 348.7291,-334.4132"/>
</g>
<!-- bzzl_read -->
<g id="node5" class="node">
<title>bzzl_read</title>
<ellipse fill="none" stroke="#000000" cx="641.229" cy="-234" rx="138.3755" ry="18"/>
<text text-anchor="middle" x="641.229" y="-230.3" font-family="Times,serif" font-size="14.00" fill="#000000">bzz light node retrieve only</text>
</g>
<!-- retrieve_proto&#45;&gt;bzzl_read -->
<g id="edge6" class="edge">
<title>retrieve_proto&#45;&gt;bzzl_read</title>
<path fill="none" stroke="#000000" d="M409.4565,-290.3771C455.5079,-279.1754 517.6942,-264.049 566.0588,-252.2846"/>
<polygon fill="#000000" stroke="#000000" points="566.9588,-255.6679 575.8482,-249.9034 565.3042,-248.8662 566.9588,-255.6679"/>
</g>
<!-- mvp_aug -->
<g id="node11" class="node">
<title>mvp_aug</title>
<ellipse fill="#000000" stroke="#000000" cx="345.229" cy="-234" rx="115.0796" ry="18"/>
<text text-anchor="middle" x="345.229" y="-230.3" font-family="Times,serif" font-size="14.00" fill="#ffffff">Swarm MVP aug 2019</text>
</g>
<!-- retrieve_proto&#45;&gt;mvp_aug -->
<g id="edge3" class="edge">
<title>retrieve_proto&#45;&gt;mvp_aug</title>
<path fill="none" stroke="#000000" d="M345.229,-287.8314C345.229,-280.131 345.229,-270.9743 345.229,-262.4166"/>
<polygon fill="#000000" stroke="#000000" points="348.7291,-262.4132 345.229,-252.4133 341.7291,-262.4133 348.7291,-262.4132"/>
</g>
<!-- pushsync&#45;&gt;mvp_aug -->
<g id="edge5" class="edge">
<title>pushsync&#45;&gt;mvp_aug</title>
<path fill="none" stroke="#000000" d="M140.9371,-360.1722C154.8634,-340.1875 179.8289,-307.9734 208.229,-288 229.3655,-273.135 255.1678,-261.5903 278.6567,-253.0612"/>
<polygon fill="#000000" stroke="#000000" points="279.9386,-256.3207 288.2155,-249.7069 277.6206,-249.7156 279.9386,-256.3207"/>
</g>
<!-- bzzl_readwrite -->
<g id="node6" class="node">
<title>bzzl_readwrite</title>
<ellipse fill="none" stroke="#000000" cx="493.229" cy="-162" rx="161.3716" ry="18"/>
<text text-anchor="middle" x="493.229" y="-158.3" font-family="Times,serif" font-size="14.00" fill="#000000">bzz light node retrieve and push</text>
</g>
<!-- bzzl_read&#45;&gt;bzzl_readwrite -->
<g id="edge9" class="edge">
<title>bzzl_read&#45;&gt;bzzl_readwrite</title>
<path fill="none" stroke="#000000" d="M605.4023,-216.5708C585.3561,-206.8186 560.1633,-194.5627 538.7336,-184.1374"/>
<polygon fill="#000000" stroke="#000000" points="540.0195,-180.8708 529.496,-179.6434 536.9572,-187.1655 540.0195,-180.8708"/>
</g>
<!-- mvp_q3 -->
<g id="node12" class="node">
<title>mvp_q3</title>
<ellipse fill="#000000" stroke="#000000" cx="493.229" cy="-90" rx="122.3786" ry="18"/>
<text text-anchor="middle" x="493.229" y="-86.3" font-family="Times,serif" font-size="14.00" fill="#ffffff">Adaptive Node MVP Q3</text>
</g>
<!-- bzzl_readwrite&#45;&gt;mvp_q3 -->
<g id="edge13" class="edge">
<title>bzzl_readwrite&#45;&gt;mvp_q3</title>
<path fill="none" stroke="#000000" d="M493.229,-143.8314C493.229,-136.131 493.229,-126.9743 493.229,-118.4166"/>
<polygon fill="#000000" stroke="#000000" points="496.7291,-118.4132 493.229,-108.4133 489.7291,-118.4133 496.7291,-118.4132"/>
</g>
<!-- hive_random_simple -->
<g id="node7" class="node">
<title>hive_random_simple</title>
<ellipse fill="none" stroke="#000000" cx="658.229" cy="-378" rx="155.1726" ry="18"/>
<text text-anchor="middle" x="658.229" y="-374.3" font-family="Times,serif" font-size="14.00" fill="#000000">Hive suggest random one node</text>
</g>
<!-- hive_random_redundant -->
<g id="node8" class="node">
<title>hive_random_redundant</title>
<ellipse fill="none" stroke="#000000" cx="641.229" cy="-306" rx="149.4735" ry="18"/>
<text text-anchor="middle" x="641.229" y="-302.3" font-family="Times,serif" font-size="14.00" fill="#000000">Hive suggest n random nodes</text>
</g>
<!-- hive_random_simple&#45;&gt;hive_random_redundant -->
<g id="edge7" class="edge">
<title>hive_random_simple&#45;&gt;hive_random_redundant</title>
<path fill="none" stroke="#000000" d="M653.9391,-359.8314C652.121,-352.131 649.959,-342.9743 647.9384,-334.4166"/>
<polygon fill="#000000" stroke="#000000" points="651.2809,-333.3414 645.5765,-324.4133 644.4682,-334.95 651.2809,-333.3414"/>
</g>
<!-- hive_random_redundant&#45;&gt;bzzl_read -->
<g id="edge8" class="edge">
<title>hive_random_redundant&#45;&gt;bzzl_read</title>
<path fill="none" stroke="#000000" d="M641.229,-287.8314C641.229,-280.131 641.229,-270.9743 641.229,-262.4166"/>
<polygon fill="#000000" stroke="#000000" points="644.7291,-262.4132 641.229,-252.4133 637.7291,-262.4133 644.7291,-262.4132"/>
</g>
<!-- discovery_caps -->
<g id="node9" class="node">
<title>discovery_caps</title>
<ellipse fill="none" stroke="#000000" cx="1007.229" cy="-306" rx="198.4651" ry="18"/>
<text text-anchor="middle" x="1007.229" y="-302.3" font-family="Times,serif" font-size="14.00" fill="#000000">Message type to change node capability</text>
</g>
<!-- discovery_caps&#45;&gt;bzzl_read -->
<g id="edge10" class="edge">
<title>discovery_caps&#45;&gt;bzzl_read</title>
<path fill="none" stroke="#000000" d="M923.7199,-289.572C865.1839,-278.0567 787.1355,-262.7029 727.9109,-251.0522"/>
<polygon fill="#000000" stroke="#000000" points="728.3163,-247.5649 717.8287,-249.0688 726.9651,-254.4333 728.3163,-247.5649"/>
</g>
<!-- httpcaps -->
<g id="node10" class="node">
<title>httpcaps</title>
<ellipse fill="#ffff00" stroke="#000000" cx="1330.229" cy="-306" rx="106.6812" ry="18"/>
<text text-anchor="middle" x="1330.229" y="-302.3" font-family="Times,serif" font-size="14.00" fill="#000000">http capabilities API</text>
</g>
<!-- httpcaps&#45;&gt;bzzl_read -->
<g id="edge11" class="edge">
<title>httpcaps&#45;&gt;bzzl_read</title>
<path fill="none" stroke="#000000" d="M1253.5715,-293.4406C1240.4649,-291.4836 1226.9698,-289.5874 1214.229,-288 1062.2443,-269.0638 886.8362,-253.4444 770.5431,-243.9587"/>
<polygon fill="#000000" stroke="#000000" points="770.7781,-240.4663 760.5275,-243.145 770.2112,-247.4433 770.7781,-240.4663"/>
</g>
<!-- mvp_aug&#45;&gt;bzzl_readwrite -->
<g id="edge12" class="edge">
<title>mvp_aug&#45;&gt;bzzl_readwrite</title>
<path fill="none" stroke="#000000" d="M380.6786,-216.7542C400.8819,-206.9256 426.4041,-194.5094 448.035,-183.9862"/>
<polygon fill="#000000" stroke="#000000" points="449.5791,-187.1273 457.0404,-179.6053 446.5168,-180.8327 449.5791,-187.1273"/>
</g>
<!-- mvp_q4 -->
<g id="node13" class="node">
<title>mvp_q4</title>
<ellipse fill="#000000" stroke="#000000" cx="493.229" cy="-18" rx="122.3786" ry="18"/>
<text text-anchor="middle" x="493.229" y="-14.3" font-family="Times,serif" font-size="14.00" fill="#ffffff">Adaptive Node MVP Q4</text>
</g>
<!-- mvp_q3&#45;&gt;mvp_q4 -->
<g id="edge14" class="edge">
<title>mvp_q3&#45;&gt;mvp_q4</title>
<path fill="none" stroke="#000000" d="M493.229,-71.8314C493.229,-64.131 493.229,-54.9743 493.229,-46.4166"/>
<polygon fill="#000000" stroke="#000000" points="496.7291,-46.4132 493.229,-36.4133 489.7291,-46.4133 496.7291,-46.4132"/>
</g>
</g>
</svg>
