<?xml version="1.0" encoding="UTF-8" standalone="no"?>
<!DOCTYPE svg PUBLIC "-//W3C//DTD SVG 1.1//EN"
 "http://www.w3.org/Graphics/SVG/1.1/DTD/svg11.dtd">
<!-- Generated by graphviz version 2.40.1 (0)
 -->
<!-- Title: %3 Pages: 1 -->
<svg width="2150pt" height="620pt"
 viewBox="0.00 0.00 2150.29 620.00" xmlns="http://www.w3.org/2000/svg" xmlns:xlink="http://www.w3.org/1999/xlink">
<g id="graph0" class="graph" transform="scale(1 1) rotate(0) translate(4 616)">
<title>%3</title>
<polygon fill="#ffffff" stroke="transparent" points="-4,4 -4,-616 2146.2872,-616 2146.2872,4 -4,4"/>
<!-- Jul -->
<g id="node1" class="node">
<title>Jul</title>
<ellipse fill="#ffa500" stroke="#000000" cx="46.8449" cy="-378" rx="28.6953" ry="18"/>
<text text-anchor="middle" x="46.8449" y="-374.3" font-family="Times,serif" font-size="14.00" fill="#000000">July</text>
</g>
<!-- Aug -->
<g id="node2" class="node">
<title>Aug</title>
<ellipse fill="#ffa500" stroke="#000000" cx="71.8449" cy="-234" rx="44.393" ry="18"/>
<text text-anchor="middle" x="71.8449" y="-230.3" font-family="Times,serif" font-size="14.00" fill="#000000">August</text>
</g>
<!-- Sep -->
<g id="node3" class="node">
<title>Sep</title>
<ellipse fill="#ffa500" stroke="#000000" cx="317.8449" cy="-162" rx="61.99" ry="18"/>
<text text-anchor="middle" x="317.8449" y="-158.3" font-family="Times,serif" font-size="14.00" fill="#000000">September</text>
</g>
<!-- Later -->
<g id="node4" class="node">
<title>Later</title>
<ellipse fill="#ffa500" stroke="#000000" cx="504.8449" cy="-90" rx="61.99" ry="18"/>
<text text-anchor="middle" x="504.8449" y="-86.3" font-family="Times,serif" font-size="14.00" fill="#000000">Beyond Q3</text>
</g>
<!-- PSS_Spec -->
<g id="node5" class="node">
<title>PSS_Spec</title>
<ellipse fill="#c0c0c0" stroke="#000000" cx="726.8449" cy="-450" rx="60.3893" ry="18"/>
<text text-anchor="middle" x="726.8449" y="-446.3" font-family="Times,serif" font-size="14.00" fill="#000000">PSS Spec?</text>
</g>
<!-- MA1 -->
<g id="node8" class="node">
<title>MA1</title>
<ellipse fill="#add8e6" stroke="#000000" cx="310.8449" cy="-378" rx="217.9616" ry="18"/>
<text text-anchor="middle" x="310.8449" y="-374.3" font-family="Times,serif" font-size="14.00" fill="#000000">MA1. Light PSS specification and MVP/POC</text>
</g>
<!-- PSS_Spec&#45;&gt;MA1 -->
<g id="edge3" class="edge">
<title>PSS_Spec&#45;&gt;MA1</title>
<path fill="none" stroke="#000000" d="M674.5794,-440.9541C609.6783,-429.7212 497.4451,-410.2962 414.7672,-395.9866"/>
<polygon fill="#000000" stroke="#000000" points="415.2866,-392.5245 404.8362,-394.2677 414.0928,-399.422 415.2866,-392.5245"/>
</g>
<!-- BZZ_Spec -->
<g id="node6" class="node">
<title>BZZ_Spec</title>
<ellipse fill="#c0c0c0" stroke="#000000" cx="1702.8449" cy="-450" rx="61.1893" ry="18"/>
<text text-anchor="middle" x="1702.8449" y="-446.3" font-family="Times,serif" font-size="14.00" fill="#000000">BZZ Spec?</text>
</g>
<!-- MB4 -->
<g id="node11" class="node">
<title>MB4</title>
<ellipse fill="#add8e6" stroke="#000000" cx="1816.8449" cy="-378" rx="217.9616" ry="18"/>
<text text-anchor="middle" x="1816.8449" y="-374.3" font-family="Times,serif" font-size="14.00" fill="#000000">MB4. Light BZZ specification and MVP/POC</text>
</g>
<!-- BZZ_Spec&#45;&gt;MB4 -->
<g id="edge5" class="edge">
<title>BZZ_Spec&#45;&gt;MB4</title>
<path fill="none" stroke="#000000" d="M1728.7132,-433.6621C1743.8175,-424.1226 1763.1288,-411.926 1779.8227,-401.3824"/>
<polygon fill="#000000" stroke="#000000" points="1781.6919,-404.3415 1788.2778,-396.0423 1777.9539,-398.4231 1781.6919,-404.3415"/>
</g>
<!-- M0 -->
<g id="node7" class="node">
<title>M0</title>
<ellipse fill="#add8e6" stroke="#000000" cx="1746.8449" cy="-522" rx="213.6622" ry="18"/>
<text text-anchor="middle" x="1746.8449" y="-518.3" font-family="Times,serif" font-size="14.00" fill="#000000">M0. Requirements, milestones and timeline</text>
</g>
<!-- M0&#45;&gt;PSS_Spec -->
<g id="edge2" class="edge">
<title>M0&#45;&gt;PSS_Spec</title>
<path fill="none" stroke="#000000" d="M1581.5584,-510.5643C1425.2351,-499.7188 1184.0764,-482.9107 974.8449,-468 914.3177,-463.6866 845.489,-458.6831 795.7239,-455.0479"/>
<polygon fill="#000000" stroke="#000000" points="795.9473,-451.555 785.7188,-454.3167 795.437,-458.5363 795.9473,-451.555"/>
</g>
<!-- M0&#45;&gt;BZZ_Spec -->
<g id="edge4" class="edge">
<title>M0&#45;&gt;BZZ_Spec</title>
<path fill="none" stroke="#000000" d="M1735.7418,-503.8314C1730.7011,-495.5829 1724.6392,-485.6635 1719.0999,-476.5992"/>
<polygon fill="#000000" stroke="#000000" points="1721.993,-474.6212 1713.792,-467.9134 1716.02,-478.2713 1721.993,-474.6212"/>
</g>
<!-- M0&#45;&gt;MB4 -->
<g id="edge12" class="edge">
<title>M0&#45;&gt;MB4</title>
<path fill="none" stroke="#000000" d="M1755.7104,-503.7623C1767.8077,-478.8764 1789.5827,-434.0822 1803.6146,-405.2165"/>
<polygon fill="#000000" stroke="#000000" points="1806.8271,-406.6135 1808.0513,-396.0896 1800.5315,-403.5531 1806.8271,-406.6135"/>
</g>
<!-- MC8 -->
<g id="node15" class="node">
<title>MC8</title>
<ellipse fill="#add8e6" stroke="#000000" cx="1279.8449" cy="-450" rx="296.2475" ry="18"/>
<text text-anchor="middle" x="1279.8449" y="-446.3" font-family="Times,serif" font-size="14.00" fill="#000000">MC8. (Parallel track) Incentives for PSS and service network</text>
</g>
<!-- M0&#45;&gt;MC8 -->
<g id="edge18" class="edge">
<title>M0&#45;&gt;MC8</title>
<path fill="none" stroke="#000000" d="M1644.3597,-506.1993C1571.8977,-495.0274 1474.5468,-480.0183 1398.6792,-468.3214"/>
<polygon fill="#000000" stroke="#000000" points="1399.011,-464.8312 1388.5945,-466.7665 1397.9443,-471.7495 1399.011,-464.8312"/>
</g>
<!-- user_server -->
<g id="node32" class="node">
<title>user_server</title>
<ellipse fill="none" stroke="#000000" cx="1885.8449" cy="-450" rx="65.7887" ry="18"/>
<text text-anchor="middle" x="1885.8449" y="-446.3" font-family="Times,serif" font-size="14.00" fill="#000000">user_server</text>
</g>
<!-- M0&#45;&gt;user_server -->
<g id="edge29" class="edge">
<title>M0&#45;&gt;user_server</title>
<path fill="none" stroke="#000000" d="M1781.2044,-504.2022C1800.7252,-494.0908 1825.2651,-481.3795 1845.6732,-470.8083"/>
<polygon fill="#000000" stroke="#000000" points="1847.4566,-473.8263 1854.7263,-466.119 1844.237,-467.6107 1847.4566,-473.8263"/>
</g>
<!-- user_server_pss -->
<g id="node33" class="node">
<title>user_server_pss</title>
<ellipse fill="none" stroke="#000000" cx="2055.8449" cy="-450" rx="86.3847" ry="18"/>
<text text-anchor="middle" x="2055.8449" y="-446.3" font-family="Times,serif" font-size="14.00" fill="#000000">user_server_pss</text>
</g>
<!-- M0&#45;&gt;user_server_pss -->
<g id="edge30" class="edge">
<title>M0&#45;&gt;user_server_pss</title>
<path fill="none" stroke="#000000" d="M1819.6823,-505.0282C1870.5946,-493.1651 1938.1095,-477.4335 1987.9085,-465.8298"/>
<polygon fill="#000000" stroke="#000000" points="1988.9927,-469.171 1997.9375,-463.493 1987.4041,-462.3537 1988.9927,-469.171"/>
</g>
<!-- MA2 -->
<g id="node9" class="node">
<title>MA2</title>
<ellipse fill="#add8e6" stroke="#000000" cx="310.8449" cy="-306" rx="139.1754" ry="18"/>
<text text-anchor="middle" x="310.8449" y="-302.3" font-family="Times,serif" font-size="14.00" fill="#000000">MA2: PSS Network Testing</text>
</g>
<!-- MA1&#45;&gt;MA2 -->
<g id="edge7" class="edge">
<title>MA1&#45;&gt;MA2</title>
<path fill="none" stroke="#000000" d="M310.8449,-359.8314C310.8449,-352.131 310.8449,-342.9743 310.8449,-334.4166"/>
<polygon fill="#000000" stroke="#000000" points="314.345,-334.4132 310.8449,-324.4133 307.345,-334.4133 314.345,-334.4132"/>
</g>
<!-- user_pss -->
<g id="node19" class="node">
<title>user_pss</title>
<ellipse fill="none" stroke="#000000" cx="449.8449" cy="-162" rx="51.9908" ry="18"/>
<text text-anchor="middle" x="449.8449" y="-158.3" font-family="Times,serif" font-size="14.00" fill="#000000">user_pss</text>
</g>
<!-- MA1&#45;&gt;user_pss -->
<g id="edge6" class="edge">
<title>MA1&#45;&gt;user_pss</title>
<path fill="none" stroke="#000000" d="M241.5365,-360.9361C207.8763,-351.1042 172.6052,-337.9509 162.8449,-324 135.3287,-284.6698 131.6875,-252.5133 162.8449,-216 195.8557,-177.3146 339.2426,-191.2198 388.8449,-180 392.9643,-179.0682 397.2145,-178.013 401.4644,-176.8921"/>
<polygon fill="#000000" stroke="#000000" points="402.6035,-180.2089 411.3189,-174.1845 400.7489,-173.4591 402.6035,-180.2089"/>
</g>
<!-- user_discover -->
<g id="node28" class="node">
<title>user_discover</title>
<ellipse fill="none" stroke="#000000" cx="542.8449" cy="-306" rx="75.2868" ry="18"/>
<text text-anchor="middle" x="542.8449" y="-302.3" font-family="Times,serif" font-size="14.00" fill="#000000">user_discover</text>
</g>
<!-- MA1&#45;&gt;user_discover -->
<g id="edge25" class="edge">
<title>MA1&#45;&gt;user_discover</title>
<path fill="none" stroke="#000000" d="M367.0056,-360.5708C403.289,-349.3104 450.3284,-334.712 486.6237,-323.4479"/>
<polygon fill="#000000" stroke="#000000" points="488.0449,-326.6716 496.5581,-320.3649 485.97,-319.9862 488.0449,-326.6716"/>
</g>
<!-- user_spec -->
<g id="node31" class="node">
<title>user_spec</title>
<ellipse fill="none" stroke="#000000" cx="57.8449" cy="-306" rx="57.6901" ry="18"/>
<text text-anchor="middle" x="57.8449" y="-302.3" font-family="Times,serif" font-size="14.00" fill="#000000">user_spec</text>
</g>
<!-- MA1&#45;&gt;user_spec -->
<g id="edge28" class="edge">
<title>MA1&#45;&gt;user_spec</title>
<path fill="none" stroke="#000000" d="M249.9231,-360.6626C207.3735,-348.5536 151.1418,-332.5509 110.5265,-320.9924"/>
<polygon fill="#000000" stroke="#000000" points="111.391,-317.5995 100.8149,-318.2286 109.475,-324.3322 111.391,-317.5995"/>
</g>
<!-- MA3 -->
<g id="node10" class="node">
<title>MA3</title>
<ellipse fill="#add8e6" stroke="#000000" cx="778.8449" cy="-234" rx="237.4581" ry="18"/>
<text text-anchor="middle" x="778.8449" y="-230.3" font-family="Times,serif" font-size="14.00" fill="#000000">MA3. PSS Production Implementation on mobile</text>
</g>
<!-- MA2&#45;&gt;MA3 -->
<g id="edge9" class="edge">
<title>MA2&#45;&gt;MA3</title>
<path fill="none" stroke="#000000" d="M400.5262,-292.2029C475.23,-280.71 582.1291,-264.264 663.2503,-251.7838"/>
<polygon fill="#000000" stroke="#000000" points="664.1614,-255.1849 673.5129,-250.2049 663.097,-248.2663 664.1614,-255.1849"/>
</g>
<!-- user_networktest -->
<g id="node20" class="node">
<title>user_networktest</title>
<ellipse fill="none" stroke="#000000" cx="264.8449" cy="-234" rx="92.8835" ry="18"/>
<text text-anchor="middle" x="264.8449" y="-230.3" font-family="Times,serif" font-size="14.00" fill="#000000">user_networktest</text>
</g>
<!-- MA2&#45;&gt;user_networktest -->
<g id="edge8" class="edge">
<title>MA2&#45;&gt;user_networktest</title>
<path fill="none" stroke="#000000" d="M299.2371,-287.8314C293.9673,-279.5829 287.6299,-269.6635 281.8388,-260.5992"/>
<polygon fill="#000000" stroke="#000000" points="284.6229,-258.456 276.2895,-251.9134 278.724,-262.2248 284.6229,-258.456"/>
</g>
<!-- M9 -->
<g id="node16" class="node">
<title>M9</title>
<ellipse fill="#add8e6" stroke="#000000" cx="835.8449" cy="-90" rx="251.5554" ry="18"/>
<text text-anchor="middle" x="835.8449" y="-86.3" font-family="Times,serif" font-size="14.00" fill="#000000">M9. Adaptive options in production implementation</text>
</g>
<!-- MA3&#45;&gt;M9 -->
<g id="edge19" class="edge">
<title>MA3&#45;&gt;M9</title>
<path fill="none" stroke="#000000" d="M780.5123,-215.7557C782.7125,-197.0929 787.5814,-167.5734 797.8449,-144 801.9884,-134.483 807.9547,-124.9427 813.936,-116.5863"/>
<polygon fill="#000000" stroke="#000000" points="816.9059,-118.4594 820.0988,-108.3571 811.3029,-114.2633 816.9059,-118.4594"/>
</g>
<!-- MA3&#45;&gt;user_pss -->
<g id="edge31" class="edge">
<title>MA3&#45;&gt;user_pss</title>
<path fill="none" stroke="#000000" d="M700.8765,-216.937C640.1817,-203.6543 557.516,-185.5633 503.9149,-173.833"/>
<polygon fill="#000000" stroke="#000000" points="504.4442,-170.366 493.9272,-171.6472 502.9477,-177.2042 504.4442,-170.366"/>
</g>
<!-- user_spam -->
<g id="node30" class="node">
<title>user_spam</title>
<ellipse fill="none" stroke="#000000" cx="867.8449" cy="-162" rx="61.1893" ry="18"/>
<text text-anchor="middle" x="867.8449" y="-158.3" font-family="Times,serif" font-size="14.00" fill="#000000">user_spam</text>
</g>
<!-- MA3&#45;&gt;user_spam -->
<g id="edge27" class="edge">
<title>MA3&#45;&gt;user_spam</title>
<path fill="none" stroke="#000000" d="M801.3033,-215.8314C812.6838,-206.6247 826.6373,-195.3365 838.8222,-185.479"/>
<polygon fill="#000000" stroke="#000000" points="841.3489,-187.9369 846.9221,-178.9263 836.9463,-182.4947 841.3489,-187.9369"/>
</g>
<!-- MB5 -->
<g id="node12" class="node">
<title>MB5</title>
<ellipse fill="#add8e6" stroke="#000000" cx="1787.8449" cy="-306" rx="139.9756" ry="18"/>
<text text-anchor="middle" x="1787.8449" y="-302.3" font-family="Times,serif" font-size="14.00" fill="#000000">MB5. BZZ Network Testing</text>
</g>
<!-- MB4&#45;&gt;MB5 -->
<g id="edge13" class="edge">
<title>MB4&#45;&gt;MB5</title>
<path fill="none" stroke="#000000" d="M1809.5269,-359.8314C1806.3572,-351.9617 1802.5749,-342.5712 1799.0635,-333.8533"/>
<polygon fill="#000000" stroke="#000000" points="1802.244,-332.3815 1795.2613,-324.4133 1795.7509,-334.9968 1802.244,-332.3815"/>
</g>
<!-- MB6 -->
<g id="node13" class="node">
<title>MB6</title>
<ellipse fill="#add8e6" stroke="#000000" cx="1773.8449" cy="-234" rx="212.5623" ry="18"/>
<text text-anchor="middle" x="1773.8449" y="-230.3" font-family="Times,serif" font-size="14.00" fill="#000000">MB6. BZZ GET Production Implementation</text>
</g>
<!-- MB5&#45;&gt;MB6 -->
<g id="edge14" class="edge">
<title>MB5&#45;&gt;MB6</title>
<path fill="none" stroke="#000000" d="M1784.3121,-287.8314C1782.8148,-280.131 1781.0343,-270.9743 1779.3703,-262.4166"/>
<polygon fill="#000000" stroke="#000000" points="1782.7697,-261.5614 1777.4252,-252.4133 1775.8983,-262.8975 1782.7697,-261.5614"/>
</g>
<!-- MB7 -->
<g id="node14" class="node">
<title>MB7</title>
<ellipse fill="#add8e6" stroke="#000000" cx="1773.8449" cy="-162" rx="211.7625" ry="18"/>
<text text-anchor="middle" x="1773.8449" y="-158.3" font-family="Times,serif" font-size="14.00" fill="#000000">MB7. BZZ Post Production Implementation</text>
</g>
<!-- MB6&#45;&gt;MB7 -->
<g id="edge15" class="edge">
<title>MB6&#45;&gt;MB7</title>
<path fill="none" stroke="#000000" d="M1773.8449,-215.8314C1773.8449,-208.131 1773.8449,-198.9743 1773.8449,-190.4166"/>
<polygon fill="#000000" stroke="#000000" points="1777.345,-190.4132 1773.8449,-180.4133 1770.345,-190.4133 1777.345,-190.4132"/>
</g>
<!-- user_readonly -->
<g id="node23" class="node">
<title>user_readonly</title>
<ellipse fill="none" stroke="#000000" cx="1466.8449" cy="-162" rx="76.8869" ry="18"/>
<text text-anchor="middle" x="1466.8449" y="-158.3" font-family="Times,serif" font-size="14.00" fill="#000000">user_readonly</text>
</g>
<!-- MB6&#45;&gt;user_readonly -->
<g id="edge16" class="edge">
<title>MB6&#45;&gt;user_readonly</title>
<path fill="none" stroke="#000000" d="M1701.4789,-217.0282C1649.9011,-204.9317 1581.1727,-188.813 1531.4423,-177.1499"/>
<polygon fill="#000000" stroke="#000000" points="1531.9813,-173.6814 1521.4463,-174.8055 1530.3829,-180.4965 1531.9813,-173.6814"/>
</g>
<!-- MB7&#45;&gt;M9 -->
<g id="edge20" class="edge">
<title>MB7&#45;&gt;M9</title>
<path fill="none" stroke="#000000" d="M1621.3847,-149.4601C1598.4179,-147.6065 1575.0078,-145.7371 1552.8449,-144 1372.368,-129.8542 1166.2781,-114.4064 1021.5092,-103.6711"/>
<polygon fill="#000000" stroke="#000000" points="1021.4245,-100.1553 1011.1931,-102.9064 1020.9069,-107.1361 1021.4245,-100.1553"/>
</g>
<!-- user_readwrite -->
<g id="node24" class="node">
<title>user_readwrite</title>
<ellipse fill="none" stroke="#000000" cx="1773.8449" cy="-90" rx="81.4863" ry="18"/>
<text text-anchor="middle" x="1773.8449" y="-86.3" font-family="Times,serif" font-size="14.00" fill="#000000">user_readwrite</text>
</g>
<!-- MB7&#45;&gt;user_readwrite -->
<g id="edge17" class="edge">
<title>MB7&#45;&gt;user_readwrite</title>
<path fill="none" stroke="#000000" d="M1773.8449,-143.8314C1773.8449,-136.131 1773.8449,-126.9743 1773.8449,-118.4166"/>
<polygon fill="#000000" stroke="#000000" points="1777.345,-118.4132 1773.8449,-108.4133 1770.345,-118.4133 1777.345,-118.4132"/>
</g>
<!-- user_pay_pss_semi -->
<g id="node25" class="node">
<title>user_pay_pss_semi</title>
<ellipse fill="none" stroke="#000000" cx="1133.8449" cy="-234" rx="100.1823" ry="18"/>
<text text-anchor="middle" x="1133.8449" y="-230.3" font-family="Times,serif" font-size="14.00" fill="#000000">user_pay_pss_semi</text>
</g>
<!-- MC8&#45;&gt;user_pay_pss_semi -->
<g id="edge22" class="edge">
<title>MC8&#45;&gt;user_pay_pss_semi</title>
<path fill="none" stroke="#000000" d="M1213.0542,-432.3801C1180.9048,-422.433 1147.2936,-409.3465 1137.8449,-396 1109.8542,-356.4627 1117.7074,-296.8226 1125.8498,-262.0091"/>
<polygon fill="#000000" stroke="#000000" points="1129.3092,-262.6026 1128.3466,-252.0516 1122.5194,-260.9 1129.3092,-262.6026"/>
</g>
<!-- user_pay_pss_routed -->
<g id="node26" class="node">
<title>user_pay_pss_routed</title>
<ellipse fill="none" stroke="#000000" cx="1255.8449" cy="-378" rx="108.5808" ry="18"/>
<text text-anchor="middle" x="1255.8449" y="-374.3" font-family="Times,serif" font-size="14.00" fill="#000000">user_pay_pss_routed</text>
</g>
<!-- MC8&#45;&gt;user_pay_pss_routed -->
<g id="edge23" class="edge">
<title>MC8&#45;&gt;user_pay_pss_routed</title>
<path fill="none" stroke="#000000" d="M1273.7887,-431.8314C1271.1936,-424.0463 1268.1025,-414.7729 1265.2231,-406.1347"/>
<polygon fill="#000000" stroke="#000000" points="1268.4654,-404.7933 1261.9826,-396.4133 1261.8246,-407.0069 1268.4654,-404.7933"/>
</g>
<!-- user_pay_pss_dark -->
<g id="node27" class="node">
<title>user_pay_pss_dark</title>
<ellipse fill="none" stroke="#000000" cx="1481.8449" cy="-378" rx="99.3824" ry="18"/>
<text text-anchor="middle" x="1481.8449" y="-374.3" font-family="Times,serif" font-size="14.00" fill="#000000">user_pay_pss_dark</text>
</g>
<!-- MC8&#45;&gt;user_pay_pss_dark -->
<g id="edge24" class="edge">
<title>MC8&#45;&gt;user_pay_pss_dark</title>
<path fill="none" stroke="#000000" d="M1329.7775,-432.2022C1359.2958,-421.6809 1396.7116,-408.3445 1427.0424,-397.5335"/>
<polygon fill="#000000" stroke="#000000" points="1428.3778,-400.7733 1436.6222,-394.119 1426.0275,-394.1797 1428.3778,-400.7733"/>
</g>
<!-- M10 -->
<g id="node17" class="node">
<title>M10</title>
<ellipse fill="#add8e6" stroke="#000000" cx="1332.8449" cy="-90" rx="227.4596" ry="18"/>
<text text-anchor="middle" x="1332.8449" y="-86.3" font-family="Times,serif" font-size="14.00" fill="#000000">M10: Incentives in production implementation</text>
</g>
<!-- M9&#45;&gt;M10 -->
<g id="edge21" class="edge">
<title>M9&#45;&gt;M10</title>
<path fill="none" stroke="#000000" d="M1087.7423,-90C1090.0761,-90 1092.4098,-90 1094.7435,-90"/>
<polygon fill="#000000" stroke="#000000" points="1094.9761,-93.5001 1104.9761,-90 1094.9761,-86.5001 1094.9761,-93.5001"/>
</g>
<!-- user_adaptive -->
<g id="node34" class="node">
<title>user_adaptive</title>
<ellipse fill="none" stroke="#000000" cx="835.8449" cy="-18" rx="76.0865" ry="18"/>
<text text-anchor="middle" x="835.8449" y="-14.3" font-family="Times,serif" font-size="14.00" fill="#000000">user_adaptive</text>
</g>
<!-- M9&#45;&gt;user_adaptive -->
<g id="edge32" class="edge">
<title>M9&#45;&gt;user_adaptive</title>
<path fill="none" stroke="#000000" d="M835.8449,-71.8314C835.8449,-64.131 835.8449,-54.9743 835.8449,-46.4166"/>
<polygon fill="#000000" stroke="#000000" points="839.345,-46.4132 835.8449,-36.4133 832.345,-46.4133 839.345,-46.4132"/>
</g>
<!-- user_requirements -->
<g id="node18" class="node">
<title>user_requirements</title>
<ellipse fill="none" stroke="#000000" cx="1746.8449" cy="-594" rx="98.5829" ry="18"/>
<text text-anchor="middle" x="1746.8449" y="-590.3" font-family="Times,serif" font-size="14.00" fill="#000000">user_requirements</text>
</g>
<!-- user_requirements&#45;&gt;M0 -->
<g id="edge1" class="edge">
<title>user_requirements&#45;&gt;M0</title>
<path fill="none" stroke="#000000" d="M1746.8449,-575.8314C1746.8449,-568.131 1746.8449,-558.9743 1746.8449,-550.4166"/>
<polygon fill="#000000" stroke="#000000" points="1750.345,-550.4132 1746.8449,-540.4133 1743.345,-550.4133 1750.345,-550.4132"/>
</g>
<!-- user_make -->
<g id="node21" class="node">
<title>user_make</title>
<ellipse fill="none" stroke="#000000" cx="778.8449" cy="-378" rx="61.99" ry="18"/>
<text text-anchor="middle" x="778.8449" y="-374.3" font-family="Times,serif" font-size="14.00" fill="#000000">user_make</text>
</g>
<!-- user_mobile -->
<g id="node22" class="node">
<title>user_mobile</title>
<ellipse fill="none" stroke="#000000" cx="778.8449" cy="-306" rx="67.6881" ry="18"/>
<text text-anchor="middle" x="778.8449" y="-302.3" font-family="Times,serif" font-size="14.00" fill="#000000">user_mobile</text>
</g>
<!-- user_make&#45;&gt;user_mobile -->
<g id="edge10" class="edge">
<title>user_make&#45;&gt;user_mobile</title>
<path fill="none" stroke="#000000" d="M778.8449,-359.8314C778.8449,-352.131 778.8449,-342.9743 778.8449,-334.4166"/>
<polygon fill="#000000" stroke="#000000" points="782.345,-334.4132 778.8449,-324.4133 775.345,-334.4133 782.345,-334.4132"/>
</g>
<!-- user_mobile&#45;&gt;MA3 -->
<g id="edge11" class="edge">
<title>user_mobile&#45;&gt;MA3</title>
<path fill="none" stroke="#000000" d="M778.8449,-287.8314C778.8449,-280.131 778.8449,-270.9743 778.8449,-262.4166"/>
<polygon fill="#000000" stroke="#000000" points="782.345,-262.4132 778.8449,-252.4133 775.345,-262.4133 782.345,-262.4132"/>
</g>
<!-- user_pss_bits -->
<g id="node29" class="node">
<title>user_pss_bits</title>
<ellipse fill="none" stroke="#000000" cx="449.8449" cy="-234" rx="74.187" ry="18"/>
<text text-anchor="middle" x="449.8449" y="-230.3" font-family="Times,serif" font-size="14.00" fill="#000000">user_pss_bits</text>
</g>
<!-- user_pss_bits&#45;&gt;user_pss -->
<g id="edge26" class="edge">
<title>user_pss_bits&#45;&gt;user_pss</title>
<path fill="none" stroke="#000000" d="M449.8449,-215.8314C449.8449,-208.131 449.8449,-198.9743 449.8449,-190.4166"/>
<polygon fill="#000000" stroke="#000000" points="453.345,-190.4132 449.8449,-180.4133 446.345,-190.4133 453.345,-190.4132"/>
</g>
</g>
</svg>
