<?xml version="1.0" encoding="UTF-8" standalone="no"?>
<!DOCTYPE svg PUBLIC "-//W3C//DTD SVG 1.1//EN"
 "http://www.w3.org/Graphics/SVG/1.1/DTD/svg11.dtd">
<!-- Generated by graphviz version 2.40.1 (0)
 -->
<!-- Title: %3 Pages: 1 -->
<svg width="1856pt" height="476pt"
 viewBox="0.00 0.00 1855.69 476.00" xmlns="http://www.w3.org/2000/svg" xmlns:xlink="http://www.w3.org/1999/xlink">
<g id="graph0" class="graph" transform="scale(1 1) rotate(0) translate(4 472)">
<title>%3</title>
<polygon fill="#ffffff" stroke="transparent" points="-4,4 -4,-472 1851.6886,-472 1851.6886,4 -4,4"/>
<!-- PSS -->
<g id="node1" class="node">
<title>PSS</title>
<ellipse fill="#000000" stroke="#000000" cx="293.9418" cy="-162" rx="53.8905" ry="18"/>
<text text-anchor="middle" x="293.9418" y="-158.3" font-family="Times,serif" font-size="14.00" fill="#ffffff">PSS spec</text>
</g>
<!-- pssclient -->
<g id="node17" class="node">
<title>pssclient</title>
<ellipse fill="none" stroke="#000000" cx="293.9418" cy="-90" rx="102.0819" ry="18"/>
<text text-anchor="middle" x="293.9418" y="-86.3" font-family="Times,serif" font-size="14.00" fill="#000000">PSS adaptive client</text>
</g>
<!-- PSS&#45;&gt;pssclient -->
<g id="edge32" class="edge">
<title>PSS&#45;&gt;pssclient</title>
<path fill="none" stroke="#000000" d="M293.9418,-143.8314C293.9418,-136.131 293.9418,-126.9743 293.9418,-118.4166"/>
<polygon fill="#000000" stroke="#000000" points="297.4419,-118.4132 293.9418,-108.4133 290.4419,-118.4133 297.4419,-118.4132"/>
</g>
<!-- BZZ -->
<g id="node2" class="node">
<title>BZZ</title>
<ellipse fill="#000000" stroke="#000000" cx="1441.9418" cy="-162" rx="54.6905" ry="18"/>
<text text-anchor="middle" x="1441.9418" y="-158.3" font-family="Times,serif" font-size="14.00" fill="#ffffff">BZZ spec</text>
</g>
<!-- bzzclientread -->
<g id="node14" class="node">
<title>bzzclientread</title>
<ellipse fill="none" stroke="#000000" cx="1293.9418" cy="-90" rx="126.1777" ry="18"/>
<text text-anchor="middle" x="1293.9418" y="-86.3" font-family="Times,serif" font-size="14.00" fill="#000000">BZZ adaptive client read</text>
</g>
<!-- BZZ&#45;&gt;bzzclientread -->
<g id="edge28" class="edge">
<title>BZZ&#45;&gt;bzzclientread</title>
<path fill="none" stroke="#000000" d="M1411.2761,-147.0816C1390.2724,-136.8636 1362.0773,-123.147 1338.5901,-111.7208"/>
<polygon fill="#000000" stroke="#000000" points="1340.037,-108.5326 1329.5135,-107.3052 1336.9747,-114.8272 1340.037,-108.5326"/>
</g>
<!-- bzzclientrw -->
<g id="node15" class="node">
<title>bzzclientrw</title>
<ellipse fill="none" stroke="#000000" cx="1588.9418" cy="-90" rx="150.5735" ry="18"/>
<text text-anchor="middle" x="1588.9418" y="-86.3" font-family="Times,serif" font-size="14.00" fill="#000000">BZZ adaptive client readwrite</text>
</g>
<!-- BZZ&#45;&gt;bzzclientrw -->
<g id="edge30" class="edge">
<title>BZZ&#45;&gt;bzzclientrw</title>
<path fill="none" stroke="#000000" d="M1472.7578,-146.9064C1493.3283,-136.8311 1520.725,-123.4123 1543.7481,-112.1357"/>
<polygon fill="#000000" stroke="#000000" points="1545.5448,-115.153 1552.9859,-107.611 1542.4657,-108.8665 1545.5448,-115.153"/>
</g>
<!-- lightextension -->
<g id="node3" class="node">
<title>lightextension</title>
<ellipse fill="#ffff00" stroke="#000000" cx="1289.9418" cy="-234" rx="171.6696" ry="18"/>
<text text-anchor="middle" x="1289.9418" y="-230.3" font-family="Times,serif" font-size="14.00" fill="#000000">direct retrieve and store protocol?</text>
</g>
<!-- lightextension&#45;&gt;BZZ -->
<g id="edge22" class="edge">
<title>lightextension&#45;&gt;BZZ</title>
<path fill="none" stroke="#000000" d="M1327.1251,-216.3868C1349.5266,-205.7756 1378.0786,-192.251 1401.1057,-181.3434"/>
<polygon fill="#000000" stroke="#000000" points="1402.7394,-184.4424 1410.2785,-176.9984 1399.7428,-178.1162 1402.7394,-184.4424"/>
</g>
<!-- discovery -->
<g id="node4" class="node">
<title>discovery</title>
<ellipse fill="none" stroke="#000000" cx="1003.9418" cy="-234" rx="96.6831" ry="18"/>
<text text-anchor="middle" x="1003.9418" y="-230.3" font-family="Times,serif" font-size="14.00" fill="#000000">discovery protocol</text>
</g>
<!-- discovery&#45;&gt;BZZ -->
<g id="edge14" class="edge">
<title>discovery&#45;&gt;BZZ</title>
<path fill="none" stroke="#000000" d="M1075.0932,-221.7134C1086.4131,-219.7843 1097.9959,-217.8257 1108.9418,-216 1204.6902,-200.0299 1316.0396,-182.104 1382.6547,-171.4488"/>
<polygon fill="#000000" stroke="#000000" points="1383.2298,-174.9014 1392.5518,-169.8666 1382.1247,-167.9892 1383.2298,-174.9014"/>
</g>
<!-- handshake -->
<g id="node5" class="node">
<title>handshake</title>
<ellipse fill="none" stroke="#000000" cx="624.9418" cy="-306" rx="102.8821" ry="18"/>
<text text-anchor="middle" x="624.9418" y="-302.3" font-family="Times,serif" font-size="14.00" fill="#000000">handshake protocol</text>
</g>
<!-- adaptivemode -->
<g id="node6" class="node">
<title>adaptivemode</title>
<ellipse fill="none" stroke="#000000" cx="548.9418" cy="-234" rx="120.4791" ry="18"/>
<text text-anchor="middle" x="548.9418" y="-230.3" font-family="Times,serif" font-size="14.00" fill="#000000">adaptive mode protocol</text>
</g>
<!-- handshake&#45;&gt;adaptivemode -->
<g id="edge3" class="edge">
<title>handshake&#45;&gt;adaptivemode</title>
<path fill="none" stroke="#000000" d="M606.1552,-288.2022C596.8378,-279.3752 585.429,-268.5669 575.2575,-258.9307"/>
<polygon fill="#000000" stroke="#000000" points="577.4422,-256.1792 567.7756,-251.8425 572.628,-261.2609 577.4422,-256.1792"/>
</g>
<!-- adaptivemode&#45;&gt;BZZ -->
<g id="edge11" class="edge">
<title>adaptivemode&#45;&gt;BZZ</title>
<path fill="none" stroke="#000000" d="M634.1909,-221.2701C648.7662,-219.3329 663.7736,-217.4874 677.9418,-216 936.4197,-188.8638 1245.5641,-171.6861 1377.3306,-165.079"/>
<polygon fill="#000000" stroke="#000000" points="1377.8275,-168.5587 1387.641,-164.5654 1377.4792,-161.5673 1377.8275,-168.5587"/>
</g>
<!-- pssprotocol -->
<g id="node7" class="node">
<title>pssprotocol</title>
<ellipse fill="none" stroke="#000000" cx="87.9418" cy="-234" rx="71.4873" ry="18"/>
<text text-anchor="middle" x="87.9418" y="-230.3" font-family="Times,serif" font-size="14.00" fill="#000000">PSS protocol</text>
</g>
<!-- pssprotocol&#45;&gt;PSS -->
<g id="edge7" class="edge">
<title>pssprotocol&#45;&gt;PSS</title>
<path fill="none" stroke="#000000" d="M130.126,-219.256C164.1261,-207.3725 211.9005,-190.6746 247.0867,-178.3765"/>
<polygon fill="#000000" stroke="#000000" points="248.3702,-181.6356 256.6554,-175.0321 246.0605,-175.0276 248.3702,-181.6356"/>
</g>
<!-- overlay -->
<g id="node8" class="node">
<title>overlay</title>
<ellipse fill="none" stroke="#000000" cx="838.9418" cy="-378" rx="118.0794" ry="18"/>
<text text-anchor="middle" x="838.9418" y="-374.3" font-family="Times,serif" font-size="14.00" fill="#000000">swarm overlay address</text>
</g>
<!-- overlay&#45;&gt;handshake -->
<g id="edge2" class="edge">
<title>overlay&#45;&gt;handshake</title>
<path fill="none" stroke="#000000" d="M790.1141,-361.572C758.0031,-350.7683 715.8496,-336.5858 682.1649,-325.2527"/>
<polygon fill="#000000" stroke="#000000" points="683.0491,-321.8574 672.455,-321.9858 680.8168,-328.492 683.0491,-321.8574"/>
</g>
<!-- stream -->
<g id="node12" class="node">
<title>stream</title>
<ellipse fill="none" stroke="#000000" cx="1458.9418" cy="-306" rx="85.2851" ry="18"/>
<text text-anchor="middle" x="1458.9418" y="-302.3" font-family="Times,serif" font-size="14.00" fill="#000000">stream protocol</text>
</g>
<!-- overlay&#45;&gt;stream -->
<g id="edge4" class="edge">
<title>overlay&#45;&gt;stream</title>
<path fill="none" stroke="#000000" d="M933.1064,-367.0647C1052.9655,-353.1456 1258.2836,-329.3022 1373.7066,-315.8983"/>
<polygon fill="#000000" stroke="#000000" points="1374.3774,-319.344 1383.9069,-314.7137 1373.5699,-312.3907 1374.3774,-319.344"/>
</g>
<!-- kademlia -->
<g id="node20" class="node">
<title>kademlia</title>
<ellipse fill="none" stroke="#000000" cx="838.9418" cy="-306" rx="53.0913" ry="18"/>
<text text-anchor="middle" x="838.9418" y="-302.3" font-family="Times,serif" font-size="14.00" fill="#000000">kademlia</text>
</g>
<!-- overlay&#45;&gt;kademlia -->
<g id="edge1" class="edge">
<title>overlay&#45;&gt;kademlia</title>
<path fill="none" stroke="#000000" d="M838.9418,-359.8314C838.9418,-352.131 838.9418,-342.9743 838.9418,-334.4166"/>
<polygon fill="#000000" stroke="#000000" points="842.4419,-334.4132 838.9418,-324.4133 835.4419,-334.4133 842.4419,-334.4132"/>
</g>
<!-- literaladdress -->
<g id="node9" class="node">
<title>literaladdress</title>
<ellipse fill="none" stroke="#000000" cx="92.9418" cy="-306" rx="92.8835" ry="18"/>
<text text-anchor="middle" x="92.9418" y="-302.3" font-family="Times,serif" font-size="14.00" fill="#000000">literal addressing</text>
</g>
<!-- psshandler -->
<g id="node11" class="node">
<title>psshandler</title>
<ellipse fill="none" stroke="#000000" cx="293.9418" cy="-234" rx="116.1796" ry="18"/>
<text text-anchor="middle" x="293.9418" y="-230.3" font-family="Times,serif" font-size="14.00" fill="#000000">PSS message handling</text>
</g>
<!-- literaladdress&#45;&gt;psshandler -->
<g id="edge8" class="edge">
<title>literaladdress&#45;&gt;psshandler</title>
<path fill="none" stroke="#000000" d="M137.5502,-290.0209C167.2125,-279.3956 206.3994,-265.3585 238.1261,-253.9937"/>
<polygon fill="#000000" stroke="#000000" points="239.4801,-257.2265 247.714,-250.5592 237.1194,-250.6365 239.4801,-257.2265"/>
</g>
<!-- proxaddress -->
<g id="node10" class="node">
<title>proxaddress</title>
<ellipse fill="none" stroke="#000000" cx="313.9418" cy="-306" rx="109.6807" ry="18"/>
<text text-anchor="middle" x="313.9418" y="-302.3" font-family="Times,serif" font-size="14.00" fill="#000000">proximity addressing</text>
</g>
<!-- proxaddress&#45;&gt;psshandler -->
<g id="edge9" class="edge">
<title>proxaddress&#45;&gt;psshandler</title>
<path fill="none" stroke="#000000" d="M308.8949,-287.8314C306.7324,-280.0463 304.1565,-270.7729 301.757,-262.1347"/>
<polygon fill="#000000" stroke="#000000" points="305.1054,-261.1117 299.0565,-252.4133 298.3607,-262.9852 305.1054,-261.1117"/>
</g>
<!-- psshandler&#45;&gt;PSS -->
<g id="edge10" class="edge">
<title>psshandler&#45;&gt;PSS</title>
<path fill="none" stroke="#000000" d="M293.9418,-215.8314C293.9418,-208.131 293.9418,-198.9743 293.9418,-190.4166"/>
<polygon fill="#000000" stroke="#000000" points="297.4419,-190.4132 293.9418,-180.4133 290.4419,-190.4133 297.4419,-190.4132"/>
</g>
<!-- stream&#45;&gt;BZZ -->
<g id="edge23" class="edge">
<title>stream&#45;&gt;BZZ</title>
<path fill="none" stroke="#000000" d="M1539.5806,-300.039C1606.7363,-293.1991 1694.832,-279.2165 1716.9418,-252 1727.0302,-239.5814 1727.1072,-228.3557 1716.9418,-216 1690.7394,-184.1521 1578.6457,-170.804 1505.9076,-165.4202"/>
<polygon fill="#000000" stroke="#000000" points="1506.1406,-161.928 1495.9182,-164.7123 1505.6457,-168.9105 1506.1406,-161.928"/>
</g>
<!-- stream&#45;&gt;lightextension -->
<g id="edge21" class="edge">
<title>stream&#45;&gt;lightextension</title>
<path fill="none" stroke="#000000" d="M1421.0149,-289.8418C1397.1795,-279.6871 1366.1545,-266.4693 1340.2726,-255.4427"/>
<polygon fill="#000000" stroke="#000000" points="1341.5644,-252.1887 1330.9926,-251.4891 1338.8207,-258.6286 1341.5644,-252.1887"/>
</g>
<!-- lightdiscoverystrategy -->
<g id="node13" class="node">
<title>lightdiscoverystrategy</title>
<ellipse fill="none" stroke="#000000" cx="1060.9418" cy="-306" rx="150.5735" ry="18"/>
<text text-anchor="middle" x="1060.9418" y="-302.3" font-family="Times,serif" font-size="14.00" fill="#000000">lightnode connection strategy</text>
</g>
<!-- lightdiscoverystrategy&#45;&gt;discovery -->
<g id="edge12" class="edge">
<title>lightdiscoverystrategy&#45;&gt;discovery</title>
<path fill="none" stroke="#000000" d="M1046.5582,-287.8314C1039.8922,-279.411 1031.8476,-269.2495 1024.5518,-260.0338"/>
<polygon fill="#000000" stroke="#000000" points="1027.0744,-257.5814 1018.1232,-251.9134 1021.5861,-261.9264 1027.0744,-257.5814"/>
</g>
<!-- bzzserver -->
<g id="node16" class="node">
<title>bzzserver</title>
<ellipse fill="none" stroke="#000000" cx="1440.9418" cy="-18" rx="105.8812" ry="18"/>
<text text-anchor="middle" x="1440.9418" y="-14.3" font-family="Times,serif" font-size="14.00" fill="#000000">BZZ adaptive server</text>
</g>
<!-- bzzclientread&#45;&gt;bzzserver -->
<g id="edge29" class="edge">
<title>bzzclientread&#45;&gt;bzzserver</title>
<path fill="none" stroke="#000000" d="M1329.5264,-72.5708C1349.8072,-62.6374 1375.3916,-50.1062 1396.9276,-39.558"/>
<polygon fill="#000000" stroke="#000000" points="1398.751,-42.5622 1406.1921,-35.0202 1395.6719,-36.2757 1398.751,-42.5622"/>
</g>
<!-- bzzclientrw&#45;&gt;bzzserver -->
<g id="edge31" class="edge">
<title>bzzclientrw&#45;&gt;bzzserver</title>
<path fill="none" stroke="#000000" d="M1552.7369,-72.3868C1532.386,-62.4864 1506.8221,-50.0499 1485.278,-39.569"/>
<polygon fill="#000000" stroke="#000000" points="1486.5311,-36.2865 1476.0076,-35.0591 1483.4688,-42.5811 1486.5311,-36.2865"/>
</g>
<!-- pssserver -->
<g id="node18" class="node">
<title>pssserver</title>
<ellipse fill="none" stroke="#000000" cx="293.9418" cy="-18" rx="105.0817" ry="18"/>
<text text-anchor="middle" x="293.9418" y="-14.3" font-family="Times,serif" font-size="14.00" fill="#000000">PSS adaptive server</text>
</g>
<!-- pssclient&#45;&gt;pssserver -->
<g id="edge33" class="edge">
<title>pssclient&#45;&gt;pssserver</title>
<path fill="none" stroke="#000000" d="M293.9418,-71.8314C293.9418,-64.131 293.9418,-54.9743 293.9418,-46.4166"/>
<polygon fill="#000000" stroke="#000000" points="297.4419,-46.4132 293.9418,-36.4133 290.4419,-46.4133 297.4419,-46.4132"/>
</g>
<!-- httpcap -->
<g id="node19" class="node">
<title>httpcap</title>
<ellipse fill="#ffff00" stroke="#000000" cx="1593.9418" cy="-234" rx="114.2798" ry="18"/>
<text text-anchor="middle" x="1593.9418" y="-230.3" font-family="Times,serif" font-size="14.00" fill="#000000">HTTP capabilities API</text>
</g>
<!-- httpcap&#45;&gt;BZZ -->
<g id="edge24" class="edge">
<title>httpcap&#45;&gt;BZZ</title>
<path fill="none" stroke="#000000" d="M1557.534,-216.7542C1534.9166,-206.0407 1505.8087,-192.2528 1482.461,-181.1933"/>
<polygon fill="#000000" stroke="#000000" points="1483.7064,-177.9105 1473.1707,-176.7927 1480.7098,-184.2367 1483.7064,-177.9105"/>
</g>
<!-- kademlia&#45;&gt;discovery -->
<g id="edge13" class="edge">
<title>kademlia&#45;&gt;discovery</title>
<path fill="none" stroke="#000000" d="M871.9354,-291.6028C896.1638,-281.0304 929.4319,-266.5134 956.5084,-254.6982"/>
<polygon fill="#000000" stroke="#000000" points="958.0369,-257.85 965.8025,-250.6426 955.2372,-251.4342 958.0369,-257.85"/>
</g>
<!-- forwarding -->
<g id="node21" class="node">
<title>forwarding</title>
<ellipse fill="none" stroke="#000000" cx="748.9418" cy="-234" rx="61.99" ry="18"/>
<text text-anchor="middle" x="748.9418" y="-230.3" font-family="Times,serif" font-size="14.00" fill="#000000">forwarding</text>
</g>
<!-- kademlia&#45;&gt;forwarding -->
<g id="edge5" class="edge">
<title>kademlia&#45;&gt;forwarding</title>
<path fill="none" stroke="#000000" d="M818.0677,-289.3008C806.311,-279.8954 791.435,-267.9946 778.4973,-257.6444"/>
<polygon fill="#000000" stroke="#000000" points="780.3227,-254.6226 770.3276,-251.1086 775.9498,-260.0887 780.3227,-254.6226"/>
</g>
<!-- hive -->
<g id="node22" class="node">
<title>hive</title>
<ellipse fill="none" stroke="#000000" cx="858.9418" cy="-234" rx="30.5947" ry="18"/>
<text text-anchor="middle" x="858.9418" y="-230.3" font-family="Times,serif" font-size="14.00" fill="#000000">hive</text>
</g>
<!-- kademlia&#45;&gt;hive -->
<g id="edge15" class="edge">
<title>kademlia&#45;&gt;hive</title>
<path fill="none" stroke="#000000" d="M843.9886,-287.8314C846.1844,-279.9266 848.8064,-270.4872 851.2372,-261.7365"/>
<polygon fill="#000000" stroke="#000000" points="854.6616,-262.4854 853.9658,-251.9134 847.917,-260.6118 854.6616,-262.4854"/>
</g>
<!-- forwarding&#45;&gt;PSS -->
<g id="edge6" class="edge">
<title>forwarding&#45;&gt;PSS</title>
<path fill="none" stroke="#000000" d="M703.6562,-221.7393C695.1493,-219.6582 686.3019,-217.6425 677.9418,-216 565.1645,-193.8426 432.0303,-177.2226 355.845,-168.6084"/>
<polygon fill="#000000" stroke="#000000" points="355.8086,-165.0825 345.4809,-167.4463 355.0286,-172.0389 355.8086,-165.0825"/>
</g>
<!-- hive&#45;&gt;BZZ -->
<g id="edge16" class="edge">
<title>hive&#45;&gt;BZZ</title>
<path fill="none" stroke="#000000" d="M881.9757,-221.8395C887.1119,-219.5642 892.617,-217.4489 897.9418,-216 986.9051,-191.7925 1254.1699,-173.2257 1377.855,-165.6809"/>
<polygon fill="#000000" stroke="#000000" points="1378.1683,-169.1684 1387.9387,-165.0709 1377.7455,-162.1812 1378.1683,-169.1684"/>
</g>
<!-- bmthasher -->
<g id="node23" class="node">
<title>bmthasher</title>
<ellipse fill="none" stroke="#000000" cx="1719.9418" cy="-450" rx="61.1893" ry="18"/>
<text text-anchor="middle" x="1719.9418" y="-446.3" font-family="Times,serif" font-size="14.00" fill="#000000">bmthasher</text>
</g>
<!-- filehasher -->
<g id="node24" class="node">
<title>filehasher</title>
<ellipse fill="none" stroke="#000000" cx="1628.9418" cy="-378" rx="57.3905" ry="18"/>
<text text-anchor="middle" x="1628.9418" y="-374.3" font-family="Times,serif" font-size="14.00" fill="#000000">filehasher</text>
</g>
<!-- bmthasher&#45;&gt;filehasher -->
<g id="edge17" class="edge">
<title>bmthasher&#45;&gt;filehasher</title>
<path fill="none" stroke="#000000" d="M1698.376,-432.937C1686.4765,-423.522 1671.5236,-411.6912 1658.5447,-401.4221"/>
<polygon fill="#000000" stroke="#000000" points="1660.3666,-398.4006 1650.3527,-394.9405 1656.0232,-403.8902 1660.3666,-398.4006"/>
</g>
<!-- feeds -->
<g id="node27" class="node">
<title>feeds</title>
<ellipse fill="none" stroke="#000000" cx="1811.9418" cy="-378" rx="35.9954" ry="18"/>
<text text-anchor="middle" x="1811.9418" y="-374.3" font-family="Times,serif" font-size="14.00" fill="#000000">feeds</text>
</g>
<!-- bmthasher&#45;&gt;feeds -->
<g id="edge26" class="edge">
<title>bmthasher&#45;&gt;feeds</title>
<path fill="none" stroke="#000000" d="M1741.7445,-432.937C1754.5054,-422.9502 1770.7395,-410.2453 1784.3809,-399.5693"/>
<polygon fill="#000000" stroke="#000000" points="1786.7674,-402.1461 1792.4854,-393.2267 1782.4532,-396.6336 1786.7674,-402.1461"/>
</g>
<!-- filehasher&#45;&gt;stream -->
<g id="edge20" class="edge">
<title>filehasher&#45;&gt;stream</title>
<path fill="none" stroke="#000000" d="M1594.5397,-363.4297C1569.1742,-352.6867 1534.3567,-337.9405 1506.3544,-326.0807"/>
<polygon fill="#000000" stroke="#000000" points="1507.7159,-322.8564 1497.1427,-322.1792 1504.9859,-329.3021 1507.7159,-322.8564"/>
</g>
<!-- storage -->
<g id="node25" class="node">
<title>storage</title>
<ellipse fill="none" stroke="#000000" cx="1730.9418" cy="-306" rx="46.2923" ry="18"/>
<text text-anchor="middle" x="1730.9418" y="-302.3" font-family="Times,serif" font-size="14.00" fill="#000000">storage</text>
</g>
<!-- filehasher&#45;&gt;storage -->
<g id="edge18" class="edge">
<title>filehasher&#45;&gt;storage</title>
<path fill="none" stroke="#000000" d="M1652.3426,-361.4817C1666.5357,-351.4631 1684.8097,-338.5638 1700.1651,-327.7247"/>
<polygon fill="#000000" stroke="#000000" points="1702.1998,-330.5726 1708.3511,-321.9463 1698.163,-324.8538 1702.1998,-330.5726"/>
</g>
<!-- storage&#45;&gt;BZZ -->
<g id="edge25" class="edge">
<title>storage&#45;&gt;BZZ</title>
<path fill="none" stroke="#000000" d="M1737.948,-287.8474C1744.3512,-267.8695 1750.5403,-235.9496 1733.9418,-216 1705.5802,-181.9126 1583.4815,-169.2533 1506.4309,-164.6159"/>
<polygon fill="#000000" stroke="#000000" points="1506.5213,-161.1154 1496.3377,-164.0386 1506.1215,-168.104 1506.5213,-161.1154"/>
</g>
<!-- db -->
<g id="node26" class="node">
<title>db</title>
<ellipse fill="none" stroke="#000000" cx="1730.9418" cy="-378" rx="27" ry="18"/>
<text text-anchor="middle" x="1730.9418" y="-374.3" font-family="Times,serif" font-size="14.00" fill="#000000">db</text>
</g>
<!-- db&#45;&gt;storage -->
<g id="edge19" class="edge">
<title>db&#45;&gt;storage</title>
<path fill="none" stroke="#000000" d="M1730.9418,-359.8314C1730.9418,-352.131 1730.9418,-342.9743 1730.9418,-334.4166"/>
<polygon fill="#000000" stroke="#000000" points="1734.4419,-334.4132 1730.9418,-324.4133 1727.4419,-334.4133 1734.4419,-334.4132"/>
</g>
<!-- feeds&#45;&gt;BZZ -->
<g id="edge27" class="edge">
<title>feeds&#45;&gt;BZZ</title>
<path fill="none" stroke="#000000" d="M1811.2952,-359.8016C1808.9992,-325.4303 1798.7034,-251.2582 1752.9418,-216 1715.2396,-186.9514 1585.5196,-172.4619 1506.0114,-166.1479"/>
<polygon fill="#000000" stroke="#000000" points="1505.8582,-162.6257 1495.6186,-165.3463 1505.3198,-169.605 1505.8582,-162.6257"/>
</g>
</g>
</svg>
