<?xml version="1.0" encoding="UTF-8" standalone="no"?>
<!DOCTYPE svg PUBLIC "-//W3C//DTD SVG 1.1//EN"
 "http://www.w3.org/Graphics/SVG/1.1/DTD/svg11.dtd">
<!-- Generated by graphviz version 2.40.1 (0)
 -->
<!-- Title: %3 Pages: 1 -->
<svg width="1847pt" height="548pt"
 viewBox="0.00 0.00 1846.98 548.00" xmlns="http://www.w3.org/2000/svg" xmlns:xlink="http://www.w3.org/1999/xlink">
<g id="graph0" class="graph" transform="scale(1 1) rotate(0) translate(4 544)">
<title>%3</title>
<polygon fill="#ffffff" stroke="transparent" points="-4,4 -4,-544 1842.9827,-544 1842.9827,4 -4,4"/>
<!-- test_execadapter -->
<g id="node1" class="node">
<title>test_execadapter</title>
<ellipse fill="#ffc0cb" stroke="#000000" cx="1283.0923" cy="-522" rx="181.9677" ry="18"/>
<text text-anchor="middle" x="1283.0923" y="-518.3" font-family="Times,serif" font-size="14.00" fill="#000000">Integrate Execadapter in swarm sim</text>
</g>
<!-- test_dockeradapter -->
<g id="node2" class="node">
<title>test_dockeradapter</title>
<ellipse fill="#ffc0cb" stroke="#000000" cx="1283.0923" cy="-450" rx="179.2682" ry="18"/>
<text text-anchor="middle" x="1283.0923" y="-446.3" font-family="Times,serif" font-size="14.00" fill="#000000">Create and integrate dockeradapter</text>
</g>
<!-- test_execadapter&#45;&gt;test_dockeradapter -->
<g id="edge1" class="edge">
<title>test_execadapter&#45;&gt;test_dockeradapter</title>
<path fill="none" stroke="#000000" d="M1283.0923,-503.8314C1283.0923,-496.131 1283.0923,-486.9743 1283.0923,-478.4166"/>
<polygon fill="#000000" stroke="#000000" points="1286.5924,-478.4132 1283.0923,-468.4133 1279.5924,-478.4133 1286.5924,-478.4132"/>
</g>
<!-- test_dockerkubernetes -->
<g id="node3" class="node">
<title>test_dockerkubernetes</title>
<ellipse fill="#ffc0cb" stroke="#000000" cx="1283.0923" cy="-378" rx="244.2567" ry="18"/>
<text text-anchor="middle" x="1283.0923" y="-374.3" font-family="Times,serif" font-size="14.00" fill="#000000">Integrate kubernetes orchestration in simulations</text>
</g>
<!-- test_dockeradapter&#45;&gt;test_dockerkubernetes -->
<g id="edge2" class="edge">
<title>test_dockeradapter&#45;&gt;test_dockerkubernetes</title>
<path fill="none" stroke="#000000" d="M1283.0923,-431.8314C1283.0923,-424.131 1283.0923,-414.9743 1283.0923,-406.4166"/>
<polygon fill="#000000" stroke="#000000" points="1286.5924,-406.4132 1283.0923,-396.4133 1279.5924,-406.4133 1286.5924,-406.4132"/>
</g>
<!-- test_sim2 -->
<g id="node4" class="node">
<title>test_sim2</title>
<ellipse fill="none" stroke="#000000" cx="741.0923" cy="-306" rx="155.1726" ry="18"/>
<text text-anchor="middle" x="741.0923" y="-302.3" font-family="Times,serif" font-size="14.00" fill="#000000">Network testing framework v2</text>
</g>
<!-- test_dockerkubernetes&#45;&gt;test_sim2 -->
<g id="edge3" class="edge">
<title>test_dockerkubernetes&#45;&gt;test_sim2</title>
<path fill="none" stroke="#000000" d="M1164.4831,-362.2438C1071.9936,-349.9574 944.4164,-333.0098 853.5359,-320.9372"/>
<polygon fill="#000000" stroke="#000000" points="853.8476,-317.4479 843.4738,-319.6005 852.9258,-324.3869 853.8476,-317.4479"/>
</g>
<!-- test_pssdockerinit -->
<g id="node5" class="node">
<title>test_pssdockerinit</title>
<ellipse fill="none" stroke="#000000" cx="1196.0923" cy="-306" rx="194.1657" ry="18"/>
<text text-anchor="middle" x="1196.0923" y="-302.3" font-family="Times,serif" font-size="14.00" fill="#000000">PSS hello world test with docker nodes</text>
</g>
<!-- test_dockerkubernetes&#45;&gt;test_pssdockerinit -->
<g id="edge4" class="edge">
<title>test_dockerkubernetes&#45;&gt;test_pssdockerinit</title>
<path fill="none" stroke="#000000" d="M1261.1385,-359.8314C1250.341,-350.8955 1237.174,-339.9987 1225.5181,-330.3524"/>
<polygon fill="#000000" stroke="#000000" points="1227.6731,-327.5927 1217.7376,-323.9134 1223.2101,-332.9855 1227.6731,-327.5927"/>
</g>
<!-- test_pssfinal -->
<g id="node12" class="node">
<title>test_pssfinal</title>
<ellipse fill="none" stroke="#000000" cx="1331.0923" cy="-162" rx="172.7694" ry="18"/>
<text text-anchor="middle" x="1331.0923" y="-158.3" font-family="Times,serif" font-size="14.00" fill="#000000">PSS 1000 node docker cluster test</text>
</g>
<!-- test_sim2&#45;&gt;test_pssfinal -->
<g id="edge11" class="edge">
<title>test_sim2&#45;&gt;test_pssfinal</title>
<path fill="none" stroke="#000000" d="M798.5249,-289.2595C864.3272,-270.342 975.5313,-239.1718 1072.0923,-216 1127.1446,-202.7891 1189.2256,-189.7813 1238.8046,-179.8437"/>
<polygon fill="#000000" stroke="#000000" points="1239.7462,-183.2249 1248.8673,-177.8345 1238.3755,-176.3604 1239.7462,-183.2249"/>
</g>
<!-- mvp_aug -->
<g id="node14" class="node">
<title>mvp_aug</title>
<ellipse fill="#000000" stroke="#000000" cx="1196.0923" cy="-234" rx="115.0796" ry="18"/>
<text text-anchor="middle" x="1196.0923" y="-230.3" font-family="Times,serif" font-size="14.00" fill="#ffffff">Swarm MVP aug 2019</text>
</g>
<!-- test_pssdockerinit&#45;&gt;mvp_aug -->
<g id="edge5" class="edge">
<title>test_pssdockerinit&#45;&gt;mvp_aug</title>
<path fill="none" stroke="#000000" d="M1196.0923,-287.8314C1196.0923,-280.131 1196.0923,-270.9743 1196.0923,-262.4166"/>
<polygon fill="#000000" stroke="#000000" points="1199.5924,-262.4132 1196.0923,-252.4133 1192.5924,-262.4133 1199.5924,-262.4132"/>
</g>
<!-- test_churn -->
<g id="node6" class="node">
<title>test_churn</title>
<ellipse fill="#ffc0cb" stroke="#000000" cx="87.0923" cy="-378" rx="87.1846" ry="18"/>
<text text-anchor="middle" x="87.0923" y="-374.3" font-family="Times,serif" font-size="14.00" fill="#000000">Churn simulator</text>
</g>
<!-- test_churn&#45;&gt;test_sim2 -->
<g id="edge7" class="edge">
<title>test_churn&#45;&gt;test_sim2</title>
<path fill="none" stroke="#000000" d="M149.702,-365.4308C160.7971,-363.4408 172.2633,-361.5361 183.0923,-360 323.8696,-340.0306 485.6918,-325.2673 598.694,-316.2714"/>
<polygon fill="#000000" stroke="#000000" points="599.0974,-319.7505 608.7902,-315.4726 598.5453,-312.7723 599.0974,-319.7505"/>
</g>
<!-- test_drop -->
<g id="node7" class="node">
<title>test_drop</title>
<ellipse fill="#ffc0cb" stroke="#000000" cx="310.0923" cy="-378" rx="118.0794" ry="18"/>
<text text-anchor="middle" x="310.0923" y="-374.3" font-family="Times,serif" font-size="14.00" fill="#000000">Payload drop simulator</text>
</g>
<!-- test_drop&#45;&gt;test_sim2 -->
<g id="edge10" class="edge">
<title>test_drop&#45;&gt;test_sim2</title>
<path fill="none" stroke="#000000" d="M389.8981,-364.6682C461.1599,-352.7637 565.797,-335.2837 642.3159,-322.5009"/>
<polygon fill="#000000" stroke="#000000" points="643.1604,-325.9084 652.447,-320.8085 642.0069,-319.0041 643.1604,-325.9084"/>
</g>
<!-- test_bandwidth -->
<g id="node8" class="node">
<title>test_bandwidth</title>
<ellipse fill="#ffc0cb" stroke="#000000" cx="593.0923" cy="-378" rx="146.4744" ry="18"/>
<text text-anchor="middle" x="593.0923" y="-374.3" font-family="Times,serif" font-size="14.00" fill="#000000">Custom bandwidth simulator</text>
</g>
<!-- test_bandwidth&#45;&gt;test_sim2 -->
<g id="edge8" class="edge">
<title>test_bandwidth&#45;&gt;test_sim2</title>
<path fill="none" stroke="#000000" d="M629.2971,-360.3868C649.3498,-350.6315 674.4639,-338.4138 695.8065,-328.0309"/>
<polygon fill="#000000" stroke="#000000" points="697.5438,-331.078 705.005,-323.556 694.4815,-324.7834 697.5438,-331.078"/>
</g>
<!-- test_latency -->
<g id="node9" class="node">
<title>test_latency</title>
<ellipse fill="#ffc0cb" stroke="#000000" cx="889.0923" cy="-378" rx="131.077" ry="18"/>
<text text-anchor="middle" x="889.0923" y="-374.3" font-family="Times,serif" font-size="14.00" fill="#000000">Custom latency simulator</text>
</g>
<!-- test_latency&#45;&gt;test_sim2 -->
<g id="edge9" class="edge">
<title>test_latency&#45;&gt;test_sim2</title>
<path fill="none" stroke="#000000" d="M853.2656,-360.5708C833.1449,-350.7824 807.8393,-338.4715 786.358,-328.0212"/>
<polygon fill="#000000" stroke="#000000" points="787.6255,-324.7456 777.102,-323.5182 784.5632,-331.0403 787.6255,-324.7456"/>
</g>
<!-- test_psssmoke -->
<g id="node10" class="node">
<title>test_psssmoke</title>
<ellipse fill="none" stroke="#000000" cx="1497.0923" cy="-306" rx="89.0842" ry="18"/>
<text text-anchor="middle" x="1497.0923" y="-302.3" font-family="Times,serif" font-size="14.00" fill="#000000">PSS smoke tests</text>
</g>
<!-- test_psssmoke&#45;&gt;mvp_aug -->
<g id="edge6" class="edge">
<title>test_psssmoke&#45;&gt;mvp_aug</title>
<path fill="none" stroke="#000000" d="M1439.4126,-292.2029C1390.9814,-280.618 1321.5105,-264.0004 1269.1887,-251.4849"/>
<polygon fill="#000000" stroke="#000000" points="1269.8362,-248.0411 1259.2963,-249.1186 1268.2077,-254.849 1269.8362,-248.0411"/>
</g>
<!-- test_pssmsghook -->
<g id="node11" class="node">
<title>test_pssmsghook</title>
<ellipse fill="none" stroke="#000000" cx="1467.0923" cy="-234" rx="137.5759" ry="18"/>
<text text-anchor="middle" x="1467.0923" y="-230.3" font-family="Times,serif" font-size="14.00" fill="#000000">API to detect received PSS</text>
</g>
<!-- test_pssmsghook&#45;&gt;test_pssfinal -->
<g id="edge12" class="edge">
<title>test_pssmsghook&#45;&gt;test_pssfinal</title>
<path fill="none" stroke="#000000" d="M1433.8229,-216.3868C1415.6293,-206.7549 1392.9016,-194.7226 1373.4524,-184.4259"/>
<polygon fill="#000000" stroke="#000000" points="1374.965,-181.2666 1364.4895,-179.6809 1371.6898,-187.4531 1374.965,-181.2666"/>
</g>
<!-- mvp_q3 -->
<g id="node15" class="node">
<title>mvp_q3</title>
<ellipse fill="#000000" stroke="#000000" cx="1331.0923" cy="-90" rx="122.3786" ry="18"/>
<text text-anchor="middle" x="1331.0923" y="-86.3" font-family="Times,serif" font-size="14.00" fill="#ffffff">Adaptive Node MVP Q3</text>
</g>
<!-- test_pssfinal&#45;&gt;mvp_q3 -->
<g id="edge15" class="edge">
<title>test_pssfinal&#45;&gt;mvp_q3</title>
<path fill="none" stroke="#000000" d="M1331.0923,-143.8314C1331.0923,-136.131 1331.0923,-126.9743 1331.0923,-118.4166"/>
<polygon fill="#000000" stroke="#000000" points="1334.5924,-118.4132 1331.0923,-108.4133 1327.5924,-118.4133 1334.5924,-118.4132"/>
</g>
<!-- test_pssfinalspec -->
<g id="node13" class="node">
<title>test_pssfinalspec</title>
<ellipse fill="none" stroke="#000000" cx="1731.0923" cy="-234" rx="107.781" ry="18"/>
<text text-anchor="middle" x="1731.0923" y="-230.3" font-family="Times,serif" font-size="14.00" fill="#000000">PSS test vector spec</text>
</g>
<!-- test_pssfinalspec&#45;&gt;test_pssfinal -->
<g id="edge13" class="edge">
<title>test_pssfinalspec&#45;&gt;test_pssfinal</title>
<path fill="none" stroke="#000000" d="M1657.7261,-220.7941C1593.2357,-209.1858 1498.9034,-192.206 1428.1749,-179.4749"/>
<polygon fill="#000000" stroke="#000000" points="1428.379,-175.9554 1417.9171,-177.6285 1427.1389,-182.8447 1428.379,-175.9554"/>
</g>
<!-- mvp_aug&#45;&gt;test_pssfinal -->
<g id="edge14" class="edge">
<title>mvp_aug&#45;&gt;test_pssfinal</title>
<path fill="none" stroke="#000000" d="M1228.772,-216.5708C1246.826,-206.942 1269.4565,-194.8724 1288.8411,-184.534"/>
<polygon fill="#000000" stroke="#000000" points="1290.5992,-187.5631 1297.7756,-179.7689 1287.305,-181.3866 1290.5992,-187.5631"/>
</g>
<!-- mvp_q4 -->
<g id="node16" class="node">
<title>mvp_q4</title>
<ellipse fill="#000000" stroke="#000000" cx="1331.0923" cy="-18" rx="122.3786" ry="18"/>
<text text-anchor="middle" x="1331.0923" y="-14.3" font-family="Times,serif" font-size="14.00" fill="#ffffff">Adaptive Node MVP Q4</text>
</g>
<!-- mvp_q3&#45;&gt;mvp_q4 -->
<g id="edge16" class="edge">
<title>mvp_q3&#45;&gt;mvp_q4</title>
<path fill="none" stroke="#000000" d="M1331.0923,-71.8314C1331.0923,-64.131 1331.0923,-54.9743 1331.0923,-46.4166"/>
<polygon fill="#000000" stroke="#000000" points="1334.5924,-46.4132 1331.0923,-36.4133 1327.5924,-46.4133 1334.5924,-46.4132"/>
</g>
</g>
</svg>
